solid Mesh
  facet normal -1 0 0
    outer loop
      vertex 0 0.42 0
      vertex 0 0.1 0
      vertex 0 0.42 0.02
    endloop
  endfacet
  facet normal -1 0 0
    outer loop
      vertex 0 0.1 0
      vertex 0 0.1 0.02
      vertex 0 0.42 0.02
    endloop
  endfacet
  facet normal 0 0 -1
    outer loop
      vertex 0 0.1 0
      vertex 0 0.42 0
      vertex 0.05 0.3 0
    endloop
  endfacet
  facet normal 0 0 -1
    outer loop
      vertex 0 0.42 0
      vertex 0.05 0.4 0
      vertex 0.05 0.3 0
    endloop
  endfacet
  facet normal 0 0 -1
    outer loop
      vertex 0.00054781 0.0895472 0
      vertex 0 0.1 0
      vertex 0.0506156 0.0921783 0
    endloop
  endfacet
  facet normal 0 0 -1
    outer loop
      vertex 0 0.1 0
      vertex 0.05 0.1 0
      vertex 0.0506156 0.0921783 0
    endloop
  endfacet
  facet normal -0.99863 -0.052336 0
    outer loop
      vertex 0 0.1 0
      vertex 0.00054781 0.0895472 0
      vertex 0 0.1 0.02
    endloop
  endfacet
  facet normal -0.99863 -0.052336 0
    outer loop
      vertex 0.00054781 0.0895472 0
      vertex 0.00054781 0.0895472 0.02
      vertex 0 0.1 0.02
    endloop
  endfacet
  facet normal 0 0 1
    outer loop
      vertex 0 0.1 0.02
      vertex 0.00054781 0.0895472 0.02
      vertex 0.0506156 0.0921783 0.02
    endloop
  endfacet
  facet normal 0 0 1
    outer loop
      vertex 0.00054781 0.0895472 0.02
      vertex 0.0524472 0.0845492 0.02
      vertex 0.0506156 0.0921783 0.02
    endloop
  endfacet
  facet normal 0 0 1
    outer loop
      vertex 0 0.42 0.02
      vertex 0 0.1 0.02
      vertex 0.05 0.3 0.02
    endloop
  endfacet
  facet normal 0 0 1
    outer loop
      vertex 0 0.1 0.02
      vertex 0.05 0.2 0.02
      vertex 0.05 0.3 0.02
    endloop
  endfacet
  facet normal 0 0 1
    outer loop
      vertex 0.05 0.3 0.02
      vertex 0.05 0.2 0.02
      vertex 0.8 0.3 0.02
    endloop
  endfacet
  facet normal 0 0 1
    outer loop
      vertex 0.05 0.2 0.02
      vertex 0.8 0.2 0.02
      vertex 0.8 0.3 0.02
    endloop
  endfacet
  facet normal 0 0 1
    outer loop
      vertex 0.8 0.3 0.02
      vertex 0.8 0.2 0.02
      vertex 0.84 0.1 0.02
    endloop
  endfacet
  facet normal 0 0 1
    outer loop
      vertex 0.8 0.2 0.02
      vertex 0.8 0.1 0.02
      vertex 0.84 0.1 0.02
    endloop
  endfacet
  facet normal 0 0 1
    outer loop
      vertex 0.84 0.1 0.02
      vertex 0.8 0.1 0.02
      vertex 0.799384 0.0921783 0.02
    endloop
  endfacet
  facet normal -0.99863 0.0523359 0
    outer loop
      vertex 0.00054781 0.430453 0
      vertex 0 0.42 0
      vertex 0.00054781 0.430453 0.02
    endloop
  endfacet
  facet normal -0.99863 0.0523359 0
    outer loop
      vertex 0 0.42 0
      vertex 0 0.42 0.02
      vertex 0.00054781 0.430453 0.02
    endloop
  endfacet
  facet normal 0 0 -1
    outer loop
      vertex 0 0.42 0
      vertex 0.00054781 0.430453 0
      vertex 0.05 0.4 0
    endloop
  endfacet
  facet normal 0 0 -1
    outer loop
      vertex 0.00054781 0.430453 0
      vertex 0.00218524 0.440791 0
      vertex 0.05 0.4 0
    endloop
  endfacet
  facet normal 0 0 -1
    outer loop
      vertex 0.05 0.4 0
      vertex 0.00218524 0.440791 0
      vertex 0.00489435 0.450902 0
    endloop
  endfacet
  facet normal 0 0 1
    outer loop
      vertex 0.00054781 0.430453 0.02
      vertex 0 0.42 0.02
      vertex 0.05 0.4 0.02
    endloop
  endfacet
  facet normal 0 0 1
    outer loop
      vertex 0 0.42 0.02
      vertex 0.05 0.3 0.02
      vertex 0.05 0.4 0.02
    endloop
  endfacet
  facet normal 0 0 -1
    outer loop
      vertex 0.00218524 0.0792088 0
      vertex 0.00054781 0.0895472 0
      vertex 0.0524472 0.0845492 0
    endloop
  endfacet
  facet normal 0 0 -1
    outer loop
      vertex 0.00054781 0.0895472 0
      vertex 0.0506156 0.0921783 0
      vertex 0.0524472 0.0845492 0
    endloop
  endfacet
  facet normal -0.987688 -0.156434 0
    outer loop
      vertex 0.00054781 0.0895472 0
      vertex 0.00218524 0.0792088 0
      vertex 0.00054781 0.0895472 0.02
    endloop
  endfacet
  facet normal -0.987688 -0.156434 0
    outer loop
      vertex 0.00218524 0.0792088 0
      vertex 0.00218524 0.0792088 0.02
      vertex 0.00054781 0.0895472 0.02
    endloop
  endfacet
  facet normal 0 0 1
    outer loop
      vertex 0.00054781 0.0895472 0.02
      vertex 0.00218524 0.0792088 0.02
      vertex 0.0524472 0.0845492 0.02
    endloop
  endfacet
  facet normal 0 0 1
    outer loop
      vertex 0.00218524 0.0792088 0.02
      vertex 0.0554497 0.0773005 0.02
      vertex 0.0524472 0.0845492 0.02
    endloop
  endfacet
  facet normal -0.987688 0.156435 0
    outer loop
      vertex 0.00218524 0.440791 0
      vertex 0.00054781 0.430453 0
      vertex 0.00218524 0.440791 0.02
    endloop
  endfacet
  facet normal -0.987688 0.156435 0
    outer loop
      vertex 0.00054781 0.430453 0
      vertex 0.00054781 0.430453 0.02
      vertex 0.00218524 0.440791 0.02
    endloop
  endfacet
  facet normal 0 0 1
    outer loop
      vertex 0.00218524 0.440791 0.02
      vertex 0.00054781 0.430453 0.02
      vertex 0.05 0.4 0.02
    endloop
  endfacet
  facet normal 0 0 -1
    outer loop
      vertex 0.00489435 0.0690983 0
      vertex 0.00218524 0.0792088 0
      vertex 0.0554497 0.0773005 0
    endloop
  endfacet
  facet normal 0 0 -1
    outer loop
      vertex 0.00218524 0.0792088 0
      vertex 0.0524472 0.0845492 0
      vertex 0.0554497 0.0773005 0
    endloop
  endfacet
  facet normal -0.965926 -0.258819 0
    outer loop
      vertex 0.00218524 0.0792088 0
      vertex 0.00489435 0.0690983 0
      vertex 0.00218524 0.0792088 0.02
    endloop
  endfacet
  facet normal -0.965926 -0.258819 0
    outer loop
      vertex 0.00489435 0.0690983 0
      vertex 0.00489435 0.0690983 0.02
      vertex 0.00218524 0.0792088 0.02
    endloop
  endfacet
  facet normal 0 0 1
    outer loop
      vertex 0.00218524 0.0792088 0.02
      vertex 0.00489435 0.0690983 0.02
      vertex 0.0554497 0.0773005 0.02
    endloop
  endfacet
  facet normal 0 0 1
    outer loop
      vertex 0.00489435 0.0690983 0.02
      vertex 0.00864545 0.0593263 0.02
      vertex 0.0554497 0.0773005 0.02
    endloop
  endfacet
  facet normal 0 0 1
    outer loop
      vertex 0.0554497 0.0773005 0.02
      vertex 0.00864545 0.0593263 0.02
      vertex 0.0595491 0.0706107 0.02
    endloop
  endfacet
  facet normal 0 0 1
    outer loop
      vertex 0.00864545 0.0593263 0.02
      vertex 0.0133975 0.05 0.02
      vertex 0.0595491 0.0706107 0.02
    endloop
  endfacet
  facet normal 0 0 1
    outer loop
      vertex 0.0595491 0.0706107 0.02
      vertex 0.0133975 0.05 0.02
      vertex 0.0646447 0.0646447 0.02
    endloop
  endfacet
  facet normal 0 0 1
    outer loop
      vertex 0.0133975 0.05 0.02
      vertex 0.0190983 0.0412215 0.02
      vertex 0.0646447 0.0646447 0.02
    endloop
  endfacet
  facet normal 0 0 1
    outer loop
      vertex 0.0646447 0.0646447 0.02
      vertex 0.0190983 0.0412215 0.02
      vertex 0.0706107 0.0595491 0.02
    endloop
  endfacet
  facet normal 0 0 1
    outer loop
      vertex 0.0190983 0.0412215 0.02
      vertex 0.0256855 0.0330869 0.02
      vertex 0.0706107 0.0595491 0.02
    endloop
  endfacet
  facet normal 0 0 1
    outer loop
      vertex 0.0706107 0.0595491 0.02
      vertex 0.0256855 0.0330869 0.02
      vertex 0.0773005 0.0554497 0.02
    endloop
  endfacet
  facet normal 0 0 1
    outer loop
      vertex 0.0256855 0.0330869 0.02
      vertex 0.0330869 0.0256855 0.02
      vertex 0.0773005 0.0554497 0.02
    endloop
  endfacet
  facet normal 0 0 1
    outer loop
      vertex 0.0773005 0.0554497 0.02
      vertex 0.0330869 0.0256855 0.02
      vertex 0.0845492 0.0524472 0.02
    endloop
  endfacet
  facet normal 0 0 1
    outer loop
      vertex 0.0330869 0.0256855 0.02
      vertex 0.0412215 0.0190983 0.02
      vertex 0.0845492 0.0524472 0.02
    endloop
  endfacet
  facet normal 0 0 1
    outer loop
      vertex 0.0845492 0.0524472 0.02
      vertex 0.0412215 0.0190983 0.02
      vertex 0.05 0.0133975 0.02
    endloop
  endfacet
  facet normal -0.965926 0.258818 0
    outer loop
      vertex 0.00489435 0.450902 0
      vertex 0.00218524 0.440791 0
      vertex 0.00489435 0.450902 0.02
    endloop
  endfacet
  facet normal -0.965926 0.258818 0
    outer loop
      vertex 0.00218524 0.440791 0
      vertex 0.00218524 0.440791 0.02
      vertex 0.00489435 0.450902 0.02
    endloop
  endfacet
  facet normal 0 0 1
    outer loop
      vertex 0.00489435 0.450902 0.02
      vertex 0.00218524 0.440791 0.02
      vertex 0.05 0.4 0.02
    endloop
  endfacet
  facet normal 0 0 -1
    outer loop
      vertex 0.00864545 0.0593263 0
      vertex 0.00489435 0.0690983 0
      vertex 0.0554497 0.0773005 0
    endloop
  endfacet
  facet normal -0.93358 -0.358368 0
    outer loop
      vertex 0.00489435 0.0690983 0
      vertex 0.00864545 0.0593263 0
      vertex 0.00489435 0.0690983 0.02
    endloop
  endfacet
  facet normal -0.93358 -0.358368 0
    outer loop
      vertex 0.00864545 0.0593263 0
      vertex 0.00864545 0.0593263 0.02
      vertex 0.00489435 0.0690983 0.02
    endloop
  endfacet
  facet normal -0.933581 0.358368 0
    outer loop
      vertex 0.00864545 0.460674 0
      vertex 0.00489435 0.450902 0
      vertex 0.00864545 0.460674 0.02
    endloop
  endfacet
  facet normal -0.933581 0.358368 0
    outer loop
      vertex 0.00489435 0.450902 0
      vertex 0.00489435 0.450902 0.02
      vertex 0.00864545 0.460674 0.02
    endloop
  endfacet
  facet normal 0 0 -1
    outer loop
      vertex 0.00489435 0.450902 0
      vertex 0.00864545 0.460674 0
      vertex 0.05 0.4 0
    endloop
  endfacet
  facet normal 0 0 -1
    outer loop
      vertex 0.00864545 0.460674 0
      vertex 0.0133975 0.47 0
      vertex 0.05 0.4 0
    endloop
  endfacet
  facet normal 0 0 -1
    outer loop
      vertex 0.05 0.4 0
      vertex 0.0133975 0.47 0
      vertex 0.0190983 0.478779 0
    endloop
  endfacet
  facet normal 0 0 1
    outer loop
      vertex 0.00864545 0.460674 0.02
      vertex 0.00489435 0.450902 0.02
      vertex 0.05 0.4 0.02
    endloop
  endfacet
  facet normal 0 0 -1
    outer loop
      vertex 0.0133975 0.05 0
      vertex 0.00864545 0.0593263 0
      vertex 0.0595491 0.0706107 0
    endloop
  endfacet
  facet normal 0 0 -1
    outer loop
      vertex 0.00864545 0.0593263 0
      vertex 0.0554497 0.0773005 0
      vertex 0.0595491 0.0706107 0
    endloop
  endfacet
  facet normal -0.891007 -0.453991 0
    outer loop
      vertex 0.00864545 0.0593263 0
      vertex 0.0133975 0.05 0
      vertex 0.00864545 0.0593263 0.02
    endloop
  endfacet
  facet normal -0.891007 -0.453991 0
    outer loop
      vertex 0.0133975 0.05 0
      vertex 0.0133975 0.05 0.02
      vertex 0.00864545 0.0593263 0.02
    endloop
  endfacet
  facet normal -0.891006 0.453992 0
    outer loop
      vertex 0.0133975 0.47 0
      vertex 0.00864545 0.460674 0
      vertex 0.0133975 0.47 0.02
    endloop
  endfacet
  facet normal -0.891006 0.453992 0
    outer loop
      vertex 0.00864545 0.460674 0
      vertex 0.00864545 0.460674 0.02
      vertex 0.0133975 0.47 0.02
    endloop
  endfacet
  facet normal 0 0 1
    outer loop
      vertex 0.0133975 0.47 0.02
      vertex 0.00864545 0.460674 0.02
      vertex 0.05 0.4 0.02
    endloop
  endfacet
  facet normal 0 0 -1
    outer loop
      vertex 0.0190983 0.0412215 0
      vertex 0.0133975 0.05 0
      vertex 0.0646447 0.0646447 0
    endloop
  endfacet
  facet normal 0 0 -1
    outer loop
      vertex 0.0133975 0.05 0
      vertex 0.0595491 0.0706107 0
      vertex 0.0646447 0.0646447 0
    endloop
  endfacet
  facet normal -0.838671 -0.544639 0
    outer loop
      vertex 0.0133975 0.05 0
      vertex 0.0190983 0.0412215 0
      vertex 0.0133975 0.05 0.02
    endloop
  endfacet
  facet normal -0.838671 -0.544639 0
    outer loop
      vertex 0.0190983 0.0412215 0
      vertex 0.0190983 0.0412215 0.02
      vertex 0.0133975 0.05 0.02
    endloop
  endfacet
  facet normal -0.838671 0.544638 0
    outer loop
      vertex 0.0190983 0.478779 0
      vertex 0.0133975 0.47 0
      vertex 0.0190983 0.478779 0.02
    endloop
  endfacet
  facet normal -0.838671 0.544638 0
    outer loop
      vertex 0.0133975 0.47 0
      vertex 0.0133975 0.47 0.02
      vertex 0.0190983 0.478779 0.02
    endloop
  endfacet
  facet normal 0 0 1
    outer loop
      vertex 0.0190983 0.478779 0.02
      vertex 0.0133975 0.47 0.02
      vertex 0.05 0.4 0.02
    endloop
  endfacet
  facet normal 0 0 -1
    outer loop
      vertex 0.0256855 0.0330869 0
      vertex 0.0190983 0.0412215 0
      vertex 0.0706107 0.0595491 0
    endloop
  endfacet
  facet normal 0 0 -1
    outer loop
      vertex 0.0190983 0.0412215 0
      vertex 0.0646447 0.0646447 0
      vertex 0.0706107 0.0595491 0
    endloop
  endfacet
  facet normal -0.777146 -0.62932 0
    outer loop
      vertex 0.0190983 0.0412215 0
      vertex 0.0256855 0.0330869 0
      vertex 0.0190983 0.0412215 0.02
    endloop
  endfacet
  facet normal -0.777146 -0.62932 0
    outer loop
      vertex 0.0256855 0.0330869 0
      vertex 0.0256855 0.0330869 0.02
      vertex 0.0190983 0.0412215 0.02
    endloop
  endfacet
  facet normal -0.777146 0.62932 0
    outer loop
      vertex 0.0256855 0.486913 0
      vertex 0.0190983 0.478779 0
      vertex 0.0256855 0.486913 0.02
    endloop
  endfacet
  facet normal -0.777146 0.62932 0
    outer loop
      vertex 0.0190983 0.478779 0
      vertex 0.0190983 0.478779 0.02
      vertex 0.0256855 0.486913 0.02
    endloop
  endfacet
  facet normal 0 0 -1
    outer loop
      vertex 0.0190983 0.478779 0
      vertex 0.0256855 0.486913 0
      vertex 0.05 0.4 0
    endloop
  endfacet
  facet normal 0 0 -1
    outer loop
      vertex 0.0256855 0.486913 0
      vertex 0.1 0.52 0
      vertex 0.05 0.4 0
    endloop
  endfacet
  facet normal 0 0 -1
    outer loop
      vertex 0.05 0.4 0
      vertex 0.1 0.52 0
      vertex 0.74 0.52 0
    endloop
  endfacet
  facet normal 0 0 1
    outer loop
      vertex 0.0256855 0.486913 0.02
      vertex 0.0190983 0.478779 0.02
      vertex 0.05 0.4 0.02
    endloop
  endfacet
  facet normal 0 0 -1
    outer loop
      vertex 0.0330869 0.0256855 0
      vertex 0.0256855 0.0330869 0
      vertex 0.0773005 0.0554497 0
    endloop
  endfacet
  facet normal 0 0 -1
    outer loop
      vertex 0.0256855 0.0330869 0
      vertex 0.0706107 0.0595491 0
      vertex 0.0773005 0.0554497 0
    endloop
  endfacet
  facet normal -0.707107 -0.707107 0
    outer loop
      vertex 0.0256855 0.0330869 0
      vertex 0.0330869 0.0256855 0
      vertex 0.0330869 0.0256855 0.02
    endloop
  endfacet
  facet normal -0.62932 -0.777146 0
    outer loop
      vertex 0.0330869 0.0256855 0
      vertex 0.0412215 0.0190983 0
      vertex 0.0330869 0.0256855 0.02
    endloop
  endfacet
  facet normal -0.62932 -0.777146 0
    outer loop
      vertex 0.0330869 0.0256855 0.02
      vertex 0.0412215 0.0190983 0
      vertex 0.0412215 0.0190983 0.02
    endloop
  endfacet
  facet normal -0.544639 -0.838671 0
    outer loop
      vertex 0.0412215 0.0190983 0
      vertex 0.05 0.0133975 0
      vertex 0.0412215 0.0190983 0.02
    endloop
  endfacet
  facet normal -0.544639 -0.838671 0
    outer loop
      vertex 0.0412215 0.0190983 0.02
      vertex 0.05 0.0133975 0
      vertex 0.05 0.0133975 0.02
    endloop
  endfacet
  facet normal -0.453991 -0.891007 0
    outer loop
      vertex 0.05 0.0133975 0
      vertex 0.0593263 0.00864545 0
      vertex 0.05 0.0133975 0.02
    endloop
  endfacet
  facet normal -0.453991 -0.891007 0
    outer loop
      vertex 0.05 0.0133975 0.02
      vertex 0.0593263 0.00864545 0
      vertex 0.0593263 0.00864545 0.02
    endloop
  endfacet
  facet normal -0.358368 -0.93358 0
    outer loop
      vertex 0.0593263 0.00864545 0
      vertex 0.0690983 0.00489435 0
      vertex 0.0593263 0.00864545 0.02
    endloop
  endfacet
  facet normal -0.358368 -0.93358 0
    outer loop
      vertex 0.0593263 0.00864545 0.02
      vertex 0.0690983 0.00489435 0
      vertex 0.0690983 0.00489435 0.02
    endloop
  endfacet
  facet normal -0.258819 -0.965926 0
    outer loop
      vertex 0.0690983 0.00489435 0
      vertex 0.0792088 0.00218524 0
      vertex 0.0690983 0.00489435 0.02
    endloop
  endfacet
  facet normal -0.258819 -0.965926 0
    outer loop
      vertex 0.0690983 0.00489435 0.02
      vertex 0.0792088 0.00218524 0
      vertex 0.0792088 0.00218524 0.02
    endloop
  endfacet
  facet normal -0.156434 -0.987688 0
    outer loop
      vertex 0.0792088 0.00218524 0
      vertex 0.0895472 0.00054781 0
      vertex 0.0792088 0.00218524 0.02
    endloop
  endfacet
  facet normal -0.156434 -0.987688 0
    outer loop
      vertex 0.0792088 0.00218524 0.02
      vertex 0.0895472 0.00054781 0
      vertex 0.0895472 0.00054781 0.02
    endloop
  endfacet
  facet normal -0.052336 -0.99863 0
    outer loop
      vertex 0.0895472 0.00054781 0
      vertex 0.1 0 0
      vertex 0.0895472 0.00054781 0.02
    endloop
  endfacet
  facet normal -0.052336 -0.99863 0
    outer loop
      vertex 0.0895472 0.00054781 0.02
      vertex 0.1 0 0
      vertex 0.1 0 0.02
    endloop
  endfacet
  facet normal 0 -1 0
    outer loop
      vertex 0.1 0 0
      vertex 0.74 0 0
      vertex 0.1 0 0.02
    endloop
  endfacet
  facet normal 0 -1 0
    outer loop
      vertex 0.1 0 0.02
      vertex 0.74 0 0
      vertex 0.74 0 0.02
    endloop
  endfacet
  facet normal 0.0523359 -0.99863 0
    outer loop
      vertex 0.74 0 0
      vertex 0.750453 0.00054781 0
      vertex 0.74 0 0.02
    endloop
  endfacet
  facet normal 0.0523359 -0.99863 0
    outer loop
      vertex 0.74 0 0.02
      vertex 0.750453 0.00054781 0
      vertex 0.750453 0.00054781 0.02
    endloop
  endfacet
  facet normal 0.156435 -0.987688 0
    outer loop
      vertex 0.750453 0.00054781 0
      vertex 0.760791 0.00218524 0
      vertex 0.750453 0.00054781 0.02
    endloop
  endfacet
  facet normal 0.156435 -0.987688 0
    outer loop
      vertex 0.750453 0.00054781 0.02
      vertex 0.760791 0.00218524 0
      vertex 0.760791 0.00218524 0.02
    endloop
  endfacet
  facet normal 0.258818 -0.965926 0
    outer loop
      vertex 0.760791 0.00218524 0
      vertex 0.770902 0.00489435 0
      vertex 0.760791 0.00218524 0.02
    endloop
  endfacet
  facet normal 0.258818 -0.965926 0
    outer loop
      vertex 0.760791 0.00218524 0.02
      vertex 0.770902 0.00489435 0
      vertex 0.770902 0.00489435 0.02
    endloop
  endfacet
  facet normal 0.358369 -0.93358 0
    outer loop
      vertex 0.770902 0.00489435 0
      vertex 0.780674 0.00864545 0
      vertex 0.770902 0.00489435 0.02
    endloop
  endfacet
  facet normal 0.358369 -0.93358 0
    outer loop
      vertex 0.770902 0.00489435 0.02
      vertex 0.780674 0.00864545 0
      vertex 0.780674 0.00864545 0.02
    endloop
  endfacet
  facet normal 0.45399 -0.891007 0
    outer loop
      vertex 0.780674 0.00864545 0
      vertex 0.79 0.0133975 0
      vertex 0.780674 0.00864545 0.02
    endloop
  endfacet
  facet normal 0.45399 -0.891007 0
    outer loop
      vertex 0.780674 0.00864545 0.02
      vertex 0.79 0.0133975 0
      vertex 0.79 0.0133975 0.02
    endloop
  endfacet
  facet normal 0.54464 -0.83867 0
    outer loop
      vertex 0.79 0.0133975 0
      vertex 0.798779 0.0190983 0
      vertex 0.79 0.0133975 0.02
    endloop
  endfacet
  facet normal 0.54464 -0.83867 0
    outer loop
      vertex 0.79 0.0133975 0.02
      vertex 0.798779 0.0190983 0
      vertex 0.798779 0.0190983 0.02
    endloop
  endfacet
  facet normal 0.62932 -0.777146 0
    outer loop
      vertex 0.798779 0.0190983 0
      vertex 0.806913 0.0256855 0
      vertex 0.798779 0.0190983 0.02
    endloop
  endfacet
  facet normal 0.62932 -0.777146 0
    outer loop
      vertex 0.798779 0.0190983 0.02
      vertex 0.806913 0.0256855 0
      vertex 0.806913 0.0256855 0.02
    endloop
  endfacet
  facet normal 0.707108 -0.707106 0
    outer loop
      vertex 0.806913 0.0256855 0
      vertex 0.814314 0.0330869 0.02
      vertex 0.806913 0.0256855 0.02
    endloop
  endfacet
  facet normal -0.707107 -0.707107 0
    outer loop
      vertex 0.0330869 0.0256855 0.02
      vertex 0.0256855 0.0330869 0.02
      vertex 0.0256855 0.0330869 0
    endloop
  endfacet
  facet normal -0.707106 0.707108 0
    outer loop
      vertex 0.0330869 0.494314 0
      vertex 0.0256855 0.486913 0
      vertex 0.0256855 0.486913 0.02
    endloop
  endfacet
  facet normal 0 0 -1
    outer loop
      vertex 0.0256855 0.486913 0
      vertex 0.0330869 0.494314 0
      vertex 0.1 0.52 0
    endloop
  endfacet
  facet normal 0 0 -1
    outer loop
      vertex 0.0330869 0.494314 0
      vertex 0.0412215 0.500902 0
      vertex 0.1 0.52 0
    endloop
  endfacet
  facet normal 0 0 -1
    outer loop
      vertex 0.1 0.52 0
      vertex 0.0412215 0.500902 0
      vertex 0.05 0.506603 0
    endloop
  endfacet
  facet normal 0 0 1
    outer loop
      vertex 0.0330869 0.494314 0.02
      vertex 0.0256855 0.486913 0.02
      vertex 0.1 0.52 0.02
    endloop
  endfacet
  facet normal 0 0 1
    outer loop
      vertex 0.0256855 0.486913 0.02
      vertex 0.05 0.4 0.02
      vertex 0.1 0.52 0.02
    endloop
  endfacet
  facet normal 0 0 1
    outer loop
      vertex 0.1 0.52 0.02
      vertex 0.05 0.4 0.02
      vertex 0.74 0.52 0.02
    endloop
  endfacet
  facet normal 0 0 1
    outer loop
      vertex 0.05 0.4 0.02
      vertex 0.8 0.4 0.02
      vertex 0.74 0.52 0.02
    endloop
  endfacet
  facet normal 0 0 1
    outer loop
      vertex 0.74 0.52 0.02
      vertex 0.8 0.4 0.02
      vertex 0.820902 0.478779 0.02
    endloop
  endfacet
  facet normal 0 0 1
    outer loop
      vertex 0.8 0.4 0.02
      vertex 0.826603 0.47 0.02
      vertex 0.820902 0.478779 0.02
    endloop
  endfacet
  facet normal -0.707106 0.707108 0
    outer loop
      vertex 0.0256855 0.486913 0.02
      vertex 0.0330869 0.494314 0.02
      vertex 0.0330869 0.494314 0
    endloop
  endfacet
  facet normal -0.62932 0.777146 0
    outer loop
      vertex 0.0330869 0.494314 0.02
      vertex 0.0412215 0.500902 0.02
      vertex 0.0330869 0.494314 0
    endloop
  endfacet
  facet normal -0.62932 0.777146 0
    outer loop
      vertex 0.0330869 0.494314 0
      vertex 0.0412215 0.500902 0.02
      vertex 0.0412215 0.500902 0
    endloop
  endfacet
  facet normal -0.544638 0.838671 0
    outer loop
      vertex 0.0412215 0.500902 0.02
      vertex 0.05 0.506603 0.02
      vertex 0.0412215 0.500902 0
    endloop
  endfacet
  facet normal -0.544638 0.838671 0
    outer loop
      vertex 0.0412215 0.500902 0
      vertex 0.05 0.506603 0.02
      vertex 0.05 0.506603 0
    endloop
  endfacet
  facet normal -0.453993 0.891005 0
    outer loop
      vertex 0.05 0.506603 0.02
      vertex 0.0593263 0.511355 0.02
      vertex 0.05 0.506603 0
    endloop
  endfacet
  facet normal -0.453993 0.891005 0
    outer loop
      vertex 0.05 0.506603 0
      vertex 0.0593263 0.511355 0.02
      vertex 0.0593263 0.511355 0
    endloop
  endfacet
  facet normal -0.358367 0.933581 0
    outer loop
      vertex 0.0593263 0.511355 0.02
      vertex 0.0690983 0.515106 0.02
      vertex 0.0593263 0.511355 0
    endloop
  endfacet
  facet normal -0.358367 0.933581 0
    outer loop
      vertex 0.0593263 0.511355 0
      vertex 0.0690983 0.515106 0.02
      vertex 0.0690983 0.515106 0
    endloop
  endfacet
  facet normal -0.258818 0.965926 0
    outer loop
      vertex 0.0690983 0.515106 0.02
      vertex 0.0792088 0.517815 0.02
      vertex 0.0690983 0.515106 0
    endloop
  endfacet
  facet normal -0.258818 0.965926 0
    outer loop
      vertex 0.0690983 0.515106 0
      vertex 0.0792088 0.517815 0.02
      vertex 0.0792088 0.517815 0
    endloop
  endfacet
  facet normal -0.156432 0.987689 0
    outer loop
      vertex 0.0792088 0.517815 0.02
      vertex 0.0895472 0.519452 0.02
      vertex 0.0792088 0.517815 0
    endloop
  endfacet
  facet normal -0.156432 0.987689 0
    outer loop
      vertex 0.0792088 0.517815 0
      vertex 0.0895472 0.519452 0.02
      vertex 0.0895472 0.519452 0
    endloop
  endfacet
  facet normal -0.0523375 0.998629 0
    outer loop
      vertex 0.0895472 0.519452 0.02
      vertex 0.1 0.52 0.02
      vertex 0.0895472 0.519452 0
    endloop
  endfacet
  facet normal -0.0523375 0.998629 0
    outer loop
      vertex 0.0895472 0.519452 0
      vertex 0.1 0.52 0.02
      vertex 0.1 0.52 0
    endloop
  endfacet
  facet normal 0 1 0
    outer loop
      vertex 0.1 0.52 0.02
      vertex 0.74 0.52 0.02
      vertex 0.1 0.52 0
    endloop
  endfacet
  facet normal 0 1 0
    outer loop
      vertex 0.1 0.52 0
      vertex 0.74 0.52 0.02
      vertex 0.74 0.52 0
    endloop
  endfacet
  facet normal 0.0523374 0.998629 0
    outer loop
      vertex 0.74 0.52 0.02
      vertex 0.750453 0.519452 0.02
      vertex 0.74 0.52 0
    endloop
  endfacet
  facet normal 0.0523374 0.998629 0
    outer loop
      vertex 0.74 0.52 0
      vertex 0.750453 0.519452 0.02
      vertex 0.750453 0.519452 0
    endloop
  endfacet
  facet normal 0.156432 0.987689 0
    outer loop
      vertex 0.750453 0.519452 0.02
      vertex 0.760791 0.517815 0.02
      vertex 0.750453 0.519452 0
    endloop
  endfacet
  facet normal 0.156432 0.987689 0
    outer loop
      vertex 0.750453 0.519452 0
      vertex 0.760791 0.517815 0.02
      vertex 0.760791 0.517815 0
    endloop
  endfacet
  facet normal 0.258817 0.965926 0
    outer loop
      vertex 0.760791 0.517815 0.02
      vertex 0.770902 0.515106 0.02
      vertex 0.760791 0.517815 0
    endloop
  endfacet
  facet normal 0.258817 0.965926 0
    outer loop
      vertex 0.760791 0.517815 0
      vertex 0.770902 0.515106 0.02
      vertex 0.770902 0.515106 0
    endloop
  endfacet
  facet normal 0.358368 0.93358 0
    outer loop
      vertex 0.770902 0.515106 0.02
      vertex 0.780674 0.511355 0.02
      vertex 0.770902 0.515106 0
    endloop
  endfacet
  facet normal 0.358368 0.93358 0
    outer loop
      vertex 0.770902 0.515106 0
      vertex 0.780674 0.511355 0.02
      vertex 0.780674 0.511355 0
    endloop
  endfacet
  facet normal 0.453993 0.891005 0
    outer loop
      vertex 0.780674 0.511355 0.02
      vertex 0.79 0.506603 0.02
      vertex 0.780674 0.511355 0
    endloop
  endfacet
  facet normal 0.453993 0.891005 0
    outer loop
      vertex 0.780674 0.511355 0
      vertex 0.79 0.506603 0.02
      vertex 0.79 0.506603 0
    endloop
  endfacet
  facet normal 0.544639 0.838671 0
    outer loop
      vertex 0.79 0.506603 0.02
      vertex 0.798779 0.500902 0.02
      vertex 0.79 0.506603 0
    endloop
  endfacet
  facet normal 0.544639 0.838671 0
    outer loop
      vertex 0.79 0.506603 0
      vertex 0.798779 0.500902 0.02
      vertex 0.798779 0.500902 0
    endloop
  endfacet
  facet normal 0.629319 0.777147 0
    outer loop
      vertex 0.798779 0.500902 0.02
      vertex 0.806913 0.494314 0.02
      vertex 0.798779 0.500902 0
    endloop
  endfacet
  facet normal 0.629319 0.777147 0
    outer loop
      vertex 0.798779 0.500902 0
      vertex 0.806913 0.494314 0.02
      vertex 0.806913 0.494314 0
    endloop
  endfacet
  facet normal 0.707107 0.707107 0
    outer loop
      vertex 0.806913 0.494314 0.02
      vertex 0.814314 0.486913 0
      vertex 0.806913 0.494314 0
    endloop
  endfacet
  facet normal 0 0 -1
    outer loop
      vertex 0.0412215 0.0190983 0
      vertex 0.0330869 0.0256855 0
      vertex 0.0845492 0.0524472 0
    endloop
  endfacet
  facet normal 0 0 -1
    outer loop
      vertex 0.0330869 0.0256855 0
      vertex 0.0773005 0.0554497 0
      vertex 0.0845492 0.0524472 0
    endloop
  endfacet
  facet normal 0 0 1
    outer loop
      vertex 0.0412215 0.500902 0.02
      vertex 0.0330869 0.494314 0.02
      vertex 0.1 0.52 0.02
    endloop
  endfacet
  facet normal 0 0 -1
    outer loop
      vertex 0.05 0.0133975 0
      vertex 0.0412215 0.0190983 0
      vertex 0.0845492 0.0524472 0
    endloop
  endfacet
  facet normal 0 0 1
    outer loop
      vertex 0.05 0.506603 0.02
      vertex 0.0412215 0.500902 0.02
      vertex 0.1 0.52 0.02
    endloop
  endfacet
  facet normal 0 0 -1
    outer loop
      vertex 0.0593263 0.00864545 0
      vertex 0.05 0.0133975 0
      vertex 0.0921783 0.0506156 0
    endloop
  endfacet
  facet normal 0 0 -1
    outer loop
      vertex 0.05 0.0133975 0
      vertex 0.0845492 0.0524472 0
      vertex 0.0921783 0.0506156 0
    endloop
  endfacet
  facet normal 0 0 1
    outer loop
      vertex 0.05 0.0133975 0.02
      vertex 0.0593263 0.00864545 0.02
      vertex 0.0921783 0.0506156 0.02
    endloop
  endfacet
  facet normal 0 0 1
    outer loop
      vertex 0.0593263 0.00864545 0.02
      vertex 0.0690983 0.00489435 0.02
      vertex 0.0921783 0.0506156 0.02
    endloop
  endfacet
  facet normal 0 0 1
    outer loop
      vertex 0.0921783 0.0506156 0.02
      vertex 0.0690983 0.00489435 0.02
      vertex 0.0792088 0.00218524 0.02
    endloop
  endfacet
  facet normal 0 0 -1
    outer loop
      vertex 0.05 0.2 0
      vertex 0.05 0.1 0
      vertex 0 0.1 0
    endloop
  endfacet
  facet normal 1 0 0
    outer loop
      vertex 0.05 0.1 0
      vertex 0.05 0.2 0
      vertex 0.05 0.1 0.02
    endloop
  endfacet
  facet normal 1 0 0
    outer loop
      vertex 0.05 0.2 0
      vertex 0.05 0.2 0.02
      vertex 0.05 0.1 0.02
    endloop
  endfacet
  facet normal 0.996917 0.078459 0
    outer loop
      vertex 0.0506156 0.0921783 0
      vertex 0.05 0.1 0
      vertex 0.05 0.1 0.02
    endloop
  endfacet
  facet normal 0 0 1
    outer loop
      vertex 0.0506156 0.0921783 0.02
      vertex 0.05 0.1 0.02
      vertex 0 0.1 0.02
    endloop
  endfacet
  facet normal 0 0 1
    outer loop
      vertex 0.05 0.1 0.02
      vertex 0.05 0.2 0.02
      vertex 0 0.1 0.02
    endloop
  endfacet
  facet normal 0.996917 0.078459 0
    outer loop
      vertex 0.05 0.1 0.02
      vertex 0.0506156 0.0921783 0.02
      vertex 0.0506156 0.0921783 0
    endloop
  endfacet
  facet normal 0.97237 0.233446 0
    outer loop
      vertex 0.0506156 0.0921783 0.02
      vertex 0.0524472 0.0845492 0
      vertex 0.0506156 0.0921783 0
    endloop
  endfacet
  facet normal 0 0 -1
    outer loop
      vertex 0.8 0.2 0
      vertex 0.05 0.2 0
      vertex 0.8 0.3 0
    endloop
  endfacet
  facet normal 0 0 -1
    outer loop
      vertex 0.05 0.2 0
      vertex 0.05 0.3 0
      vertex 0.8 0.3 0
    endloop
  endfacet
  facet normal 0 -1 0
    outer loop
      vertex 0.05 0.2 0
      vertex 0.8 0.2 0
      vertex 0.05 0.2 0.02
    endloop
  endfacet
  facet normal 0 -1 0
    outer loop
      vertex 0.8 0.2 0
      vertex 0.8 0.2 0.02
      vertex 0.05 0.2 0.02
    endloop
  endfacet
  facet normal 1 0 0
    outer loop
      vertex 0.05 0.3 0
      vertex 0.05 0.4 0
      vertex 0.05 0.3 0.02
    endloop
  endfacet
  facet normal 1 0 0
    outer loop
      vertex 0.05 0.4 0
      vertex 0.05 0.4 0.02
      vertex 0.05 0.3 0.02
    endloop
  endfacet
  facet normal 0 1 0
    outer loop
      vertex 0.05 0.3 0
      vertex 0.05 0.3 0.02
      vertex 0.8 0.3 0.02
    endloop
  endfacet
  facet normal 0 1 0
    outer loop
      vertex 0.8 0.3 0
      vertex 0.05 0.3 0
      vertex 0.8 0.3 0.02
    endloop
  endfacet
  facet normal 0 0 -1
    outer loop
      vertex 0.8 0.4 0
      vertex 0.05 0.4 0
      vertex 0.74 0.52 0
    endloop
  endfacet
  facet normal 0 -1 0
    outer loop
      vertex 0.05 0.4 0
      vertex 0.8 0.4 0
      vertex 0.05 0.4 0.02
    endloop
  endfacet
  facet normal 0 -1 0
    outer loop
      vertex 0.8 0.4 0
      vertex 0.8 0.4 0.02
      vertex 0.05 0.4 0.02
    endloop
  endfacet
  facet normal 0 0 -1
    outer loop
      vertex 0.05 0.506603 0
      vertex 0.0593263 0.511355 0
      vertex 0.1 0.52 0
    endloop
  endfacet
  facet normal 0 0 -1
    outer loop
      vertex 0.0593263 0.511355 0
      vertex 0.0690983 0.515106 0
      vertex 0.1 0.52 0
    endloop
  endfacet
  facet normal 0 0 -1
    outer loop
      vertex 0.1 0.52 0
      vertex 0.0690983 0.515106 0
      vertex 0.0792088 0.517815 0
    endloop
  endfacet
  facet normal 0 0 1
    outer loop
      vertex 0.0593263 0.511355 0.02
      vertex 0.05 0.506603 0.02
      vertex 0.1 0.52 0.02
    endloop
  endfacet
  facet normal 0.97237 0.233446 0
    outer loop
      vertex 0.0506156 0.0921783 0.02
      vertex 0.0524472 0.0845492 0.02
      vertex 0.0524472 0.0845492 0
    endloop
  endfacet
  facet normal 0.92388 0.382683 0
    outer loop
      vertex 0.0524472 0.0845492 0.02
      vertex 0.0554497 0.0773005 0
      vertex 0.0524472 0.0845492 0
    endloop
  endfacet
  facet normal 0.92388 0.382683 0
    outer loop
      vertex 0.0524472 0.0845492 0.02
      vertex 0.0554497 0.0773005 0.02
      vertex 0.0554497 0.0773005 0
    endloop
  endfacet
  facet normal 0.85264 0.522498 0
    outer loop
      vertex 0.0554497 0.0773005 0.02
      vertex 0.0595491 0.0706107 0
      vertex 0.0554497 0.0773005 0
    endloop
  endfacet
  facet normal 0.85264 0.522498 0
    outer loop
      vertex 0.0554497 0.0773005 0.02
      vertex 0.0595491 0.0706107 0.02
      vertex 0.0595491 0.0706107 0
    endloop
  endfacet
  facet normal 0.760406 0.649449 0
    outer loop
      vertex 0.0595491 0.0706107 0.02
      vertex 0.0646447 0.0646447 0
      vertex 0.0595491 0.0706107 0
    endloop
  endfacet
  facet normal 0 0 -1
    outer loop
      vertex 0.0690983 0.00489435 0
      vertex 0.0593263 0.00864545 0
      vertex 0.0921783 0.0506156 0
    endloop
  endfacet
  facet normal 0 0 1
    outer loop
      vertex 0.0690983 0.515106 0.02
      vertex 0.0593263 0.511355 0.02
      vertex 0.1 0.52 0.02
    endloop
  endfacet
  facet normal 0.760406 0.649449 0
    outer loop
      vertex 0.0595491 0.0706107 0.02
      vertex 0.0646447 0.0646447 0.02
      vertex 0.0646447 0.0646447 0
    endloop
  endfacet
  facet normal 0.649449 0.760406 0
    outer loop
      vertex 0.0646447 0.0646447 0.02
      vertex 0.0706107 0.0595491 0
      vertex 0.0646447 0.0646447 0
    endloop
  endfacet
  facet normal 0.649449 0.760406 0
    outer loop
      vertex 0.0646447 0.0646447 0.02
      vertex 0.0706107 0.0595491 0.02
      vertex 0.0706107 0.0595491 0
    endloop
  endfacet
  facet normal 0.522498 0.85264 0
    outer loop
      vertex 0.0706107 0.0595491 0.02
      vertex 0.0773005 0.0554497 0
      vertex 0.0706107 0.0595491 0
    endloop
  endfacet
  facet normal 0 0 -1
    outer loop
      vertex 0.0792088 0.00218524 0
      vertex 0.0690983 0.00489435 0
      vertex 0.0921783 0.0506156 0
    endloop
  endfacet
  facet normal 0 0 1
    outer loop
      vertex 0.0792088 0.517815 0.02
      vertex 0.0690983 0.515106 0.02
      vertex 0.1 0.52 0.02
    endloop
  endfacet
  facet normal 0.522498 0.85264 0
    outer loop
      vertex 0.0706107 0.0595491 0.02
      vertex 0.0773005 0.0554497 0.02
      vertex 0.0773005 0.0554497 0
    endloop
  endfacet
  facet normal 0.382683 0.92388 0
    outer loop
      vertex 0.0773005 0.0554497 0.02
      vertex 0.0845492 0.0524472 0
      vertex 0.0773005 0.0554497 0
    endloop
  endfacet
  facet normal 0.382683 0.92388 0
    outer loop
      vertex 0.0773005 0.0554497 0.02
      vertex 0.0845492 0.0524472 0.02
      vertex 0.0845492 0.0524472 0
    endloop
  endfacet
  facet normal 0.233446 0.97237 0
    outer loop
      vertex 0.0845492 0.0524472 0.02
      vertex 0.0921783 0.0506156 0
      vertex 0.0845492 0.0524472 0
    endloop
  endfacet
  facet normal 0 0 -1
    outer loop
      vertex 0.0895472 0.00054781 0
      vertex 0.0792088 0.00218524 0
      vertex 0.1 0.05 0
    endloop
  endfacet
  facet normal 0 0 -1
    outer loop
      vertex 0.0792088 0.00218524 0
      vertex 0.0921783 0.0506156 0
      vertex 0.1 0.05 0
    endloop
  endfacet
  facet normal 0 0 1
    outer loop
      vertex 0.0792088 0.00218524 0.02
      vertex 0.0895472 0.00054781 0.02
      vertex 0.1 0.05 0.02
    endloop
  endfacet
  facet normal 0 0 1
    outer loop
      vertex 0.0895472 0.00054781 0.02
      vertex 0.1 0 0.02
      vertex 0.1 0.05 0.02
    endloop
  endfacet
  facet normal 0 0 1
    outer loop
      vertex 0.1 0.05 0.02
      vertex 0.1 0 0.02
      vertex 0.74 0 0.02
    endloop
  endfacet
  facet normal 0 0 -1
    outer loop
      vertex 0.0792088 0.517815 0
      vertex 0.0895472 0.519452 0
      vertex 0.1 0.52 0
    endloop
  endfacet
  facet normal 0 0 1
    outer loop
      vertex 0.0895472 0.519452 0.02
      vertex 0.0792088 0.517815 0.02
      vertex 0.1 0.52 0.02
    endloop
  endfacet
  facet normal 0 0 1
    outer loop
      vertex 0.0921783 0.0506156 0.02
      vertex 0.0845492 0.0524472 0.02
      vertex 0.05 0.0133975 0.02
    endloop
  endfacet
  facet normal 0.233446 0.97237 0
    outer loop
      vertex 0.0845492 0.0524472 0.02
      vertex 0.0921783 0.0506156 0.02
      vertex 0.0921783 0.0506156 0
    endloop
  endfacet
  facet normal 0.078459 0.996917 0
    outer loop
      vertex 0.0921783 0.0506156 0.02
      vertex 0.1 0.05 0
      vertex 0.0921783 0.0506156 0
    endloop
  endfacet
  facet normal 0 0 -1
    outer loop
      vertex 0.1 0 0
      vertex 0.0895472 0.00054781 0
      vertex 0.1 0.05 0
    endloop
  endfacet
  facet normal 0 0 1
    outer loop
      vertex 0.1 0.05 0.02
      vertex 0.0921783 0.0506156 0.02
      vertex 0.0792088 0.00218524 0.02
    endloop
  endfacet
  facet normal 0.078459 0.996917 0
    outer loop
      vertex 0.0921783 0.0506156 0.02
      vertex 0.1 0.05 0.02
      vertex 0.1 0.05 0
    endloop
  endfacet
  facet normal 0 1 0
    outer loop
      vertex 0.1 0.05 0.02
      vertex 0.75 0.05 0.02
      vertex 0.1 0.05 0
    endloop
  endfacet
  facet normal 0 1 0
    outer loop
      vertex 0.1 0.05 0
      vertex 0.75 0.05 0.02
      vertex 0.75 0.05 0
    endloop
  endfacet
  facet normal -0.0784588 0.996917 0
    outer loop
      vertex 0.75 0.05 0.02
      vertex 0.757822 0.0506156 0
      vertex 0.75 0.05 0
    endloop
  endfacet
  facet normal 0 0 -1
    outer loop
      vertex 0.74 0 0
      vertex 0.1 0 0
      vertex 0.1 0.05 0
    endloop
  endfacet
  facet normal 0 0 -1
    outer loop
      vertex 0.1 0.05 0
      vertex 0.75 0.05 0
      vertex 0.74 0 0
    endloop
  endfacet
  facet normal 0 0 -1
    outer loop
      vertex 0.75 0.05 0
      vertex 0.750453 0.00054781 0
      vertex 0.74 0 0
    endloop
  endfacet
  facet normal 0 0 1
    outer loop
      vertex 0.75 0.05 0.02
      vertex 0.1 0.05 0.02
      vertex 0.74 0 0.02
    endloop
  endfacet
  facet normal 0 0 1
    outer loop
      vertex 0.74 0 0.02
      vertex 0.750453 0.00054781 0.02
      vertex 0.75 0.05 0.02
    endloop
  endfacet
  facet normal 0 0 1
    outer loop
      vertex 0.750453 0.00054781 0.02
      vertex 0.760791 0.00218524 0.02
      vertex 0.75 0.05 0.02
    endloop
  endfacet
  facet normal 0 0 1
    outer loop
      vertex 0.75 0.05 0.02
      vertex 0.760791 0.00218524 0.02
      vertex 0.770902 0.00489435 0.02
    endloop
  endfacet
  facet normal 0 0 -1
    outer loop
      vertex 0.74 0.52 0
      vertex 0.750453 0.519452 0
      vertex 0.760791 0.517815 0
    endloop
  endfacet
  facet normal 0 0 1
    outer loop
      vertex 0.750453 0.519452 0.02
      vertex 0.74 0.52 0.02
      vertex 0.760791 0.517815 0.02
    endloop
  endfacet
  facet normal 0 0 1
    outer loop
      vertex 0.74 0.52 0.02
      vertex 0.770902 0.515106 0.02
      vertex 0.760791 0.517815 0.02
    endloop
  endfacet
  facet normal 0 0 -1
    outer loop
      vertex 0.75 0.05 0
      vertex 0.757822 0.0506156 0
      vertex 0.780674 0.00864545 0
    endloop
  endfacet
  facet normal 0 0 -1
    outer loop
      vertex 0.757822 0.0506156 0
      vertex 0.79 0.0133975 0
      vertex 0.780674 0.00864545 0
    endloop
  endfacet
  facet normal 0 0 1
    outer loop
      vertex 0.757822 0.0506156 0.02
      vertex 0.75 0.05 0.02
      vertex 0.780674 0.00864545 0.02
    endloop
  endfacet
  facet normal 0 0 1
    outer loop
      vertex 0.75 0.05 0.02
      vertex 0.770902 0.00489435 0.02
      vertex 0.780674 0.00864545 0.02
    endloop
  endfacet
  facet normal -0.0784588 0.996917 0
    outer loop
      vertex 0.75 0.05 0.02
      vertex 0.757822 0.0506156 0.02
      vertex 0.757822 0.0506156 0
    endloop
  endfacet
  facet normal -0.233445 0.97237 0
    outer loop
      vertex 0.757822 0.0506156 0.02
      vertex 0.765451 0.0524472 0
      vertex 0.757822 0.0506156 0
    endloop
  endfacet
  facet normal 0 0 -1
    outer loop
      vertex 0.760791 0.00218524 0
      vertex 0.750453 0.00054781 0
      vertex 0.75 0.05 0
    endloop
  endfacet
  facet normal 0 0 -1
    outer loop
      vertex 0.757822 0.0506156 0
      vertex 0.765451 0.0524472 0
      vertex 0.798779 0.0190983 0
    endloop
  endfacet
  facet normal 0 0 -1
    outer loop
      vertex 0.765451 0.0524472 0
      vertex 0.806913 0.0256855 0
      vertex 0.798779 0.0190983 0
    endloop
  endfacet
  facet normal 0 0 1
    outer loop
      vertex 0.765451 0.0524472 0.02
      vertex 0.757822 0.0506156 0.02
      vertex 0.798779 0.0190983 0.02
    endloop
  endfacet
  facet normal 0 0 1
    outer loop
      vertex 0.757822 0.0506156 0.02
      vertex 0.79 0.0133975 0.02
      vertex 0.798779 0.0190983 0.02
    endloop
  endfacet
  facet normal -0.233445 0.97237 0
    outer loop
      vertex 0.757822 0.0506156 0.02
      vertex 0.765451 0.0524472 0.02
      vertex 0.765451 0.0524472 0
    endloop
  endfacet
  facet normal -0.382685 0.923879 0
    outer loop
      vertex 0.765451 0.0524472 0.02
      vertex 0.7727 0.0554497 0
      vertex 0.765451 0.0524472 0
    endloop
  endfacet
  facet normal 0 0 -1
    outer loop
      vertex 0.770902 0.00489435 0
      vertex 0.760791 0.00218524 0
      vertex 0.75 0.05 0
    endloop
  endfacet
  facet normal 0 0 -1
    outer loop
      vertex 0.760791 0.517815 0
      vertex 0.770902 0.515106 0
      vertex 0.74 0.52 0
    endloop
  endfacet
  facet normal 0 0 -1
    outer loop
      vertex 0.770902 0.515106 0
      vertex 0.780674 0.511355 0
      vertex 0.74 0.52 0
    endloop
  endfacet
  facet normal 0 0 -1
    outer loop
      vertex 0.74 0.52 0
      vertex 0.780674 0.511355 0
      vertex 0.79 0.506603 0
    endloop
  endfacet
  facet normal 0 0 -1
    outer loop
      vertex 0.765451 0.0524472 0
      vertex 0.7727 0.0554497 0
      vertex 0.806913 0.0256855 0
    endloop
  endfacet
  facet normal 0 0 -1
    outer loop
      vertex 0.7727 0.0554497 0
      vertex 0.814314 0.0330869 0
      vertex 0.806913 0.0256855 0
    endloop
  endfacet
  facet normal 0 0 1
    outer loop
      vertex 0.7727 0.0554497 0.02
      vertex 0.765451 0.0524472 0.02
      vertex 0.806913 0.0256855 0.02
    endloop
  endfacet
  facet normal 0 0 1
    outer loop
      vertex 0.765451 0.0524472 0.02
      vertex 0.798779 0.0190983 0.02
      vertex 0.806913 0.0256855 0.02
    endloop
  endfacet
  facet normal -0.382685 0.923879 0
    outer loop
      vertex 0.765451 0.0524472 0.02
      vertex 0.7727 0.0554497 0.02
      vertex 0.7727 0.0554497 0
    endloop
  endfacet
  facet normal -0.522499 0.85264 0
    outer loop
      vertex 0.7727 0.0554497 0.02
      vertex 0.779389 0.0595491 0
      vertex 0.7727 0.0554497 0
    endloop
  endfacet
  facet normal 0 0 -1
    outer loop
      vertex 0.780674 0.00864545 0
      vertex 0.770902 0.00489435 0
      vertex 0.75 0.05 0
    endloop
  endfacet
  facet normal 0 0 1
    outer loop
      vertex 0.780674 0.511355 0.02
      vertex 0.770902 0.515106 0.02
      vertex 0.74 0.52 0.02
    endloop
  endfacet
  facet normal 0 0 -1
    outer loop
      vertex 0.7727 0.0554497 0
      vertex 0.779389 0.0595491 0
      vertex 0.820902 0.0412215 0
    endloop
  endfacet
  facet normal 0 0 -1
    outer loop
      vertex 0.779389 0.0595491 0
      vertex 0.826603 0.05 0
      vertex 0.820902 0.0412215 0
    endloop
  endfacet
  facet normal 0 0 1
    outer loop
      vertex 0.779389 0.0595491 0.02
      vertex 0.7727 0.0554497 0.02
      vertex 0.820902 0.0412215 0.02
    endloop
  endfacet
  facet normal 0 0 1
    outer loop
      vertex 0.7727 0.0554497 0.02
      vertex 0.814314 0.0330869 0.02
      vertex 0.820902 0.0412215 0.02
    endloop
  endfacet
  facet normal -0.522499 0.85264 0
    outer loop
      vertex 0.7727 0.0554497 0.02
      vertex 0.779389 0.0595491 0.02
      vertex 0.779389 0.0595491 0
    endloop
  endfacet
  facet normal -0.649445 0.760408 0
    outer loop
      vertex 0.779389 0.0595491 0.02
      vertex 0.785355 0.0646447 0
      vertex 0.779389 0.0595491 0
    endloop
  endfacet
  facet normal 0 0 -1
    outer loop
      vertex 0.779389 0.0595491 0
      vertex 0.785355 0.0646447 0
      vertex 0.826603 0.05 0
    endloop
  endfacet
  facet normal 0 0 -1
    outer loop
      vertex 0.785355 0.0646447 0
      vertex 0.831354 0.0593263 0
      vertex 0.826603 0.05 0
    endloop
  endfacet
  facet normal 0 0 1
    outer loop
      vertex 0.785355 0.0646447 0.02
      vertex 0.779389 0.0595491 0.02
      vertex 0.826603 0.05 0.02
    endloop
  endfacet
  facet normal 0 0 1
    outer loop
      vertex 0.779389 0.0595491 0.02
      vertex 0.820902 0.0412215 0.02
      vertex 0.826603 0.05 0.02
    endloop
  endfacet
  facet normal -0.649445 0.760408 0
    outer loop
      vertex 0.779389 0.0595491 0.02
      vertex 0.785355 0.0646447 0.02
      vertex 0.785355 0.0646447 0
    endloop
  endfacet
  facet normal -0.760408 0.649446 0
    outer loop
      vertex 0.785355 0.0646447 0.02
      vertex 0.790451 0.0706107 0
      vertex 0.785355 0.0646447 0
    endloop
  endfacet
  facet normal 0 0 1
    outer loop
      vertex 0.780674 0.00864545 0.02
      vertex 0.79 0.0133975 0.02
      vertex 0.757822 0.0506156 0.02
    endloop
  endfacet
  facet normal 0 0 1
    outer loop
      vertex 0.79 0.506603 0.02
      vertex 0.780674 0.511355 0.02
      vertex 0.74 0.52 0.02
    endloop
  endfacet
  facet normal 0 0 -1
    outer loop
      vertex 0.785355 0.0646447 0
      vertex 0.790451 0.0706107 0
      vertex 0.831354 0.0593263 0
    endloop
  endfacet
  facet normal 0 0 -1
    outer loop
      vertex 0.790451 0.0706107 0
      vertex 0.835106 0.0690983 0
      vertex 0.831354 0.0593263 0
    endloop
  endfacet
  facet normal 0 0 1
    outer loop
      vertex 0.790451 0.0706107 0.02
      vertex 0.785355 0.0646447 0.02
      vertex 0.831354 0.0593263 0.02
    endloop
  endfacet
  facet normal 0 0 1
    outer loop
      vertex 0.785355 0.0646447 0.02
      vertex 0.826603 0.05 0.02
      vertex 0.831354 0.0593263 0.02
    endloop
  endfacet
  facet normal -0.760408 0.649446 0
    outer loop
      vertex 0.785355 0.0646447 0.02
      vertex 0.790451 0.0706107 0.02
      vertex 0.790451 0.0706107 0
    endloop
  endfacet
  facet normal -0.852643 0.522494 0
    outer loop
      vertex 0.790451 0.0706107 0.02
      vertex 0.79455 0.0773005 0
      vertex 0.790451 0.0706107 0
    endloop
  endfacet
  facet normal 0 0 -1
    outer loop
      vertex 0.798779 0.0190983 0
      vertex 0.79 0.0133975 0
      vertex 0.757822 0.0506156 0
    endloop
  endfacet
  facet normal 0 0 -1
    outer loop
      vertex 0.79 0.506603 0
      vertex 0.798779 0.500902 0
      vertex 0.74 0.52 0
    endloop
  endfacet
  facet normal 0 0 -1
    outer loop
      vertex 0.798779 0.500902 0
      vertex 0.806913 0.494314 0
      vertex 0.74 0.52 0
    endloop
  endfacet
  facet normal 0 0 -1
    outer loop
      vertex 0.74 0.52 0
      vertex 0.806913 0.494314 0
      vertex 0.814314 0.486913 0
    endloop
  endfacet
  facet normal 0 0 1
    outer loop
      vertex 0.798779 0.500902 0.02
      vertex 0.79 0.506603 0.02
      vertex 0.74 0.52 0.02
    endloop
  endfacet
  facet normal 0 0 -1
    outer loop
      vertex 0.790451 0.0706107 0
      vertex 0.79455 0.0773005 0
      vertex 0.835106 0.0690983 0
    endloop
  endfacet
  facet normal 0 0 -1
    outer loop
      vertex 0.79455 0.0773005 0
      vertex 0.837815 0.0792088 0
      vertex 0.835106 0.0690983 0
    endloop
  endfacet
  facet normal 0 0 1
    outer loop
      vertex 0.79455 0.0773005 0.02
      vertex 0.790451 0.0706107 0.02
      vertex 0.835106 0.0690983 0.02
    endloop
  endfacet
  facet normal 0 0 1
    outer loop
      vertex 0.790451 0.0706107 0.02
      vertex 0.831354 0.0593263 0.02
      vertex 0.835106 0.0690983 0.02
    endloop
  endfacet
  facet normal -0.852643 0.522494 0
    outer loop
      vertex 0.790451 0.0706107 0.02
      vertex 0.79455 0.0773005 0.02
      vertex 0.79455 0.0773005 0
    endloop
  endfacet
  facet normal -0.923876 0.382693 0
    outer loop
      vertex 0.79455 0.0773005 0.02
      vertex 0.797553 0.0845492 0
      vertex 0.79455 0.0773005 0
    endloop
  endfacet
  facet normal 0 0 -1
    outer loop
      vertex 0.79455 0.0773005 0
      vertex 0.797553 0.0845492 0
      vertex 0.837815 0.0792088 0
    endloop
  endfacet
  facet normal 0 0 -1
    outer loop
      vertex 0.797553 0.0845492 0
      vertex 0.839452 0.0895472 0
      vertex 0.837815 0.0792088 0
    endloop
  endfacet
  facet normal 0 0 1
    outer loop
      vertex 0.797553 0.0845492 0.02
      vertex 0.79455 0.0773005 0.02
      vertex 0.837815 0.0792088 0.02
    endloop
  endfacet
  facet normal 0 0 1
    outer loop
      vertex 0.79455 0.0773005 0.02
      vertex 0.835106 0.0690983 0.02
      vertex 0.837815 0.0792088 0.02
    endloop
  endfacet
  facet normal -0.923876 0.382693 0
    outer loop
      vertex 0.79455 0.0773005 0.02
      vertex 0.797553 0.0845492 0.02
      vertex 0.797553 0.0845492 0
    endloop
  endfacet
  facet normal -0.97237 0.233445 0
    outer loop
      vertex 0.797553 0.0845492 0.02
      vertex 0.799384 0.0921783 0
      vertex 0.797553 0.0845492 0
    endloop
  endfacet
  facet normal 0 0 -1
    outer loop
      vertex 0.797553 0.0845492 0
      vertex 0.799384 0.0921783 0
      vertex 0.839452 0.0895472 0
    endloop
  endfacet
  facet normal 0 0 -1
    outer loop
      vertex 0.799384 0.0921783 0
      vertex 0.84 0.1 0
      vertex 0.839452 0.0895472 0
    endloop
  endfacet
  facet normal 0 0 1
    outer loop
      vertex 0.799384 0.0921783 0.02
      vertex 0.797553 0.0845492 0.02
      vertex 0.839452 0.0895472 0.02
    endloop
  endfacet
  facet normal 0 0 1
    outer loop
      vertex 0.797553 0.0845492 0.02
      vertex 0.837815 0.0792088 0.02
      vertex 0.839452 0.0895472 0.02
    endloop
  endfacet
  facet normal -0.97237 0.233445 0
    outer loop
      vertex 0.797553 0.0845492 0.02
      vertex 0.799384 0.0921783 0.02
      vertex 0.799384 0.0921783 0
    endloop
  endfacet
  facet normal -0.996918 0.0784533 0
    outer loop
      vertex 0.799384 0.0921783 0.02
      vertex 0.8 0.1 0
      vertex 0.799384 0.0921783 0
    endloop
  endfacet
  facet normal 0 0 1
    outer loop
      vertex 0.806913 0.494314 0.02
      vertex 0.798779 0.500902 0.02
      vertex 0.74 0.52 0.02
    endloop
  endfacet
  facet normal 0 0 -1
    outer loop
      vertex 0.799384 0.0921783 0
      vertex 0.8 0.1 0
      vertex 0.84 0.1 0
    endloop
  endfacet
  facet normal 0 0 -1
    outer loop
      vertex 0.8 0.1 0
      vertex 0.8 0.2 0
      vertex 0.84 0.1 0
    endloop
  endfacet
  facet normal 0 0 -1
    outer loop
      vertex 0.84 0.1 0
      vertex 0.8 0.2 0
      vertex 0.8 0.3 0
    endloop
  endfacet
  facet normal -0.996918 0.0784533 0
    outer loop
      vertex 0.799384 0.0921783 0.02
      vertex 0.8 0.1 0.02
      vertex 0.8 0.1 0
    endloop
  endfacet
  facet normal -1 0 0
    outer loop
      vertex 0.8 0.1 0.02
      vertex 0.8 0.2 0.02
      vertex 0.8 0.1 0
    endloop
  endfacet
  facet normal -1 0 0
    outer loop
      vertex 0.8 0.1 0
      vertex 0.8 0.2 0.02
      vertex 0.8 0.2 0
    endloop
  endfacet
  facet normal -1 0 0
    outer loop
      vertex 0.8 0.3 0
      vertex 0.8 0.3 0.02
      vertex 0.8 0.4 0.02
    endloop
  endfacet
  facet normal -1 0 0
    outer loop
      vertex 0.8 0.4 0
      vertex 0.8 0.3 0
      vertex 0.8 0.4 0.02
    endloop
  endfacet
  facet normal 0 0 -1
    outer loop
      vertex 0.8 0.3 0
      vertex 0.8 0.4 0
      vertex 0.84 0.42 0
    endloop
  endfacet
  facet normal 0 0 -1
    outer loop
      vertex 0.8 0.4 0
      vertex 0.839452 0.430453 0
      vertex 0.84 0.42 0
    endloop
  endfacet
  facet normal 0 0 1
    outer loop
      vertex 0.8 0.4 0.02
      vertex 0.8 0.3 0.02
      vertex 0.84 0.42 0.02
    endloop
  endfacet
  facet normal 0 0 1
    outer loop
      vertex 0.8 0.3 0.02
      vertex 0.84 0.1 0.02
      vertex 0.84 0.42 0.02
    endloop
  endfacet
  facet normal 0.707108 -0.707106 0
    outer loop
      vertex 0.806913 0.0256855 0
      vertex 0.814314 0.0330869 0
      vertex 0.814314 0.0330869 0.02
    endloop
  endfacet
  facet normal 0.777146 -0.62932 0
    outer loop
      vertex 0.814314 0.0330869 0
      vertex 0.820902 0.0412215 0
      vertex 0.814314 0.0330869 0.02
    endloop
  endfacet
  facet normal 0.777146 -0.62932 0
    outer loop
      vertex 0.814314 0.0330869 0.02
      vertex 0.820902 0.0412215 0
      vertex 0.820902 0.0412215 0.02
    endloop
  endfacet
  facet normal 0.838669 -0.544642 0
    outer loop
      vertex 0.820902 0.0412215 0
      vertex 0.826603 0.05 0
      vertex 0.820902 0.0412215 0.02
    endloop
  endfacet
  facet normal 0.838669 -0.544642 0
    outer loop
      vertex 0.820902 0.0412215 0.02
      vertex 0.826603 0.05 0
      vertex 0.826603 0.05 0.02
    endloop
  endfacet
  facet normal 0.89101 -0.453984 0
    outer loop
      vertex 0.826603 0.05 0
      vertex 0.831354 0.0593263 0
      vertex 0.826603 0.05 0.02
    endloop
  endfacet
  facet normal 0.89101 -0.453984 0
    outer loop
      vertex 0.826603 0.05 0.02
      vertex 0.831354 0.0593263 0
      vertex 0.831354 0.0593263 0.02
    endloop
  endfacet
  facet normal 0.933579 -0.358372 0
    outer loop
      vertex 0.831354 0.0593263 0
      vertex 0.835106 0.0690983 0
      vertex 0.831354 0.0593263 0.02
    endloop
  endfacet
  facet normal 0.933579 -0.358372 0
    outer loop
      vertex 0.831354 0.0593263 0.02
      vertex 0.835106 0.0690983 0
      vertex 0.835106 0.0690983 0.02
    endloop
  endfacet
  facet normal 0.965925 -0.258823 0
    outer loop
      vertex 0.835106 0.0690983 0
      vertex 0.837815 0.0792088 0
      vertex 0.835106 0.0690983 0.02
    endloop
  endfacet
  facet normal 0.965925 -0.258823 0
    outer loop
      vertex 0.835106 0.0690983 0.02
      vertex 0.837815 0.0792088 0
      vertex 0.837815 0.0792088 0.02
    endloop
  endfacet
  facet normal 0.987689 -0.156432 0
    outer loop
      vertex 0.837815 0.0792088 0
      vertex 0.839452 0.0895472 0
      vertex 0.837815 0.0792088 0.02
    endloop
  endfacet
  facet normal 0.987689 -0.156432 0
    outer loop
      vertex 0.837815 0.0792088 0.02
      vertex 0.839452 0.0895472 0
      vertex 0.839452 0.0895472 0.02
    endloop
  endfacet
  facet normal 0.99863 -0.0523318 0
    outer loop
      vertex 0.839452 0.0895472 0
      vertex 0.84 0.1 0
      vertex 0.839452 0.0895472 0.02
    endloop
  endfacet
  facet normal 0.99863 -0.0523318 0
    outer loop
      vertex 0.839452 0.0895472 0.02
      vertex 0.84 0.1 0
      vertex 0.84 0.1 0.02
    endloop
  endfacet
  facet normal 1 0 0
    outer loop
      vertex 0.84 0.1 0
      vertex 0.84 0.42 0
      vertex 0.84 0.1 0.02
    endloop
  endfacet
  facet normal 1 0 0
    outer loop
      vertex 0.84 0.1 0.02
      vertex 0.84 0.42 0
      vertex 0.84 0.42 0.02
    endloop
  endfacet
  facet normal 0.99863 0.0523317 0
    outer loop
      vertex 0.84 0.42 0
      vertex 0.839452 0.430453 0
      vertex 0.84 0.42 0.02
    endloop
  endfacet
  facet normal 0.99863 0.0523317 0
    outer loop
      vertex 0.84 0.42 0.02
      vertex 0.839452 0.430453 0
      vertex 0.839452 0.430453 0.02
    endloop
  endfacet
  facet normal 0.987689 0.156432 0
    outer loop
      vertex 0.839452 0.430453 0
      vertex 0.837815 0.440791 0
      vertex 0.839452 0.430453 0.02
    endloop
  endfacet
  facet normal 0.987689 0.156432 0
    outer loop
      vertex 0.839452 0.430453 0.02
      vertex 0.837815 0.440791 0
      vertex 0.837815 0.440791 0.02
    endloop
  endfacet
  facet normal 0.965925 0.258822 0
    outer loop
      vertex 0.837815 0.440791 0
      vertex 0.835106 0.450902 0
      vertex 0.837815 0.440791 0.02
    endloop
  endfacet
  facet normal 0.965925 0.258822 0
    outer loop
      vertex 0.837815 0.440791 0.02
      vertex 0.835106 0.450902 0
      vertex 0.835106 0.450902 0.02
    endloop
  endfacet
  facet normal 0.933579 0.358372 0
    outer loop
      vertex 0.835106 0.450902 0
      vertex 0.831354 0.460674 0
      vertex 0.835106 0.450902 0.02
    endloop
  endfacet
  facet normal 0.933579 0.358372 0
    outer loop
      vertex 0.835106 0.450902 0.02
      vertex 0.831354 0.460674 0
      vertex 0.831354 0.460674 0.02
    endloop
  endfacet
  facet normal 0.891009 0.453985 0
    outer loop
      vertex 0.831354 0.460674 0
      vertex 0.826603 0.47 0
      vertex 0.831354 0.460674 0.02
    endloop
  endfacet
  facet normal 0.891009 0.453985 0
    outer loop
      vertex 0.831354 0.460674 0.02
      vertex 0.826603 0.47 0
      vertex 0.826603 0.47 0.02
    endloop
  endfacet
  facet normal 0.838669 0.544641 0
    outer loop
      vertex 0.826603 0.47 0
      vertex 0.820902 0.478779 0
      vertex 0.826603 0.47 0.02
    endloop
  endfacet
  facet normal 0.838669 0.544641 0
    outer loop
      vertex 0.826603 0.47 0.02
      vertex 0.820902 0.478779 0
      vertex 0.820902 0.478779 0.02
    endloop
  endfacet
  facet normal 0.777147 0.629319 0
    outer loop
      vertex 0.820902 0.478779 0
      vertex 0.814314 0.486913 0
      vertex 0.820902 0.478779 0.02
    endloop
  endfacet
  facet normal 0.777147 0.629319 0
    outer loop
      vertex 0.820902 0.478779 0.02
      vertex 0.814314 0.486913 0
      vertex 0.814314 0.486913 0.02
    endloop
  endfacet
  facet normal 0.707107 0.707107 0
    outer loop
      vertex 0.814314 0.486913 0
      vertex 0.806913 0.494314 0.02
      vertex 0.814314 0.486913 0.02
    endloop
  endfacet
  facet normal 0 0 1
    outer loop
      vertex 0.806913 0.0256855 0.02
      vertex 0.814314 0.0330869 0.02
      vertex 0.7727 0.0554497 0.02
    endloop
  endfacet
  facet normal 0 0 1
    outer loop
      vertex 0.814314 0.486913 0.02
      vertex 0.806913 0.494314 0.02
      vertex 0.74 0.52 0.02
    endloop
  endfacet
  facet normal 0 0 -1
    outer loop
      vertex 0.820902 0.0412215 0
      vertex 0.814314 0.0330869 0
      vertex 0.7727 0.0554497 0
    endloop
  endfacet
  facet normal 0 0 -1
    outer loop
      vertex 0.814314 0.486913 0
      vertex 0.820902 0.478779 0
      vertex 0.74 0.52 0
    endloop
  endfacet
  facet normal 0 0 -1
    outer loop
      vertex 0.820902 0.478779 0
      vertex 0.8 0.4 0
      vertex 0.74 0.52 0
    endloop
  endfacet
  facet normal 0 0 1
    outer loop
      vertex 0.820902 0.478779 0.02
      vertex 0.814314 0.486913 0.02
      vertex 0.74 0.52 0.02
    endloop
  endfacet
  facet normal 0 0 -1
    outer loop
      vertex 0.820902 0.478779 0
      vertex 0.826603 0.47 0
      vertex 0.8 0.4 0
    endloop
  endfacet
  facet normal 0 0 -1
    outer loop
      vertex 0.826603 0.47 0
      vertex 0.831354 0.460674 0
      vertex 0.8 0.4 0
    endloop
  endfacet
  facet normal 0 0 -1
    outer loop
      vertex 0.8 0.4 0
      vertex 0.831354 0.460674 0
      vertex 0.835106 0.450902 0
    endloop
  endfacet
  facet normal 0 0 1
    outer loop
      vertex 0.831354 0.460674 0.02
      vertex 0.826603 0.47 0.02
      vertex 0.8 0.4 0.02
    endloop
  endfacet
  facet normal 0 0 1
    outer loop
      vertex 0.835106 0.450902 0.02
      vertex 0.831354 0.460674 0.02
      vertex 0.8 0.4 0.02
    endloop
  endfacet
  facet normal 0 0 -1
    outer loop
      vertex 0.835106 0.450902 0
      vertex 0.837815 0.440791 0
      vertex 0.8 0.4 0
    endloop
  endfacet
  facet normal 0 0 -1
    outer loop
      vertex 0.837815 0.440791 0
      vertex 0.839452 0.430453 0
      vertex 0.8 0.4 0
    endloop
  endfacet
  facet normal 0 0 1
    outer loop
      vertex 0.837815 0.440791 0.02
      vertex 0.835106 0.450902 0.02
      vertex 0.8 0.4 0.02
    endloop
  endfacet
  facet normal 0 0 1
    outer loop
      vertex 0.839452 0.430453 0.02
      vertex 0.837815 0.440791 0.02
      vertex 0.8 0.4 0.02
    endloop
  endfacet
  facet normal 0 0 1
    outer loop
      vertex 0.839452 0.0895472 0.02
      vertex 0.84 0.1 0.02
      vertex 0.799384 0.0921783 0.02
    endloop
  endfacet
  facet normal 0 0 1
    outer loop
      vertex 0.84 0.42 0.02
      vertex 0.839452 0.430453 0.02
      vertex 0.8 0.4 0.02
    endloop
  endfacet
  facet normal 0 0 -1
    outer loop
      vertex 0.84 0.42 0
      vertex 0.84 0.1 0
      vertex 0.8 0.3 0
    endloop
  endfacet
  facet normal 0 0 -1
    outer loop
      vertex 0.05 0.3 0
      vertex 0.05 0.2 0
      vertex 0 0.1 0
    endloop
  endfacet
endsolid Mesh
