<?xml version="1.0" encoding="utf-8" ?>
<svg baseProfile="tiny" height="1020.0" version="1.2" width="420.0" xmlns="http://www.w3.org/2000/svg" xmlns:ev="http://www.w3.org/2001/xml-events" xmlns:xlink="http://www.w3.org/1999/xlink"><defs /><polyline fill="none" points="10.0,10.0 10.0158,10.0 10.0632,10.0 10.1421,10.0 10.2526,10.0 10.3947,10.0 10.5682,10.0 10.7733,10.0 11.0098,10.0 11.2777,10.0 11.5771,10.0 11.9077,10.0 12.2697,10.0 12.6628,10.0 13.0871,10.0 13.5425,10.0 14.029,10.0 14.5464,10.0 15.0946,10.0 15.6737,10.0 16.2834,10.0 16.9237,10.0 17.5945,10.0 18.2956,10.0 19.0271,10.0 19.7887,10.0 20.5803,10.0 21.4019,10.0 22.2532,10.0 23.1342,10.0 24.0447,10.0 24.9846,10.0 25.9536,10.0 26.9518,10.0 27.9788,10.0 29.0346,10.0 30.1189,10.0 31.2317,10.0 32.3727,10.0 33.5418,10.0 34.7387,10.0 35.9632,10.0 37.2153,10.0 38.4947,10.0 39.8011,10.0 41.1344,10.0 42.4944,10.0 43.8808,10.0 45.2935,10.0 46.7321,10.0 48.1966,10.0 49.6866,10.0 51.2019,10.0 52.7423,10.0 54.3075,10.0 55.8974,10.0 57.5115,10.0 59.1497,10.0 60.8118,10.0 62.4974,10.0 64.2063,10.0 65.9382,10.0 67.6929,10.0 69.47,10.0 71.2693,10.0 73.0906,10.0 74.9334,10.0 76.7976,10.0 78.6828,10.0 80.5888,10.0 82.5152,10.0 84.4617,10.0 86.4281,10.0 88.4139,10.0 90.419,10.0 92.4429,10.0 94.4855,10.0 96.5462,10.0 98.6249,10.0 100.7211,10.0 102.8346,10.0 104.9651,10.0 107.1121,10.0 109.2754,10.0 111.4545,10.0 113.6493,10.0 115.8592,10.0 118.084,10.0 120.3234,10.0 122.5768,10.0 124.8441,10.0 127.1249,10.0 129.4187,10.0 131.7253,10.0 134.0442,10.0 136.3751,10.0 138.7176,10.0 141.0714,10.0 143.4361,10.0 145.8113,10.0 148.1966,10.0 150.5917,10.0 152.9961,10.0 155.4096,10.0 157.8317,10.0 160.262,10.0 162.7002,10.0 165.1458,10.0 167.5986,10.0 170.058,10.0 172.5237,10.0 174.9954,10.0 177.4726,10.0 179.9549,10.0 182.4419,10.0 184.9334,10.0 187.4287,10.0 189.9277,10.0 192.4298,10.0 194.9346,10.0 197.4419,10.0 199.9511,10.0 202.462,10.0 204.974,10.0 207.4868,10.0 210.0,10.0 212.5132,10.0 215.026,10.0 217.538,10.0 220.0489,10.0 222.5581,10.0 225.0654,10.0 227.5702,10.0 230.0723,10.0 232.5713,10.0 235.0666,10.0 237.5581,10.0 240.0451,10.0 242.5274,10.0 245.0046,10.0 247.4763,10.0 249.942,10.0 252.4014,10.0 254.8542,10.0 257.2998,10.0 259.738,10.0 262.1683,10.0 264.5904,10.0 267.0039,10.0 269.4083,10.0 271.8034,10.0 274.1887,10.0 276.5639,10.0 278.9286,10.0 281.2824,10.0 283.6249,10.0 285.9558,10.0 288.2747,10.0 290.5813,10.0 292.8751,10.0 295.1559,10.0 297.4232,10.0 299.6766,10.0 301.916,10.0 304.1408,10.0 306.3507,10.0 308.5455,10.0 310.7246,10.0 312.8879,10.0 315.0349,10.0 317.1654,10.0 319.2789,10.0 321.3751,10.0 323.4538,10.0 325.5145,10.0 327.5571,10.0 329.581,10.0 331.5861,10.0 333.5719,10.0 335.5383,10.0 337.4848,10.0 339.4112,10.0 341.3172,10.0 343.2024,10.0 345.0666,10.0 346.9094,10.0 348.7307,10.0 350.53,10.0 352.3071,10.0 354.0618,10.0 355.7937,10.0 357.5026,10.0 359.1882,10.0 360.8503,10.0 362.4885,10.0 364.1026,10.0 365.6925,10.0 367.2577,10.0 368.7981,10.0 370.3134,10.0 371.8034,10.0 373.2679,10.0 374.7065,10.0 376.1192,10.0 377.5056,10.0 378.8656,10.0 380.1989,10.0 381.5053,10.0 382.7847,10.0 384.0368,10.0 385.2613,10.0 386.4582,10.0 387.6273,10.0 388.7683,10.0 389.8811,10.0 390.9654,10.0 392.0212,10.0 393.0482,10.0 394.0464,10.0 395.0154,10.0 395.9553,10.0 396.8658,10.0 397.7468,10.0 398.5981,10.0 399.4197,10.0 400.2113,10.0 400.9729,10.0 401.7044,10.0 402.4055,10.0 403.0763,10.0 403.7166,10.0 404.3263,10.0 404.9054,10.0 405.4536,10.0 405.971,10.0 406.4575,10.0 406.9129,10.0 407.3372,10.0 407.7303,10.0 408.0923,10.0 408.4229,10.0 408.7223,10.0 408.9902,10.0 409.2267,10.0 409.4318,10.0 409.6053,10.0 409.7474,10.0 409.8579,10.0 409.9368,10.0 409.9842,10.0 410.0,10.0 409.9842,10.0 409.9368,10.0 409.8579,10.0 409.7474,10.0 409.6053,10.0 409.4318,10.0 409.2267,10.0 408.9902,10.0 408.7223,10.0 408.4229,10.0 408.0923,10.0 407.7303,10.0 407.3372,10.0 406.9129,10.0 406.4575,10.0 405.971,10.0 405.4536,10.0 404.9054,10.0 404.3263,10.0 403.7166,10.0 403.0763,10.0 402.4055,10.0 401.7044,10.0 400.9729,10.0 400.2113,10.0 399.4197,10.0 398.5981,10.0 397.7468,10.0 396.8658,10.0 395.9553,10.0 395.0154,10.0 394.0464,10.0 393.0482,10.0 392.0212,10.0 390.9654,10.0 389.8811,10.0 388.7683,10.0 387.6273,10.0 386.4582,10.0 385.2613,10.0 384.0368,10.0 382.7847,10.0 381.5053,10.0 380.1989,10.0 378.8656,10.0 377.5056,10.0 376.1192,10.0 374.7065,10.0 373.2679,10.0 371.8034,10.0 370.3134,10.0 368.7981,10.0 367.2577,10.0 365.6925,10.0 364.1026,10.0 362.4885,10.0 360.8503,10.0 359.1882,10.0 357.5026,10.0 355.7937,10.0 354.0618,10.0 352.3071,10.0 350.53,10.0 348.7307,10.0 346.9094,10.0 345.0666,10.0 343.2024,10.0 341.3172,10.0 339.4112,10.0 337.4848,10.0 335.5383,10.0 333.5719,10.0 331.5861,10.0 329.581,10.0 327.5571,10.0 325.5145,10.0 323.4538,10.0 321.3751,10.0 319.2789,10.0 317.1654,10.0 315.0349,10.0 312.8879,10.0 310.7246,10.0 308.5455,10.0 306.3507,10.0 304.1408,10.0 301.916,10.0 299.6766,10.0 297.4232,10.0 295.1559,10.0 292.8751,10.0 290.5813,10.0 288.2747,10.0 285.9558,10.0 283.6249,10.0 281.2824,10.0 278.9286,10.0 276.5639,10.0 274.1887,10.0 271.8034,10.0 269.4083,10.0 267.0039,10.0 264.5904,10.0 262.1683,10.0 259.738,10.0 257.2998,10.0 254.8542,10.0 252.4014,10.0 249.942,10.0 247.4763,10.0 245.0046,10.0 242.5274,10.0 240.0451,10.0 237.5581,10.0 235.0666,10.0 232.5713,10.0 230.0723,10.0 227.5702,10.0 225.0654,10.0 222.5581,10.0 220.0489,10.0 217.538,10.0 215.026,10.0 212.5132,10.0 210.0,10.0 207.4868,10.0 204.974,10.0 202.462,10.0 199.9511,10.0 197.4419,10.0 194.9346,10.0 192.4298,10.0 189.9277,10.0 187.4287,10.0 184.9334,10.0 182.4419,10.0 179.9549,10.0 177.4726,10.0 174.9954,10.0 172.5237,10.0 170.058,10.0 167.5986,10.0 165.1458,10.0 162.7002,10.0 160.262,10.0 157.8317,10.0 155.4096,10.0 152.9961,10.0 150.5917,10.0 148.1966,10.0 145.8113,10.0 143.4361,10.0 141.0714,10.0 138.7176,10.0 136.3751,10.0 134.0442,10.0 131.7253,10.0 129.4187,10.0 127.1249,10.0 124.8441,10.0 122.5768,10.0 120.3234,10.0 118.084,10.0 115.8592,10.0 113.6493,10.0 111.4545,10.0 109.2754,10.0 107.1121,10.0 104.9651,10.0 102.8346,10.0 100.7211,10.0 98.6249,10.0 96.5462,10.0 94.4855,10.0 92.4429,10.0 90.419,10.0 88.4139,10.0 86.4281,10.0 84.4617,10.0 82.5152,10.0 80.5888,10.0 78.6828,10.0 76.7976,10.0 74.9334,10.0 73.0906,10.0 71.2693,10.0 69.47,10.0 67.6929,10.0 65.9382,10.0 64.2063,10.0 62.4974,10.0 60.8118,10.0 59.1497,10.0 57.5115,10.0 55.8974,10.0 54.3075,10.0 52.7423,10.0 51.2019,10.0 49.6866,10.0 48.1966,10.0 46.7321,10.0 45.2935,10.0 43.8808,10.0 42.4944,10.0 41.1344,10.0 39.8011,10.0 38.4947,10.0 37.2153,10.0 35.9632,10.0 34.7387,10.0 33.5418,10.0 32.3727,10.0 31.2317,10.0 30.1189,10.0 29.0346,10.0 27.9788,10.0 26.9518,10.0 25.9536,10.0 24.9846,10.0 24.0447,10.0 23.1342,10.0 22.2532,10.0 21.4019,10.0 20.5803,10.0 19.7887,10.0 19.0271,10.0 18.2956,10.0 17.5945,10.0 16.9237,10.0 16.2834,10.0 15.6737,10.0 15.0946,10.0 14.5464,10.0 14.029,10.0 13.5425,10.0 13.0871,10.0 12.6628,10.0 12.2697,10.0 11.9077,10.0 11.5771,10.0 11.2777,10.0 11.0098,10.0 10.7733,10.0 10.5682,10.0 10.3947,10.0 10.2526,10.0 10.1421,10.0 10.0632,10.0 10.0158,10.0 10.0,10.0" stroke="black" stroke-width="1" /><polyline fill="none" points="10.0,1010.0 10.0,990.0 10.0,970.0 10.0,950.0 10.0,930.0 10.0,910.0 10.0,890.0 10.0,870.0 10.0,850.0 10.0,830.0 10.0,810.0 10.0,790.0 10.0,770.0 10.0,750.0 10.0,730.0 10.0,710.0 10.0,690.0 10.0,670.0 10.0,650.0 10.0,630.0 10.0,610.0 10.0,590.0 10.0,570.0 10.0,550.0 10.0,530.0 10.0,510.0 10.0,490.0 10.0,470.0 10.0,450.0 10.0,430.0 10.0,410.0 10.0,390.0 10.0,370.0 10.0,350.0 10.0,330.0 10.0,310.0 10.0,290.0 10.0,270.0 10.0,250.0 10.0,230.0 10.0,210.0 10.0,190.0 10.0,170.0 10.0,150.0 10.0,130.0 10.0,110.0 10.0,90.0 10.0,70.0 10.0,50.0 10.0,30.0 10.0,10.0" stroke="black" stroke-width="1" /><polyline fill="none" points="10.0,1010.0 10.0158,1010.0 10.0632,1010.0 10.1421,1010.0 10.2526,1010.0 10.3947,1010.0 10.5682,1010.0 10.7733,1010.0 11.0098,1010.0 11.2777,1010.0 11.5771,1010.0 11.9077,1010.0 12.2697,1010.0 12.6628,1010.0 13.0871,1010.0 13.5425,1010.0 14.029,1010.0 14.5464,1010.0 15.0946,1010.0 15.6737,1010.0 16.2834,1010.0 16.9237,1010.0 17.5945,1010.0 18.2956,1010.0 19.0271,1010.0 19.7887,1010.0 20.5803,1010.0 21.4019,1010.0 22.2532,1010.0 23.1342,1010.0 24.0447,1010.0 24.9846,1010.0 25.9536,1010.0 26.9518,1010.0 27.9788,1010.0 29.0346,1010.0 30.1189,1010.0 31.2317,1010.0 32.3727,1010.0 33.5418,1010.0 34.7387,1010.0 35.9632,1010.0 37.2153,1010.0 38.4947,1010.0 39.8011,1010.0 41.1344,1010.0 42.4944,1010.0 43.8808,1010.0 45.2935,1010.0 46.7321,1010.0 48.1966,1010.0 49.6866,1010.0 51.2019,1010.0 52.7423,1010.0 54.3075,1010.0 55.8974,1010.0 57.5115,1010.0 59.1497,1010.0 60.8118,1010.0 62.4974,1010.0 64.2063,1010.0 65.9382,1010.0 67.6929,1010.0 69.47,1010.0 71.2693,1010.0 73.0906,1010.0 74.9334,1010.0 76.7976,1010.0 78.6828,1010.0 80.5888,1010.0 82.5152,1010.0 84.4617,1010.0 86.4281,1010.0 88.4139,1010.0 90.419,1010.0 92.4429,1010.0 94.4855,1010.0 96.5462,1010.0 98.6249,1010.0 100.7211,1010.0 102.8346,1010.0 104.9651,1010.0 107.1121,1010.0 109.2754,1010.0 111.4545,1010.0 113.6493,1010.0 115.8592,1010.0 118.084,1010.0 120.3234,1010.0 122.5768,1010.0 124.8441,1010.0 127.1249,1010.0 129.4187,1010.0 131.7253,1010.0 134.0442,1010.0 136.3751,1010.0 138.7176,1010.0 141.0714,1010.0 143.4361,1010.0 145.8113,1010.0 148.1966,1010.0 150.5917,1010.0 152.9961,1010.0 155.4096,1010.0 157.8317,1010.0 160.262,1010.0 162.7002,1010.0 165.1458,1010.0 167.5986,1010.0 170.058,1010.0 172.5237,1010.0 174.9954,1010.0 177.4726,1010.0 179.9549,1010.0 182.4419,1010.0 184.9334,1010.0 187.4287,1010.0 189.9277,1010.0 192.4298,1010.0 194.9346,1010.0 197.4419,1010.0 199.9511,1010.0 202.462,1010.0 204.974,1010.0 207.4868,1010.0 210.0,1010.0 212.5132,1010.0 215.026,1010.0 217.538,1010.0 220.0489,1010.0 222.5581,1010.0 225.0654,1010.0 227.5702,1010.0 230.0723,1010.0 232.5713,1010.0 235.0666,1010.0 237.5581,1010.0 240.0451,1010.0 242.5274,1010.0 245.0046,1010.0 247.4763,1010.0 249.942,1010.0 252.4014,1010.0 254.8542,1010.0 257.2998,1010.0 259.738,1010.0 262.1683,1010.0 264.5904,1010.0 267.0039,1010.0 269.4083,1010.0 271.8034,1010.0 274.1887,1010.0 276.5639,1010.0 278.9286,1010.0 281.2824,1010.0 283.6249,1010.0 285.9558,1010.0 288.2747,1010.0 290.5813,1010.0 292.8751,1010.0 295.1559,1010.0 297.4232,1010.0 299.6766,1010.0 301.916,1010.0 304.1408,1010.0 306.3507,1010.0 308.5455,1010.0 310.7246,1010.0 312.8879,1010.0 315.0349,1010.0 317.1654,1010.0 319.2789,1010.0 321.3751,1010.0 323.4538,1010.0 325.5145,1010.0 327.5571,1010.0 329.581,1010.0 331.5861,1010.0 333.5719,1010.0 335.5383,1010.0 337.4848,1010.0 339.4112,1010.0 341.3172,1010.0 343.2024,1010.0 345.0666,1010.0 346.9094,1010.0 348.7307,1010.0 350.53,1010.0 352.3071,1010.0 354.0618,1010.0 355.7937,1010.0 357.5026,1010.0 359.1882,1010.0 360.8503,1010.0 362.4885,1010.0 364.1026,1010.0 365.6925,1010.0 367.2577,1010.0 368.7981,1010.0 370.3134,1010.0 371.8034,1010.0 373.2679,1010.0 374.7065,1010.0 376.1192,1010.0 377.5056,1010.0 378.8656,1010.0 380.1989,1010.0 381.5053,1010.0 382.7847,1010.0 384.0368,1010.0 385.2613,1010.0 386.4582,1010.0 387.6273,1010.0 388.7683,1010.0 389.8811,1010.0 390.9654,1010.0 392.0212,1010.0 393.0482,1010.0 394.0464,1010.0 395.0154,1010.0 395.9553,1010.0 396.8658,1010.0 397.7468,1010.0 398.5981,1010.0 399.4197,1010.0 400.2113,1010.0 400.9729,1010.0 401.7044,1010.0 402.4055,1010.0 403.0763,1010.0 403.7166,1010.0 404.3263,1010.0 404.9054,1010.0 405.4536,1010.0 405.971,1010.0 406.4575,1010.0 406.9129,1010.0 407.3372,1010.0 407.7303,1010.0 408.0923,1010.0 408.4229,1010.0 408.7223,1010.0 408.9902,1010.0 409.2267,1010.0 409.4318,1010.0 409.6053,1010.0 409.7474,1010.0 409.8579,1010.0 409.9368,1010.0 409.9842,1010.0 410.0,1010.0 409.9842,1010.0 409.9368,1010.0 409.8579,1010.0 409.7474,1010.0 409.6053,1010.0 409.4318,1010.0 409.2267,1010.0 408.9902,1010.0 408.7223,1010.0 408.4229,1010.0 408.0923,1010.0 407.7303,1010.0 407.3372,1010.0 406.9129,1010.0 406.4575,1010.0 405.971,1010.0 405.4536,1010.0 404.9054,1010.0 404.3263,1010.0 403.7166,1010.0 403.0763,1010.0 402.4055,1010.0 401.7044,1010.0 400.9729,1010.0 400.2113,1010.0 399.4197,1010.0 398.5981,1010.0 397.7468,1010.0 396.8658,1010.0 395.9553,1010.0 395.0154,1010.0 394.0464,1010.0 393.0482,1010.0 392.0212,1010.0 390.9654,1010.0 389.8811,1010.0 388.7683,1010.0 387.6273,1010.0 386.4582,1010.0 385.2613,1010.0 384.0368,1010.0 382.7847,1010.0 381.5053,1010.0 380.1989,1010.0 378.8656,1010.0 377.5056,1010.0 376.1192,1010.0 374.7065,1010.0 373.2679,1010.0 371.8034,1010.0 370.3134,1010.0 368.7981,1010.0 367.2577,1010.0 365.6925,1010.0 364.1026,1010.0 362.4885,1010.0 360.8503,1010.0 359.1882,1010.0 357.5026,1010.0 355.7937,1010.0 354.0618,1010.0 352.3071,1010.0 350.53,1010.0 348.7307,1010.0 346.9094,1010.0 345.0666,1010.0 343.2024,1010.0 341.3172,1010.0 339.4112,1010.0 337.4848,1010.0 335.5383,1010.0 333.5719,1010.0 331.5861,1010.0 329.581,1010.0 327.5571,1010.0 325.5145,1010.0 323.4538,1010.0 321.3751,1010.0 319.2789,1010.0 317.1654,1010.0 315.0349,1010.0 312.8879,1010.0 310.7246,1010.0 308.5455,1010.0 306.3507,1010.0 304.1408,1010.0 301.916,1010.0 299.6766,1010.0 297.4232,1010.0 295.1559,1010.0 292.8751,1010.0 290.5813,1010.0 288.2747,1010.0 285.9558,1010.0 283.6249,1010.0 281.2824,1010.0 278.9286,1010.0 276.5639,1010.0 274.1887,1010.0 271.8034,1010.0 269.4083,1010.0 267.0039,1010.0 264.5904,1010.0 262.1683,1010.0 259.738,1010.0 257.2998,1010.0 254.8542,1010.0 252.4014,1010.0 249.942,1010.0 247.4763,1010.0 245.0046,1010.0 242.5274,1010.0 240.0451,1010.0 237.5581,1010.0 235.0666,1010.0 232.5713,1010.0 230.0723,1010.0 227.5702,1010.0 225.0654,1010.0 222.5581,1010.0 220.0489,1010.0 217.538,1010.0 215.026,1010.0 212.5132,1010.0 210.0,1010.0 207.4868,1010.0 204.974,1010.0 202.462,1010.0 199.9511,1010.0 197.4419,1010.0 194.9346,1010.0 192.4298,1010.0 189.9277,1010.0 187.4287,1010.0 184.9334,1010.0 182.4419,1010.0 179.9549,1010.0 177.4726,1010.0 174.9954,1010.0 172.5237,1010.0 170.058,1010.0 167.5986,1010.0 165.1458,1010.0 162.7002,1010.0 160.262,1010.0 157.8317,1010.0 155.4096,1010.0 152.9961,1010.0 150.5917,1010.0 148.1966,1010.0 145.8113,1010.0 143.4361,1010.0 141.0714,1010.0 138.7176,1010.0 136.3751,1010.0 134.0442,1010.0 131.7253,1010.0 129.4187,1010.0 127.1249,1010.0 124.8441,1010.0 122.5768,1010.0 120.3234,1010.0 118.084,1010.0 115.8592,1010.0 113.6493,1010.0 111.4545,1010.0 109.2754,1010.0 107.1121,1010.0 104.9651,1010.0 102.8346,1010.0 100.7211,1010.0 98.6249,1010.0 96.5462,1010.0 94.4855,1010.0 92.4429,1010.0 90.419,1010.0 88.4139,1010.0 86.4281,1010.0 84.4617,1010.0 82.5152,1010.0 80.5888,1010.0 78.6828,1010.0 76.7976,1010.0 74.9334,1010.0 73.0906,1010.0 71.2693,1010.0 69.47,1010.0 67.6929,1010.0 65.9382,1010.0 64.2063,1010.0 62.4974,1010.0 60.8118,1010.0 59.1497,1010.0 57.5115,1010.0 55.8974,1010.0 54.3075,1010.0 52.7423,1010.0 51.2019,1010.0 49.6866,1010.0 48.1966,1010.0 46.7321,1010.0 45.2935,1010.0 43.8808,1010.0 42.4944,1010.0 41.1344,1010.0 39.8011,1010.0 38.4947,1010.0 37.2153,1010.0 35.9632,1010.0 34.7387,1010.0 33.5418,1010.0 32.3727,1010.0 31.2317,1010.0 30.1189,1010.0 29.0346,1010.0 27.9788,1010.0 26.9518,1010.0 25.9536,1010.0 24.9846,1010.0 24.0447,1010.0 23.1342,1010.0 22.2532,1010.0 21.4019,1010.0 20.5803,1010.0 19.7887,1010.0 19.0271,1010.0 18.2956,1010.0 17.5945,1010.0 16.9237,1010.0 16.2834,1010.0 15.6737,1010.0 15.0946,1010.0 14.5464,1010.0 14.029,1010.0 13.5425,1010.0 13.0871,1010.0 12.6628,1010.0 12.2697,1010.0 11.9077,1010.0 11.5771,1010.0 11.2777,1010.0 11.0098,1010.0 10.7733,1010.0 10.5682,1010.0 10.3947,1010.0 10.2526,1010.0 10.1421,1010.0 10.0632,1010.0 10.0158,1010.0 10.0,1010.0" stroke="black" stroke-width="1" /><polyline fill="none" points="10.0,1010.0 10.0,990.0 10.0,970.0 10.0,950.0 10.0,930.0 10.0,910.0 10.0,890.0 10.0,870.0 10.0,850.0 10.0,830.0 10.0,810.0 10.0,790.0 10.0,770.0 10.0,750.0 10.0,730.0 10.0,710.0 10.0,690.0 10.0,670.0 10.0,650.0 10.0,630.0 10.0,610.0 10.0,590.0 10.0,570.0 10.0,550.0 10.0,530.0 10.0,510.0 10.0,490.0 10.0,470.0 10.0,450.0 10.0,430.0 10.0,410.0 10.0,390.0 10.0,370.0 10.0,350.0 10.0,330.0 10.0,310.0 10.0,290.0 10.0,270.0 10.0,250.0 10.0,230.0 10.0,210.0 10.0,190.0 10.0,170.0 10.0,150.0 10.0,130.0 10.0,110.0 10.0,90.0 10.0,70.0 10.0,50.0 10.0,30.0 10.0,10.0" stroke="black" stroke-width="1" /><polyline fill="none" points="10.0,10.0 10.0158,10.0 10.0632,10.0 10.1421,10.0 10.2526,10.0 10.3947,10.0 10.5682,10.0 10.7733,10.0 11.0098,10.0 11.2777,10.0 11.5771,10.0 11.9077,10.0 12.2697,10.0 12.6628,10.0 13.0871,10.0 13.5425,10.0 14.029,10.0 14.5464,10.0 15.0946,10.0 15.6737,10.0 16.2834,10.0 16.9237,10.0 17.5945,10.0 18.2956,10.0 19.0271,10.0 19.7887,10.0 20.5803,10.0 21.4019,10.0 22.2532,10.0 23.1342,10.0 24.0447,10.0 24.9846,10.0 25.9536,10.0 26.9518,10.0 27.9788,10.0 29.0346,10.0 30.1189,10.0 31.2317,10.0 32.3727,10.0 33.5418,10.0 34.7387,10.0 35.9632,10.0 37.2153,10.0 38.4947,10.0 39.8011,10.0 41.1344,10.0 42.4944,10.0 43.8808,10.0 45.2935,10.0 46.7321,10.0 48.1966,10.0 49.6866,10.0 51.2019,10.0 52.7423,10.0 54.3075,10.0 55.8974,10.0 57.5115,10.0 59.1497,10.0 60.8118,10.0 62.4974,10.0 64.2063,10.0 65.9382,10.0 67.6929,10.0 69.47,10.0 71.2693,10.0 73.0906,10.0 74.9334,10.0 76.7976,10.0 78.6828,10.0 80.5888,10.0 82.5152,10.0 84.4617,10.0 86.4281,10.0 88.4139,10.0 90.419,10.0 92.4429,10.0 94.4855,10.0 96.5462,10.0 98.6249,10.0 100.7211,10.0 102.8346,10.0 104.9651,10.0 107.1121,10.0 109.2754,10.0 111.4545,10.0 113.6493,10.0 115.8592,10.0 118.084,10.0 120.3234,10.0 122.5768,10.0 124.8441,10.0 127.1249,10.0 129.4187,10.0 131.7253,10.0 134.0442,10.0 136.3751,10.0 138.7176,10.0 141.0714,10.0 143.4361,10.0 145.8113,10.0 148.1966,10.0 150.5917,10.0 152.9961,10.0 155.4096,10.0 157.8317,10.0 160.262,10.0 162.7002,10.0 165.1458,10.0 167.5986,10.0 170.058,10.0 172.5237,10.0 174.9954,10.0 177.4726,10.0 179.9549,10.0 182.4419,10.0 184.9334,10.0 187.4287,10.0 189.9277,10.0 192.4298,10.0 194.9346,10.0 197.4419,10.0 199.9511,10.0 202.462,10.0 204.974,10.0 207.4868,10.0 210.0,10.0 212.5132,10.0 215.026,10.0 217.538,10.0 220.0489,10.0 222.5581,10.0 225.0654,10.0 227.5702,10.0 230.0723,10.0 232.5713,10.0 235.0666,10.0 237.5581,10.0 240.0451,10.0 242.5274,10.0 245.0046,10.0 247.4763,10.0 249.942,10.0 252.4014,10.0 254.8542,10.0 257.2998,10.0 259.738,10.0 262.1683,10.0 264.5904,10.0 267.0039,10.0 269.4083,10.0 271.8034,10.0 274.1887,10.0 276.5639,10.0 278.9286,10.0 281.2824,10.0 283.6249,10.0 285.9558,10.0 288.2747,10.0 290.5813,10.0 292.8751,10.0 295.1559,10.0 297.4232,10.0 299.6766,10.0 301.916,10.0 304.1408,10.0 306.3507,10.0 308.5455,10.0 310.7246,10.0 312.8879,10.0 315.0349,10.0 317.1654,10.0 319.2789,10.0 321.3751,10.0 323.4538,10.0 325.5145,10.0 327.5571,10.0 329.581,10.0 331.5861,10.0 333.5719,10.0 335.5383,10.0 337.4848,10.0 339.4112,10.0 341.3172,10.0 343.2024,10.0 345.0666,10.0 346.9094,10.0 348.7307,10.0 350.53,10.0 352.3071,10.0 354.0618,10.0 355.7937,10.0 357.5026,10.0 359.1882,10.0 360.8503,10.0 362.4885,10.0 364.1026,10.0 365.6925,10.0 367.2577,10.0 368.7981,10.0 370.3134,10.0 371.8034,10.0 373.2679,10.0 374.7065,10.0 376.1192,10.0 377.5056,10.0 378.8656,10.0 380.1989,10.0 381.5053,10.0 382.7847,10.0 384.0368,10.0 385.2613,10.0 386.4582,10.0 387.6273,10.0 388.7683,10.0 389.8811,10.0 390.9654,10.0 392.0212,10.0 393.0482,10.0 394.0464,10.0 395.0154,10.0 395.9553,10.0 396.8658,10.0 397.7468,10.0 398.5981,10.0 399.4197,10.0 400.2113,10.0 400.9729,10.0 401.7044,10.0 402.4055,10.0 403.0763,10.0 403.7166,10.0 404.3263,10.0 404.9054,10.0 405.4536,10.0 405.971,10.0 406.4575,10.0 406.9129,10.0 407.3372,10.0 407.7303,10.0 408.0923,10.0 408.4229,10.0 408.7223,10.0 408.9902,10.0 409.2267,10.0 409.4318,10.0 409.6053,10.0 409.7474,10.0 409.8579,10.0 409.9368,10.0 409.9842,10.0 410.0,10.0 409.9842,10.0 409.9368,10.0 409.8579,10.0 409.7474,10.0 409.6053,10.0 409.4318,10.0 409.2267,10.0 408.9902,10.0 408.7223,10.0 408.4229,10.0 408.0923,10.0 407.7303,10.0 407.3372,10.0 406.9129,10.0 406.4575,10.0 405.971,10.0 405.4536,10.0 404.9054,10.0 404.3263,10.0 403.7166,10.0 403.0763,10.0 402.4055,10.0 401.7044,10.0 400.9729,10.0 400.2113,10.0 399.4197,10.0 398.5981,10.0 397.7468,10.0 396.8658,10.0 395.9553,10.0 395.0154,10.0 394.0464,10.0 393.0482,10.0 392.0212,10.0 390.9654,10.0 389.8811,10.0 388.7683,10.0 387.6273,10.0 386.4582,10.0 385.2613,10.0 384.0368,10.0 382.7847,10.0 381.5053,10.0 380.1989,10.0 378.8656,10.0 377.5056,10.0 376.1192,10.0 374.7065,10.0 373.2679,10.0 371.8034,10.0 370.3134,10.0 368.7981,10.0 367.2577,10.0 365.6925,10.0 364.1026,10.0 362.4885,10.0 360.8503,10.0 359.1882,10.0 357.5026,10.0 355.7937,10.0 354.0618,10.0 352.3071,10.0 350.53,10.0 348.7307,10.0 346.9094,10.0 345.0666,10.0 343.2024,10.0 341.3172,10.0 339.4112,10.0 337.4848,10.0 335.5383,10.0 333.5719,10.0 331.5861,10.0 329.581,10.0 327.5571,10.0 325.5145,10.0 323.4538,10.0 321.3751,10.0 319.2789,10.0 317.1654,10.0 315.0349,10.0 312.8879,10.0 310.7246,10.0 308.5455,10.0 306.3507,10.0 304.1408,10.0 301.916,10.0 299.6766,10.0 297.4232,10.0 295.1559,10.0 292.8751,10.0 290.5813,10.0 288.2747,10.0 285.9558,10.0 283.6249,10.0 281.2824,10.0 278.9286,10.0 276.5639,10.0 274.1887,10.0 271.8034,10.0 269.4083,10.0 267.0039,10.0 264.5904,10.0 262.1683,10.0 259.738,10.0 257.2998,10.0 254.8542,10.0 252.4014,10.0 249.942,10.0 247.4763,10.0 245.0046,10.0 242.5274,10.0 240.0451,10.0 237.5581,10.0 235.0666,10.0 232.5713,10.0 230.0723,10.0 227.5702,10.0 225.0654,10.0 222.5581,10.0 220.0489,10.0 217.538,10.0 215.026,10.0 212.5132,10.0 210.0,10.0 207.4868,10.0 204.974,10.0 202.462,10.0 199.9511,10.0 197.4419,10.0 194.9346,10.0 192.4298,10.0 189.9277,10.0 187.4287,10.0 184.9334,10.0 182.4419,10.0 179.9549,10.0 177.4726,10.0 174.9954,10.0 172.5237,10.0 170.058,10.0 167.5986,10.0 165.1458,10.0 162.7002,10.0 160.262,10.0 157.8317,10.0 155.4096,10.0 152.9961,10.0 150.5917,10.0 148.1966,10.0 145.8113,10.0 143.4361,10.0 141.0714,10.0 138.7176,10.0 136.3751,10.0 134.0442,10.0 131.7253,10.0 129.4187,10.0 127.1249,10.0 124.8441,10.0 122.5768,10.0 120.3234,10.0 118.084,10.0 115.8592,10.0 113.6493,10.0 111.4545,10.0 109.2754,10.0 107.1121,10.0 104.9651,10.0 102.8346,10.0 100.7211,10.0 98.6249,10.0 96.5462,10.0 94.4855,10.0 92.4429,10.0 90.419,10.0 88.4139,10.0 86.4281,10.0 84.4617,10.0 82.5152,10.0 80.5888,10.0 78.6828,10.0 76.7976,10.0 74.9334,10.0 73.0906,10.0 71.2693,10.0 69.47,10.0 67.6929,10.0 65.9382,10.0 64.2063,10.0 62.4974,10.0 60.8118,10.0 59.1497,10.0 57.5115,10.0 55.8974,10.0 54.3075,10.0 52.7423,10.0 51.2019,10.0 49.6866,10.0 48.1966,10.0 46.7321,10.0 45.2935,10.0 43.8808,10.0 42.4944,10.0 41.1344,10.0 39.8011,10.0 38.4947,10.0 37.2153,10.0 35.9632,10.0 34.7387,10.0 33.5418,10.0 32.3727,10.0 31.2317,10.0 30.1189,10.0 29.0346,10.0 27.9788,10.0 26.9518,10.0 25.9536,10.0 24.9846,10.0 24.0447,10.0 23.1342,10.0 22.2532,10.0 21.4019,10.0 20.5803,10.0 19.7887,10.0 19.0271,10.0 18.2956,10.0 17.5945,10.0 16.9237,10.0 16.2834,10.0 15.6737,10.0 15.0946,10.0 14.5464,10.0 14.029,10.0 13.5425,10.0 13.0871,10.0 12.6628,10.0 12.2697,10.0 11.9077,10.0 11.5771,10.0 11.2777,10.0 11.0098,10.0 10.7733,10.0 10.5682,10.0 10.3947,10.0 10.2526,10.0 10.1421,10.0 10.0632,10.0 10.0158,10.0 10.0,10.0" stroke="black" stroke-width="1" /><polyline fill="none" points="10.0,1010.0 10.0158,1010.0 10.0632,1010.0 10.1421,1010.0 10.2526,1010.0 10.3947,1010.0 10.5682,1010.0 10.7733,1010.0 11.0098,1010.0 11.2777,1010.0 11.5771,1010.0 11.9077,1010.0 12.2697,1010.0 12.6628,1010.0 13.0871,1010.0 13.5425,1010.0 14.029,1010.0 14.5464,1010.0 15.0946,1010.0 15.6737,1010.0 16.2834,1010.0 16.9237,1010.0 17.5945,1010.0 18.2956,1010.0 19.0271,1010.0 19.7887,1010.0 20.5803,1010.0 21.4019,1010.0 22.2532,1010.0 23.1342,1010.0 24.0447,1010.0 24.9846,1010.0 25.9536,1010.0 26.9518,1010.0 27.9788,1010.0 29.0346,1010.0 30.1189,1010.0 31.2317,1010.0 32.3727,1010.0 33.5418,1010.0 34.7387,1010.0 35.9632,1010.0 37.2153,1010.0 38.4947,1010.0 39.8011,1010.0 41.1344,1010.0 42.4944,1010.0 43.8808,1010.0 45.2935,1010.0 46.7321,1010.0 48.1966,1010.0 49.6866,1010.0 51.2019,1010.0 52.7423,1010.0 54.3075,1010.0 55.8974,1010.0 57.5115,1010.0 59.1497,1010.0 60.8118,1010.0 62.4974,1010.0 64.2063,1010.0 65.9382,1010.0 67.6929,1010.0 69.47,1010.0 71.2693,1010.0 73.0906,1010.0 74.9334,1010.0 76.7976,1010.0 78.6828,1010.0 80.5888,1010.0 82.5152,1010.0 84.4617,1010.0 86.4281,1010.0 88.4139,1010.0 90.419,1010.0 92.4429,1010.0 94.4855,1010.0 96.5462,1010.0 98.6249,1010.0 100.7211,1010.0 102.8346,1010.0 104.9651,1010.0 107.1121,1010.0 109.2754,1010.0 111.4545,1010.0 113.6493,1010.0 115.8592,1010.0 118.084,1010.0 120.3234,1010.0 122.5768,1010.0 124.8441,1010.0 127.1249,1010.0 129.4187,1010.0 131.7253,1010.0 134.0442,1010.0 136.3751,1010.0 138.7176,1010.0 141.0714,1010.0 143.4361,1010.0 145.8113,1010.0 148.1966,1010.0 150.5917,1010.0 152.9961,1010.0 155.4096,1010.0 157.8317,1010.0 160.262,1010.0 162.7002,1010.0 165.1458,1010.0 167.5986,1010.0 170.058,1010.0 172.5237,1010.0 174.9954,1010.0 177.4726,1010.0 179.9549,1010.0 182.4419,1010.0 184.9334,1010.0 187.4287,1010.0 189.9277,1010.0 192.4298,1010.0 194.9346,1010.0 197.4419,1010.0 199.9511,1010.0 202.462,1010.0 204.974,1010.0 207.4868,1010.0 210.0,1010.0 212.5132,1010.0 215.026,1010.0 217.538,1010.0 220.0489,1010.0 222.5581,1010.0 225.0654,1010.0 227.5702,1010.0 230.0723,1010.0 232.5713,1010.0 235.0666,1010.0 237.5581,1010.0 240.0451,1010.0 242.5274,1010.0 245.0046,1010.0 247.4763,1010.0 249.942,1010.0 252.4014,1010.0 254.8542,1010.0 257.2998,1010.0 259.738,1010.0 262.1683,1010.0 264.5904,1010.0 267.0039,1010.0 269.4083,1010.0 271.8034,1010.0 274.1887,1010.0 276.5639,1010.0 278.9286,1010.0 281.2824,1010.0 283.6249,1010.0 285.9558,1010.0 288.2747,1010.0 290.5813,1010.0 292.8751,1010.0 295.1559,1010.0 297.4232,1010.0 299.6766,1010.0 301.916,1010.0 304.1408,1010.0 306.3507,1010.0 308.5455,1010.0 310.7246,1010.0 312.8879,1010.0 315.0349,1010.0 317.1654,1010.0 319.2789,1010.0 321.3751,1010.0 323.4538,1010.0 325.5145,1010.0 327.5571,1010.0 329.581,1010.0 331.5861,1010.0 333.5719,1010.0 335.5383,1010.0 337.4848,1010.0 339.4112,1010.0 341.3172,1010.0 343.2024,1010.0 345.0666,1010.0 346.9094,1010.0 348.7307,1010.0 350.53,1010.0 352.3071,1010.0 354.0618,1010.0 355.7937,1010.0 357.5026,1010.0 359.1882,1010.0 360.8503,1010.0 362.4885,1010.0 364.1026,1010.0 365.6925,1010.0 367.2577,1010.0 368.7981,1010.0 370.3134,1010.0 371.8034,1010.0 373.2679,1010.0 374.7065,1010.0 376.1192,1010.0 377.5056,1010.0 378.8656,1010.0 380.1989,1010.0 381.5053,1010.0 382.7847,1010.0 384.0368,1010.0 385.2613,1010.0 386.4582,1010.0 387.6273,1010.0 388.7683,1010.0 389.8811,1010.0 390.9654,1010.0 392.0212,1010.0 393.0482,1010.0 394.0464,1010.0 395.0154,1010.0 395.9553,1010.0 396.8658,1010.0 397.7468,1010.0 398.5981,1010.0 399.4197,1010.0 400.2113,1010.0 400.9729,1010.0 401.7044,1010.0 402.4055,1010.0 403.0763,1010.0 403.7166,1010.0 404.3263,1010.0 404.9054,1010.0 405.4536,1010.0 405.971,1010.0 406.4575,1010.0 406.9129,1010.0 407.3372,1010.0 407.7303,1010.0 408.0923,1010.0 408.4229,1010.0 408.7223,1010.0 408.9902,1010.0 409.2267,1010.0 409.4318,1010.0 409.6053,1010.0 409.7474,1010.0 409.8579,1010.0 409.9368,1010.0 409.9842,1010.0 410.0,1010.0 409.9842,1010.0 409.9368,1010.0 409.8579,1010.0 409.7474,1010.0 409.6053,1010.0 409.4318,1010.0 409.2267,1010.0 408.9902,1010.0 408.7223,1010.0 408.4229,1010.0 408.0923,1010.0 407.7303,1010.0 407.3372,1010.0 406.9129,1010.0 406.4575,1010.0 405.971,1010.0 405.4536,1010.0 404.9054,1010.0 404.3263,1010.0 403.7166,1010.0 403.0763,1010.0 402.4055,1010.0 401.7044,1010.0 400.9729,1010.0 400.2113,1010.0 399.4197,1010.0 398.5981,1010.0 397.7468,1010.0 396.8658,1010.0 395.9553,1010.0 395.0154,1010.0 394.0464,1010.0 393.0482,1010.0 392.0212,1010.0 390.9654,1010.0 389.8811,1010.0 388.7683,1010.0 387.6273,1010.0 386.4582,1010.0 385.2613,1010.0 384.0368,1010.0 382.7847,1010.0 381.5053,1010.0 380.1989,1010.0 378.8656,1010.0 377.5056,1010.0 376.1192,1010.0 374.7065,1010.0 373.2679,1010.0 371.8034,1010.0 370.3134,1010.0 368.7981,1010.0 367.2577,1010.0 365.6925,1010.0 364.1026,1010.0 362.4885,1010.0 360.8503,1010.0 359.1882,1010.0 357.5026,1010.0 355.7937,1010.0 354.0618,1010.0 352.3071,1010.0 350.53,1010.0 348.7307,1010.0 346.9094,1010.0 345.0666,1010.0 343.2024,1010.0 341.3172,1010.0 339.4112,1010.0 337.4848,1010.0 335.5383,1010.0 333.5719,1010.0 331.5861,1010.0 329.581,1010.0 327.5571,1010.0 325.5145,1010.0 323.4538,1010.0 321.3751,1010.0 319.2789,1010.0 317.1654,1010.0 315.0349,1010.0 312.8879,1010.0 310.7246,1010.0 308.5455,1010.0 306.3507,1010.0 304.1408,1010.0 301.916,1010.0 299.6766,1010.0 297.4232,1010.0 295.1559,1010.0 292.8751,1010.0 290.5813,1010.0 288.2747,1010.0 285.9558,1010.0 283.6249,1010.0 281.2824,1010.0 278.9286,1010.0 276.5639,1010.0 274.1887,1010.0 271.8034,1010.0 269.4083,1010.0 267.0039,1010.0 264.5904,1010.0 262.1683,1010.0 259.738,1010.0 257.2998,1010.0 254.8542,1010.0 252.4014,1010.0 249.942,1010.0 247.4763,1010.0 245.0046,1010.0 242.5274,1010.0 240.0451,1010.0 237.5581,1010.0 235.0666,1010.0 232.5713,1010.0 230.0723,1010.0 227.5702,1010.0 225.0654,1010.0 222.5581,1010.0 220.0489,1010.0 217.538,1010.0 215.026,1010.0 212.5132,1010.0 210.0,1010.0 207.4868,1010.0 204.974,1010.0 202.462,1010.0 199.9511,1010.0 197.4419,1010.0 194.9346,1010.0 192.4298,1010.0 189.9277,1010.0 187.4287,1010.0 184.9334,1010.0 182.4419,1010.0 179.9549,1010.0 177.4726,1010.0 174.9954,1010.0 172.5237,1010.0 170.058,1010.0 167.5986,1010.0 165.1458,1010.0 162.7002,1010.0 160.262,1010.0 157.8317,1010.0 155.4096,1010.0 152.9961,1010.0 150.5917,1010.0 148.1966,1010.0 145.8113,1010.0 143.4361,1010.0 141.0714,1010.0 138.7176,1010.0 136.3751,1010.0 134.0442,1010.0 131.7253,1010.0 129.4187,1010.0 127.1249,1010.0 124.8441,1010.0 122.5768,1010.0 120.3234,1010.0 118.084,1010.0 115.8592,1010.0 113.6493,1010.0 111.4545,1010.0 109.2754,1010.0 107.1121,1010.0 104.9651,1010.0 102.8346,1010.0 100.7211,1010.0 98.6249,1010.0 96.5462,1010.0 94.4855,1010.0 92.4429,1010.0 90.419,1010.0 88.4139,1010.0 86.4281,1010.0 84.4617,1010.0 82.5152,1010.0 80.5888,1010.0 78.6828,1010.0 76.7976,1010.0 74.9334,1010.0 73.0906,1010.0 71.2693,1010.0 69.47,1010.0 67.6929,1010.0 65.9382,1010.0 64.2063,1010.0 62.4974,1010.0 60.8118,1010.0 59.1497,1010.0 57.5115,1010.0 55.8974,1010.0 54.3075,1010.0 52.7423,1010.0 51.2019,1010.0 49.6866,1010.0 48.1966,1010.0 46.7321,1010.0 45.2935,1010.0 43.8808,1010.0 42.4944,1010.0 41.1344,1010.0 39.8011,1010.0 38.4947,1010.0 37.2153,1010.0 35.9632,1010.0 34.7387,1010.0 33.5418,1010.0 32.3727,1010.0 31.2317,1010.0 30.1189,1010.0 29.0346,1010.0 27.9788,1010.0 26.9518,1010.0 25.9536,1010.0 24.9846,1010.0 24.0447,1010.0 23.1342,1010.0 22.2532,1010.0 21.4019,1010.0 20.5803,1010.0 19.7887,1010.0 19.0271,1010.0 18.2956,1010.0 17.5945,1010.0 16.9237,1010.0 16.2834,1010.0 15.6737,1010.0 15.0946,1010.0 14.5464,1010.0 14.029,1010.0 13.5425,1010.0 13.0871,1010.0 12.6628,1010.0 12.2697,1010.0 11.9077,1010.0 11.5771,1010.0 11.2777,1010.0 11.0098,1010.0 10.7733,1010.0 10.5682,1010.0 10.3947,1010.0 10.2526,1010.0 10.1421,1010.0 10.0632,1010.0 10.0158,1010.0 10.0,1010.0" stroke="black" stroke-width="1" /></svg>