<?xml version="1.0" encoding="utf-8" ?>
<svg baseProfile="tiny" height="1020.0" version="1.2" width="1020.0" xmlns="http://www.w3.org/2000/svg" xmlns:ev="http://www.w3.org/2001/xml-events" xmlns:xlink="http://www.w3.org/1999/xlink"><defs /><polyline fill="none" points="1010.0,510.0 1009.9605,516.283 1009.8421,522.565 1009.6447,528.8451 1009.3685,535.1222 1009.0134,541.3953 1008.5795,547.6634 1008.0668,553.9256 1007.4755,560.1809 1006.8057,566.4282 1006.0574,572.6666 1005.2307,578.8951 1004.3259,585.1128 1003.343,591.3186 1002.2822,597.5115 1001.1436,603.6907 999.9275,609.855 998.6341,616.0036 997.2634,622.1354 995.8159,628.2495 994.2916,634.3449 992.6908,640.4208 991.0138,646.476 989.2609,652.5096 987.4323,658.5208 985.5283,664.5085 983.5492,670.4718 981.4953,676.4098 979.3669,682.3215 977.1645,688.2059 974.8882,694.0623 972.5386,699.8895 970.1159,705.6868 967.6206,711.4532 965.053,717.1878 962.4135,722.8896 959.7026,728.5579 956.9207,734.1916 954.0682,739.7899 951.1456,745.352 948.1533,750.8768 945.0919,756.3637 941.9617,761.8116 938.7633,767.2198 935.4972,772.5873 932.164,777.9134 928.764,783.1972 925.2979,788.4378 921.7663,793.6345 918.1696,798.7864 914.5085,803.8926 910.7835,808.9525 906.9952,813.9651 903.1442,818.9298 899.2312,823.8457 895.2566,828.712 891.2213,833.528 887.1257,838.2929 882.9706,843.0059 878.7566,847.6664 874.4843,852.2736 870.1545,856.8267 865.7678,861.325 861.325,865.7678 856.8267,870.1545 852.2736,874.4843 847.6664,878.7566 843.0059,882.9706 838.2929,887.1257 833.528,891.2213 828.712,895.2566 823.8457,899.2312 818.9298,903.1442 813.9651,906.9952 808.9525,910.7835 803.8926,914.5085 798.7864,918.1696 793.6345,921.7663 788.4378,925.2979 783.1972,928.764 777.9134,932.164 772.5873,935.4972 767.2198,938.7633 761.8116,941.9617 756.3637,945.0919 750.8768,948.1533 745.352,951.1456 739.7899,954.0682 734.1916,956.9207 728.5579,959.7026 722.8896,962.4135 717.1878,965.053 711.4532,967.6206 705.6868,970.1159 699.8895,972.5386 694.0623,974.8882 688.2059,977.1645 682.3215,979.3669 676.4098,981.4953 670.4718,983.5492 664.5085,985.5283 658.5208,987.4323 652.5096,989.2609 646.476,991.0138 640.4208,992.6908 634.3449,994.2916 628.2495,995.8159 622.1354,997.2634 616.0036,998.6341 609.855,999.9275 603.6907,1001.1436 597.5115,1002.2822 591.3186,1003.343 585.1128,1004.3259 578.8951,1005.2307 572.6666,1006.0574 566.4282,1006.8057 560.1809,1007.4755 553.9256,1008.0668 547.6634,1008.5795 541.3953,1009.0134 535.1222,1009.3685 528.8451,1009.6447 522.565,1009.8421 516.283,1009.9605 510.0,1010.0 503.717,1009.9605 497.435,1009.8421 491.1549,1009.6447 484.8778,1009.3685 478.6047,1009.0134 472.3366,1008.5795 466.0744,1008.0668 459.8191,1007.4755 453.5718,1006.8057 447.3334,1006.0574 441.1049,1005.2307 434.8872,1004.3259 428.6814,1003.343 422.4885,1002.2822 416.3093,1001.1436 410.145,999.9275 403.9964,998.6341 397.8646,997.2634 391.7505,995.8159 385.6551,994.2916 379.5792,992.6908 373.524,991.0138 367.4904,989.2609 361.4792,987.4323 355.4915,985.5283 349.5282,983.5492 343.5902,981.4953 337.6785,979.3669 331.7941,977.1645 325.9377,974.8882 320.1105,972.5386 314.3132,970.1159 308.5468,967.6206 302.8122,965.053 297.1104,962.4135 291.4421,959.7026 285.8084,956.9207 280.2101,954.0682 274.648,951.1456 269.1232,948.1533 263.6363,945.0919 258.1884,941.9617 252.7802,938.7633 247.4127,935.4972 242.0866,932.164 236.8028,928.764 231.5622,925.2979 226.3655,921.7663 221.2136,918.1696 216.1074,914.5085 211.0475,910.7835 206.0349,906.9952 201.0702,903.1442 196.1543,899.2312 191.288,895.2566 186.472,891.2213 181.7071,887.1257 176.9941,882.9706 172.3336,878.7566 167.7264,874.4843 163.1733,870.1545 158.675,865.7678 154.2322,861.325 149.8455,856.8267 145.5157,852.2736 141.2434,847.6664 137.0294,843.0059 132.8743,838.2929 128.7787,833.528 124.7434,828.712 120.7688,823.8457 116.8558,818.9298 113.0048,813.9651 109.2165,808.9525 105.4915,803.8926 101.8304,798.7864 98.2337,793.6345 94.7021,788.4378 91.236,783.1972 87.836,777.9134 84.5028,772.5873 81.2367,767.2198 78.0383,761.8116 74.9081,756.3637 71.8467,750.8768 68.8544,745.352 65.9318,739.7899 63.0793,734.1916 60.2974,728.5579 57.5865,722.8896 54.947,717.1878 52.3794,711.4532 49.8841,705.6868 47.4614,699.8895 45.1118,694.0623 42.8355,688.2059 40.6331,682.3215 38.5047,676.4098 36.4508,670.4718 34.4717,664.5085 32.5677,658.5208 30.7391,652.5096 28.9862,646.476 27.3092,640.4208 25.7084,634.3449 24.1841,628.2495 22.7366,622.1354 21.3659,616.0036 20.0725,609.855 18.8564,603.6907 17.7178,597.5115 16.657,591.3186 15.6741,585.1128 14.7693,578.8951 13.9426,572.6666 13.1943,566.4282 12.5245,560.1809 11.9332,553.9256 11.4205,547.6634 10.9866,541.3953 10.6315,535.1222 10.3553,528.8451 10.1579,522.565 10.0395,516.283 10.0,510.0 10.0395,503.717 10.1579,497.435 10.3553,491.1549 10.6315,484.8778 10.9866,478.6047 11.4205,472.3366 11.9332,466.0744 12.5245,459.8191 13.1943,453.5718 13.9426,447.3334 14.7693,441.1049 15.6741,434.8872 16.657,428.6814 17.7178,422.4885 18.8564,416.3093 20.0725,410.145 21.3659,403.9964 22.7366,397.8646 24.1841,391.7505 25.7084,385.6551 27.3092,379.5792 28.9862,373.524 30.7391,367.4904 32.5677,361.4792 34.4717,355.4915 36.4508,349.5282 38.5047,343.5902 40.6331,337.6785 42.8355,331.7941 45.1118,325.9377 47.4614,320.1105 49.8841,314.3132 52.3794,308.5468 54.947,302.8122 57.5865,297.1104 60.2974,291.4421 63.0793,285.8084 65.9318,280.2101 68.8544,274.648 71.8467,269.1232 74.9081,263.6363 78.0383,258.1884 81.2367,252.7802 84.5028,247.4127 87.836,242.0866 91.236,236.8028 94.7021,231.5622 98.2337,226.3655 101.8304,221.2136 105.4915,216.1074 109.2165,211.0475 113.0048,206.0349 116.8558,201.0702 120.7688,196.1543 124.7434,191.288 128.7787,186.472 132.8743,181.7071 137.0294,176.9941 141.2434,172.3336 145.5157,167.7264 149.8455,163.1733 154.2322,158.675 158.675,154.2322 163.1733,149.8455 167.7264,145.5157 172.3336,141.2434 176.9941,137.0294 181.7071,132.8743 186.472,128.7787 191.288,124.7434 196.1543,120.7688 201.0702,116.8558 206.0349,113.0048 211.0475,109.2165 216.1074,105.4915 221.2136,101.8304 226.3655,98.2337 231.5622,94.7021 236.8028,91.236 242.0866,87.836 247.4127,84.5028 252.7802,81.2367 258.1884,78.0383 263.6363,74.9081 269.1232,71.8467 274.648,68.8544 280.2101,65.9318 285.8084,63.0793 291.4421,60.2974 297.1104,57.5865 302.8122,54.947 308.5468,52.3794 314.3132,49.8841 320.1105,47.4614 325.9377,45.1118 331.7941,42.8355 337.6785,40.6331 343.5902,38.5047 349.5282,36.4508 355.4915,34.4717 361.4792,32.5677 367.4904,30.7391 373.524,28.9862 379.5792,27.3092 385.6551,25.7084 391.7505,24.1841 397.8646,22.7366 403.9964,21.3659 410.145,20.0725 416.3093,18.8564 422.4885,17.7178 428.6814,16.657 434.8872,15.6741 441.1049,14.7693 447.3334,13.9426 453.5718,13.1943 459.8191,12.5245 466.0744,11.9332 472.3366,11.4205 478.6047,10.9866 484.8778,10.6315 491.1549,10.3553 497.435,10.1579 503.717,10.0395 510.0,10.0 516.283,10.0395 522.565,10.1579 528.8451,10.3553 535.1222,10.6315 541.3953,10.9866 547.6634,11.4205 553.9256,11.9332 560.1809,12.5245 566.4282,13.1943 572.6666,13.9426 578.8951,14.7693 585.1128,15.6741 591.3186,16.657 597.5115,17.7178 603.6907,18.8564 609.855,20.0725 616.0036,21.3659 622.1354,22.7366 628.2495,24.1841 634.3449,25.7084 640.4208,27.3092 646.476,28.9862 652.5096,30.7391 658.5208,32.5677 664.5085,34.4717 670.4718,36.4508 676.4098,38.5047 682.3215,40.6331 688.2059,42.8355 694.0623,45.1118 699.8895,47.4614 705.6868,49.8841 711.4532,52.3794 717.1878,54.947 722.8896,57.5865 728.5579,60.2974 734.1916,63.0793 739.7899,65.9318 745.352,68.8544 750.8768,71.8467 756.3637,74.9081 761.8116,78.0383 767.2198,81.2367 772.5873,84.5028 777.9134,87.836 783.1972,91.236 788.4378,94.7021 793.6345,98.2337 798.7864,101.8304 803.8926,105.4915 808.9525,109.2165 813.9651,113.0048 818.9298,116.8558 823.8457,120.7688 828.712,124.7434 833.528,128.7787 838.2929,132.8743 843.0059,137.0294 847.6664,141.2434 852.2736,145.5157 856.8267,149.8455 861.325,154.2322 865.7678,158.675 870.1545,163.1733 874.4843,167.7264 878.7566,172.3336 882.9706,176.9941 887.1257,181.7071 891.2213,186.472 895.2566,191.288 899.2312,196.1543 903.1442,201.0702 906.9952,206.0349 910.7835,211.0475 914.5085,216.1074 918.1696,221.2136 921.7663,226.3655 925.2979,231.5622 928.764,236.8028 932.164,242.0866 935.4972,247.4127 938.7633,252.7802 941.9617,258.1884 945.0919,263.6363 948.1533,269.1232 951.1456,274.648 954.0682,280.2101 956.9207,285.8084 959.7026,291.4421 962.4135,297.1104 965.053,302.8122 967.6206,308.5468 970.1159,314.3132 972.5386,320.1105 974.8882,325.9377 977.1645,331.7941 979.3669,337.6785 981.4953,343.5902 983.5492,349.5282 985.5283,355.4915 987.4323,361.4792 989.2609,367.4904 991.0138,373.524 992.6908,379.5792 994.2916,385.6551 995.8159,391.7505 997.2634,397.8646 998.6341,403.9964 999.9275,410.145 1001.1436,416.3093 1002.2822,422.4885 1003.343,428.6814 1004.3259,434.8872 1005.2307,441.1049 1006.0574,447.3334 1006.8057,453.5718 1007.4755,459.8191 1008.0668,466.0744 1008.5795,472.3366 1009.0134,478.6047 1009.3685,484.8778 1009.6447,491.1549 1009.8421,497.435 1009.9605,503.717 1010.0,510.0" stroke="black" stroke-width="1" /><polyline fill="none" points="1010.0,510.0 1010.0,510.0 1010.0,510.0 1010.0,510.0 1010.0,510.0 1010.0,510.0 1010.0,510.0 1010.0,510.0 1010.0,510.0 1010.0,510.0 1010.0,510.0 1010.0,510.0 1010.0,510.0 1010.0,510.0 1010.0,510.0 1010.0,510.0 1010.0,510.0 1010.0,510.0 1010.0,510.0 1010.0,510.0 1010.0,510.0 1010.0,510.0 1010.0,510.0 1010.0,510.0 1010.0,510.0 1010.0,510.0 1010.0,510.0 1010.0,510.0 1010.0,510.0 1010.0,510.0 1010.0,510.0 1010.0,510.0 1010.0,510.0 1010.0,510.0 1010.0,510.0 1010.0,510.0 1010.0,510.0 1010.0,510.0 1010.0,510.0 1010.0,510.0 1010.0,510.0 1010.0,510.0 1010.0,510.0 1010.0,510.0 1010.0,510.0 1010.0,510.0 1010.0,510.0 1010.0,510.0 1010.0,510.0 1010.0,510.0 1010.0,510.0" stroke="black" stroke-width="1" /><polyline fill="none" points="1010.0,510.0 1009.9605,516.283 1009.8421,522.565 1009.6447,528.8451 1009.3685,535.1222 1009.0134,541.3953 1008.5795,547.6634 1008.0668,553.9256 1007.4755,560.1809 1006.8057,566.4282 1006.0574,572.6666 1005.2307,578.8951 1004.3259,585.1128 1003.343,591.3186 1002.2822,597.5115 1001.1436,603.6907 999.9275,609.855 998.6341,616.0036 997.2634,622.1354 995.8159,628.2495 994.2916,634.3449 992.6908,640.4208 991.0138,646.476 989.2609,652.5096 987.4323,658.5208 985.5283,664.5085 983.5492,670.4718 981.4953,676.4098 979.3669,682.3215 977.1645,688.2059 974.8882,694.0623 972.5386,699.8895 970.1159,705.6868 967.6206,711.4532 965.053,717.1878 962.4135,722.8896 959.7026,728.5579 956.9207,734.1916 954.0682,739.7899 951.1456,745.352 948.1533,750.8768 945.0919,756.3637 941.9617,761.8116 938.7633,767.2198 935.4972,772.5873 932.164,777.9134 928.764,783.1972 925.2979,788.4378 921.7663,793.6345 918.1696,798.7864 914.5085,803.8926 910.7835,808.9525 906.9952,813.9651 903.1442,818.9298 899.2312,823.8457 895.2566,828.712 891.2213,833.528 887.1257,838.2929 882.9706,843.0059 878.7566,847.6664 874.4843,852.2736 870.1545,856.8267 865.7678,861.325 861.325,865.7678 856.8267,870.1545 852.2736,874.4843 847.6664,878.7566 843.0059,882.9706 838.2929,887.1257 833.528,891.2213 828.712,895.2566 823.8457,899.2312 818.9298,903.1442 813.9651,906.9952 808.9525,910.7835 803.8926,914.5085 798.7864,918.1696 793.6345,921.7663 788.4378,925.2979 783.1972,928.764 777.9134,932.164 772.5873,935.4972 767.2198,938.7633 761.8116,941.9617 756.3637,945.0919 750.8768,948.1533 745.352,951.1456 739.7899,954.0682 734.1916,956.9207 728.5579,959.7026 722.8896,962.4135 717.1878,965.053 711.4532,967.6206 705.6868,970.1159 699.8895,972.5386 694.0623,974.8882 688.2059,977.1645 682.3215,979.3669 676.4098,981.4953 670.4718,983.5492 664.5085,985.5283 658.5208,987.4323 652.5096,989.2609 646.476,991.0138 640.4208,992.6908 634.3449,994.2916 628.2495,995.8159 622.1354,997.2634 616.0036,998.6341 609.855,999.9275 603.6907,1001.1436 597.5115,1002.2822 591.3186,1003.343 585.1128,1004.3259 578.8951,1005.2307 572.6666,1006.0574 566.4282,1006.8057 560.1809,1007.4755 553.9256,1008.0668 547.6634,1008.5795 541.3953,1009.0134 535.1222,1009.3685 528.8451,1009.6447 522.565,1009.8421 516.283,1009.9605 510.0,1010.0 503.717,1009.9605 497.435,1009.8421 491.1549,1009.6447 484.8778,1009.3685 478.6047,1009.0134 472.3366,1008.5795 466.0744,1008.0668 459.8191,1007.4755 453.5718,1006.8057 447.3334,1006.0574 441.1049,1005.2307 434.8872,1004.3259 428.6814,1003.343 422.4885,1002.2822 416.3093,1001.1436 410.145,999.9275 403.9964,998.6341 397.8646,997.2634 391.7505,995.8159 385.6551,994.2916 379.5792,992.6908 373.524,991.0138 367.4904,989.2609 361.4792,987.4323 355.4915,985.5283 349.5282,983.5492 343.5902,981.4953 337.6785,979.3669 331.7941,977.1645 325.9377,974.8882 320.1105,972.5386 314.3132,970.1159 308.5468,967.6206 302.8122,965.053 297.1104,962.4135 291.4421,959.7026 285.8084,956.9207 280.2101,954.0682 274.648,951.1456 269.1232,948.1533 263.6363,945.0919 258.1884,941.9617 252.7802,938.7633 247.4127,935.4972 242.0866,932.164 236.8028,928.764 231.5622,925.2979 226.3655,921.7663 221.2136,918.1696 216.1074,914.5085 211.0475,910.7835 206.0349,906.9952 201.0702,903.1442 196.1543,899.2312 191.288,895.2566 186.472,891.2213 181.7071,887.1257 176.9941,882.9706 172.3336,878.7566 167.7264,874.4843 163.1733,870.1545 158.675,865.7678 154.2322,861.325 149.8455,856.8267 145.5157,852.2736 141.2434,847.6664 137.0294,843.0059 132.8743,838.2929 128.7787,833.528 124.7434,828.712 120.7688,823.8457 116.8558,818.9298 113.0048,813.9651 109.2165,808.9525 105.4915,803.8926 101.8304,798.7864 98.2337,793.6345 94.7021,788.4378 91.236,783.1972 87.836,777.9134 84.5028,772.5873 81.2367,767.2198 78.0383,761.8116 74.9081,756.3637 71.8467,750.8768 68.8544,745.352 65.9318,739.7899 63.0793,734.1916 60.2974,728.5579 57.5865,722.8896 54.947,717.1878 52.3794,711.4532 49.8841,705.6868 47.4614,699.8895 45.1118,694.0623 42.8355,688.2059 40.6331,682.3215 38.5047,676.4098 36.4508,670.4718 34.4717,664.5085 32.5677,658.5208 30.7391,652.5096 28.9862,646.476 27.3092,640.4208 25.7084,634.3449 24.1841,628.2495 22.7366,622.1354 21.3659,616.0036 20.0725,609.855 18.8564,603.6907 17.7178,597.5115 16.657,591.3186 15.6741,585.1128 14.7693,578.8951 13.9426,572.6666 13.1943,566.4282 12.5245,560.1809 11.9332,553.9256 11.4205,547.6634 10.9866,541.3953 10.6315,535.1222 10.3553,528.8451 10.1579,522.565 10.0395,516.283 10.0,510.0 10.0395,503.717 10.1579,497.435 10.3553,491.1549 10.6315,484.8778 10.9866,478.6047 11.4205,472.3366 11.9332,466.0744 12.5245,459.8191 13.1943,453.5718 13.9426,447.3334 14.7693,441.1049 15.6741,434.8872 16.657,428.6814 17.7178,422.4885 18.8564,416.3093 20.0725,410.145 21.3659,403.9964 22.7366,397.8646 24.1841,391.7505 25.7084,385.6551 27.3092,379.5792 28.9862,373.524 30.7391,367.4904 32.5677,361.4792 34.4717,355.4915 36.4508,349.5282 38.5047,343.5902 40.6331,337.6785 42.8355,331.7941 45.1118,325.9377 47.4614,320.1105 49.8841,314.3132 52.3794,308.5468 54.947,302.8122 57.5865,297.1104 60.2974,291.4421 63.0793,285.8084 65.9318,280.2101 68.8544,274.648 71.8467,269.1232 74.9081,263.6363 78.0383,258.1884 81.2367,252.7802 84.5028,247.4127 87.836,242.0866 91.236,236.8028 94.7021,231.5622 98.2337,226.3655 101.8304,221.2136 105.4915,216.1074 109.2165,211.0475 113.0048,206.0349 116.8558,201.0702 120.7688,196.1543 124.7434,191.288 128.7787,186.472 132.8743,181.7071 137.0294,176.9941 141.2434,172.3336 145.5157,167.7264 149.8455,163.1733 154.2322,158.675 158.675,154.2322 163.1733,149.8455 167.7264,145.5157 172.3336,141.2434 176.9941,137.0294 181.7071,132.8743 186.472,128.7787 191.288,124.7434 196.1543,120.7688 201.0702,116.8558 206.0349,113.0048 211.0475,109.2165 216.1074,105.4915 221.2136,101.8304 226.3655,98.2337 231.5622,94.7021 236.8028,91.236 242.0866,87.836 247.4127,84.5028 252.7802,81.2367 258.1884,78.0383 263.6363,74.9081 269.1232,71.8467 274.648,68.8544 280.2101,65.9318 285.8084,63.0793 291.4421,60.2974 297.1104,57.5865 302.8122,54.947 308.5468,52.3794 314.3132,49.8841 320.1105,47.4614 325.9377,45.1118 331.7941,42.8355 337.6785,40.6331 343.5902,38.5047 349.5282,36.4508 355.4915,34.4717 361.4792,32.5677 367.4904,30.7391 373.524,28.9862 379.5792,27.3092 385.6551,25.7084 391.7505,24.1841 397.8646,22.7366 403.9964,21.3659 410.145,20.0725 416.3093,18.8564 422.4885,17.7178 428.6814,16.657 434.8872,15.6741 441.1049,14.7693 447.3334,13.9426 453.5718,13.1943 459.8191,12.5245 466.0744,11.9332 472.3366,11.4205 478.6047,10.9866 484.8778,10.6315 491.1549,10.3553 497.435,10.1579 503.717,10.0395 510.0,10.0 516.283,10.0395 522.565,10.1579 528.8451,10.3553 535.1222,10.6315 541.3953,10.9866 547.6634,11.4205 553.9256,11.9332 560.1809,12.5245 566.4282,13.1943 572.6666,13.9426 578.8951,14.7693 585.1128,15.6741 591.3186,16.657 597.5115,17.7178 603.6907,18.8564 609.855,20.0725 616.0036,21.3659 622.1354,22.7366 628.2495,24.1841 634.3449,25.7084 640.4208,27.3092 646.476,28.9862 652.5096,30.7391 658.5208,32.5677 664.5085,34.4717 670.4718,36.4508 676.4098,38.5047 682.3215,40.6331 688.2059,42.8355 694.0623,45.1118 699.8895,47.4614 705.6868,49.8841 711.4532,52.3794 717.1878,54.947 722.8896,57.5865 728.5579,60.2974 734.1916,63.0793 739.7899,65.9318 745.352,68.8544 750.8768,71.8467 756.3637,74.9081 761.8116,78.0383 767.2198,81.2367 772.5873,84.5028 777.9134,87.836 783.1972,91.236 788.4378,94.7021 793.6345,98.2337 798.7864,101.8304 803.8926,105.4915 808.9525,109.2165 813.9651,113.0048 818.9298,116.8558 823.8457,120.7688 828.712,124.7434 833.528,128.7787 838.2929,132.8743 843.0059,137.0294 847.6664,141.2434 852.2736,145.5157 856.8267,149.8455 861.325,154.2322 865.7678,158.675 870.1545,163.1733 874.4843,167.7264 878.7566,172.3336 882.9706,176.9941 887.1257,181.7071 891.2213,186.472 895.2566,191.288 899.2312,196.1543 903.1442,201.0702 906.9952,206.0349 910.7835,211.0475 914.5085,216.1074 918.1696,221.2136 921.7663,226.3655 925.2979,231.5622 928.764,236.8028 932.164,242.0866 935.4972,247.4127 938.7633,252.7802 941.9617,258.1884 945.0919,263.6363 948.1533,269.1232 951.1456,274.648 954.0682,280.2101 956.9207,285.8084 959.7026,291.4421 962.4135,297.1104 965.053,302.8122 967.6206,308.5468 970.1159,314.3132 972.5386,320.1105 974.8882,325.9377 977.1645,331.7941 979.3669,337.6785 981.4953,343.5902 983.5492,349.5282 985.5283,355.4915 987.4323,361.4792 989.2609,367.4904 991.0138,373.524 992.6908,379.5792 994.2916,385.6551 995.8159,391.7505 997.2634,397.8646 998.6341,403.9964 999.9275,410.145 1001.1436,416.3093 1002.2822,422.4885 1003.343,428.6814 1004.3259,434.8872 1005.2307,441.1049 1006.0574,447.3334 1006.8057,453.5718 1007.4755,459.8191 1008.0668,466.0744 1008.5795,472.3366 1009.0134,478.6047 1009.3685,484.8778 1009.6447,491.1549 1009.8421,497.435 1009.9605,503.717 1010.0,510.0" stroke="black" stroke-width="1" /><polyline fill="none" points="1010.0,510.0 1010.0,510.0 1010.0,510.0 1010.0,510.0 1010.0,510.0 1010.0,510.0 1010.0,510.0 1010.0,510.0 1010.0,510.0 1010.0,510.0 1010.0,510.0 1010.0,510.0 1010.0,510.0 1010.0,510.0 1010.0,510.0 1010.0,510.0 1010.0,510.0 1010.0,510.0 1010.0,510.0 1010.0,510.0 1010.0,510.0 1010.0,510.0 1010.0,510.0 1010.0,510.0 1010.0,510.0 1010.0,510.0 1010.0,510.0 1010.0,510.0 1010.0,510.0 1010.0,510.0 1010.0,510.0 1010.0,510.0 1010.0,510.0 1010.0,510.0 1010.0,510.0 1010.0,510.0 1010.0,510.0 1010.0,510.0 1010.0,510.0 1010.0,510.0 1010.0,510.0 1010.0,510.0 1010.0,510.0 1010.0,510.0 1010.0,510.0 1010.0,510.0 1010.0,510.0 1010.0,510.0 1010.0,510.0 1010.0,510.0 1010.0,510.0" stroke="black" stroke-width="1" /><polyline fill="none" points="1010.0,510.0 1009.9605,516.283 1009.8421,522.565 1009.6447,528.8451 1009.3685,535.1222 1009.0134,541.3953 1008.5795,547.6634 1008.0668,553.9256 1007.4755,560.1809 1006.8057,566.4282 1006.0574,572.6666 1005.2307,578.8951 1004.3259,585.1128 1003.343,591.3186 1002.2822,597.5115 1001.1436,603.6907 999.9275,609.855 998.6341,616.0036 997.2634,622.1354 995.8159,628.2495 994.2916,634.3449 992.6908,640.4208 991.0138,646.476 989.2609,652.5096 987.4323,658.5208 985.5283,664.5085 983.5492,670.4718 981.4953,676.4098 979.3669,682.3215 977.1645,688.2059 974.8882,694.0623 972.5386,699.8895 970.1159,705.6868 967.6206,711.4532 965.053,717.1878 962.4135,722.8896 959.7026,728.5579 956.9207,734.1916 954.0682,739.7899 951.1456,745.352 948.1533,750.8768 945.0919,756.3637 941.9617,761.8116 938.7633,767.2198 935.4972,772.5873 932.164,777.9134 928.764,783.1972 925.2979,788.4378 921.7663,793.6345 918.1696,798.7864 914.5085,803.8926 910.7835,808.9525 906.9952,813.9651 903.1442,818.9298 899.2312,823.8457 895.2566,828.712 891.2213,833.528 887.1257,838.2929 882.9706,843.0059 878.7566,847.6664 874.4843,852.2736 870.1545,856.8267 865.7678,861.325 861.325,865.7678 856.8267,870.1545 852.2736,874.4843 847.6664,878.7566 843.0059,882.9706 838.2929,887.1257 833.528,891.2213 828.712,895.2566 823.8457,899.2312 818.9298,903.1442 813.9651,906.9952 808.9525,910.7835 803.8926,914.5085 798.7864,918.1696 793.6345,921.7663 788.4378,925.2979 783.1972,928.764 777.9134,932.164 772.5873,935.4972 767.2198,938.7633 761.8116,941.9617 756.3637,945.0919 750.8768,948.1533 745.352,951.1456 739.7899,954.0682 734.1916,956.9207 728.5579,959.7026 722.8896,962.4135 717.1878,965.053 711.4532,967.6206 705.6868,970.1159 699.8895,972.5386 694.0623,974.8882 688.2059,977.1645 682.3215,979.3669 676.4098,981.4953 670.4718,983.5492 664.5085,985.5283 658.5208,987.4323 652.5096,989.2609 646.476,991.0138 640.4208,992.6908 634.3449,994.2916 628.2495,995.8159 622.1354,997.2634 616.0036,998.6341 609.855,999.9275 603.6907,1001.1436 597.5115,1002.2822 591.3186,1003.343 585.1128,1004.3259 578.8951,1005.2307 572.6666,1006.0574 566.4282,1006.8057 560.1809,1007.4755 553.9256,1008.0668 547.6634,1008.5795 541.3953,1009.0134 535.1222,1009.3685 528.8451,1009.6447 522.565,1009.8421 516.283,1009.9605 510.0,1010.0 503.717,1009.9605 497.435,1009.8421 491.1549,1009.6447 484.8778,1009.3685 478.6047,1009.0134 472.3366,1008.5795 466.0744,1008.0668 459.8191,1007.4755 453.5718,1006.8057 447.3334,1006.0574 441.1049,1005.2307 434.8872,1004.3259 428.6814,1003.343 422.4885,1002.2822 416.3093,1001.1436 410.145,999.9275 403.9964,998.6341 397.8646,997.2634 391.7505,995.8159 385.6551,994.2916 379.5792,992.6908 373.524,991.0138 367.4904,989.2609 361.4792,987.4323 355.4915,985.5283 349.5282,983.5492 343.5902,981.4953 337.6785,979.3669 331.7941,977.1645 325.9377,974.8882 320.1105,972.5386 314.3132,970.1159 308.5468,967.6206 302.8122,965.053 297.1104,962.4135 291.4421,959.7026 285.8084,956.9207 280.2101,954.0682 274.648,951.1456 269.1232,948.1533 263.6363,945.0919 258.1884,941.9617 252.7802,938.7633 247.4127,935.4972 242.0866,932.164 236.8028,928.764 231.5622,925.2979 226.3655,921.7663 221.2136,918.1696 216.1074,914.5085 211.0475,910.7835 206.0349,906.9952 201.0702,903.1442 196.1543,899.2312 191.288,895.2566 186.472,891.2213 181.7071,887.1257 176.9941,882.9706 172.3336,878.7566 167.7264,874.4843 163.1733,870.1545 158.675,865.7678 154.2322,861.325 149.8455,856.8267 145.5157,852.2736 141.2434,847.6664 137.0294,843.0059 132.8743,838.2929 128.7787,833.528 124.7434,828.712 120.7688,823.8457 116.8558,818.9298 113.0048,813.9651 109.2165,808.9525 105.4915,803.8926 101.8304,798.7864 98.2337,793.6345 94.7021,788.4378 91.236,783.1972 87.836,777.9134 84.5028,772.5873 81.2367,767.2198 78.0383,761.8116 74.9081,756.3637 71.8467,750.8768 68.8544,745.352 65.9318,739.7899 63.0793,734.1916 60.2974,728.5579 57.5865,722.8896 54.947,717.1878 52.3794,711.4532 49.8841,705.6868 47.4614,699.8895 45.1118,694.0623 42.8355,688.2059 40.6331,682.3215 38.5047,676.4098 36.4508,670.4718 34.4717,664.5085 32.5677,658.5208 30.7391,652.5096 28.9862,646.476 27.3092,640.4208 25.7084,634.3449 24.1841,628.2495 22.7366,622.1354 21.3659,616.0036 20.0725,609.855 18.8564,603.6907 17.7178,597.5115 16.657,591.3186 15.6741,585.1128 14.7693,578.8951 13.9426,572.6666 13.1943,566.4282 12.5245,560.1809 11.9332,553.9256 11.4205,547.6634 10.9866,541.3953 10.6315,535.1222 10.3553,528.8451 10.1579,522.565 10.0395,516.283 10.0,510.0 10.0395,503.717 10.1579,497.435 10.3553,491.1549 10.6315,484.8778 10.9866,478.6047 11.4205,472.3366 11.9332,466.0744 12.5245,459.8191 13.1943,453.5718 13.9426,447.3334 14.7693,441.1049 15.6741,434.8872 16.657,428.6814 17.7178,422.4885 18.8564,416.3093 20.0725,410.145 21.3659,403.9964 22.7366,397.8646 24.1841,391.7505 25.7084,385.6551 27.3092,379.5792 28.9862,373.524 30.7391,367.4904 32.5677,361.4792 34.4717,355.4915 36.4508,349.5282 38.5047,343.5902 40.6331,337.6785 42.8355,331.7941 45.1118,325.9377 47.4614,320.1105 49.8841,314.3132 52.3794,308.5468 54.947,302.8122 57.5865,297.1104 60.2974,291.4421 63.0793,285.8084 65.9318,280.2101 68.8544,274.648 71.8467,269.1232 74.9081,263.6363 78.0383,258.1884 81.2367,252.7802 84.5028,247.4127 87.836,242.0866 91.236,236.8028 94.7021,231.5622 98.2337,226.3655 101.8304,221.2136 105.4915,216.1074 109.2165,211.0475 113.0048,206.0349 116.8558,201.0702 120.7688,196.1543 124.7434,191.288 128.7787,186.472 132.8743,181.7071 137.0294,176.9941 141.2434,172.3336 145.5157,167.7264 149.8455,163.1733 154.2322,158.675 158.675,154.2322 163.1733,149.8455 167.7264,145.5157 172.3336,141.2434 176.9941,137.0294 181.7071,132.8743 186.472,128.7787 191.288,124.7434 196.1543,120.7688 201.0702,116.8558 206.0349,113.0048 211.0475,109.2165 216.1074,105.4915 221.2136,101.8304 226.3655,98.2337 231.5622,94.7021 236.8028,91.236 242.0866,87.836 247.4127,84.5028 252.7802,81.2367 258.1884,78.0383 263.6363,74.9081 269.1232,71.8467 274.648,68.8544 280.2101,65.9318 285.8084,63.0793 291.4421,60.2974 297.1104,57.5865 302.8122,54.947 308.5468,52.3794 314.3132,49.8841 320.1105,47.4614 325.9377,45.1118 331.7941,42.8355 337.6785,40.6331 343.5902,38.5047 349.5282,36.4508 355.4915,34.4717 361.4792,32.5677 367.4904,30.7391 373.524,28.9862 379.5792,27.3092 385.6551,25.7084 391.7505,24.1841 397.8646,22.7366 403.9964,21.3659 410.145,20.0725 416.3093,18.8564 422.4885,17.7178 428.6814,16.657 434.8872,15.6741 441.1049,14.7693 447.3334,13.9426 453.5718,13.1943 459.8191,12.5245 466.0744,11.9332 472.3366,11.4205 478.6047,10.9866 484.8778,10.6315 491.1549,10.3553 497.435,10.1579 503.717,10.0395 510.0,10.0 516.283,10.0395 522.565,10.1579 528.8451,10.3553 535.1222,10.6315 541.3953,10.9866 547.6634,11.4205 553.9256,11.9332 560.1809,12.5245 566.4282,13.1943 572.6666,13.9426 578.8951,14.7693 585.1128,15.6741 591.3186,16.657 597.5115,17.7178 603.6907,18.8564 609.855,20.0725 616.0036,21.3659 622.1354,22.7366 628.2495,24.1841 634.3449,25.7084 640.4208,27.3092 646.476,28.9862 652.5096,30.7391 658.5208,32.5677 664.5085,34.4717 670.4718,36.4508 676.4098,38.5047 682.3215,40.6331 688.2059,42.8355 694.0623,45.1118 699.8895,47.4614 705.6868,49.8841 711.4532,52.3794 717.1878,54.947 722.8896,57.5865 728.5579,60.2974 734.1916,63.0793 739.7899,65.9318 745.352,68.8544 750.8768,71.8467 756.3637,74.9081 761.8116,78.0383 767.2198,81.2367 772.5873,84.5028 777.9134,87.836 783.1972,91.236 788.4378,94.7021 793.6345,98.2337 798.7864,101.8304 803.8926,105.4915 808.9525,109.2165 813.9651,113.0048 818.9298,116.8558 823.8457,120.7688 828.712,124.7434 833.528,128.7787 838.2929,132.8743 843.0059,137.0294 847.6664,141.2434 852.2736,145.5157 856.8267,149.8455 861.325,154.2322 865.7678,158.675 870.1545,163.1733 874.4843,167.7264 878.7566,172.3336 882.9706,176.9941 887.1257,181.7071 891.2213,186.472 895.2566,191.288 899.2312,196.1543 903.1442,201.0702 906.9952,206.0349 910.7835,211.0475 914.5085,216.1074 918.1696,221.2136 921.7663,226.3655 925.2979,231.5622 928.764,236.8028 932.164,242.0866 935.4972,247.4127 938.7633,252.7802 941.9617,258.1884 945.0919,263.6363 948.1533,269.1232 951.1456,274.648 954.0682,280.2101 956.9207,285.8084 959.7026,291.4421 962.4135,297.1104 965.053,302.8122 967.6206,308.5468 970.1159,314.3132 972.5386,320.1105 974.8882,325.9377 977.1645,331.7941 979.3669,337.6785 981.4953,343.5902 983.5492,349.5282 985.5283,355.4915 987.4323,361.4792 989.2609,367.4904 991.0138,373.524 992.6908,379.5792 994.2916,385.6551 995.8159,391.7505 997.2634,397.8646 998.6341,403.9964 999.9275,410.145 1001.1436,416.3093 1002.2822,422.4885 1003.343,428.6814 1004.3259,434.8872 1005.2307,441.1049 1006.0574,447.3334 1006.8057,453.5718 1007.4755,459.8191 1008.0668,466.0744 1008.5795,472.3366 1009.0134,478.6047 1009.3685,484.8778 1009.6447,491.1549 1009.8421,497.435 1009.9605,503.717 1010.0,510.0" stroke="black" stroke-width="1" /><polyline fill="none" points="1010.0,510.0 1009.9605,516.283 1009.8421,522.565 1009.6447,528.8451 1009.3685,535.1222 1009.0134,541.3953 1008.5795,547.6634 1008.0668,553.9256 1007.4755,560.1809 1006.8057,566.4282 1006.0574,572.6666 1005.2307,578.8951 1004.3259,585.1128 1003.343,591.3186 1002.2822,597.5115 1001.1436,603.6907 999.9275,609.855 998.6341,616.0036 997.2634,622.1354 995.8159,628.2495 994.2916,634.3449 992.6908,640.4208 991.0138,646.476 989.2609,652.5096 987.4323,658.5208 985.5283,664.5085 983.5492,670.4718 981.4953,676.4098 979.3669,682.3215 977.1645,688.2059 974.8882,694.0623 972.5386,699.8895 970.1159,705.6868 967.6206,711.4532 965.053,717.1878 962.4135,722.8896 959.7026,728.5579 956.9207,734.1916 954.0682,739.7899 951.1456,745.352 948.1533,750.8768 945.0919,756.3637 941.9617,761.8116 938.7633,767.2198 935.4972,772.5873 932.164,777.9134 928.764,783.1972 925.2979,788.4378 921.7663,793.6345 918.1696,798.7864 914.5085,803.8926 910.7835,808.9525 906.9952,813.9651 903.1442,818.9298 899.2312,823.8457 895.2566,828.712 891.2213,833.528 887.1257,838.2929 882.9706,843.0059 878.7566,847.6664 874.4843,852.2736 870.1545,856.8267 865.7678,861.325 861.325,865.7678 856.8267,870.1545 852.2736,874.4843 847.6664,878.7566 843.0059,882.9706 838.2929,887.1257 833.528,891.2213 828.712,895.2566 823.8457,899.2312 818.9298,903.1442 813.9651,906.9952 808.9525,910.7835 803.8926,914.5085 798.7864,918.1696 793.6345,921.7663 788.4378,925.2979 783.1972,928.764 777.9134,932.164 772.5873,935.4972 767.2198,938.7633 761.8116,941.9617 756.3637,945.0919 750.8768,948.1533 745.352,951.1456 739.7899,954.0682 734.1916,956.9207 728.5579,959.7026 722.8896,962.4135 717.1878,965.053 711.4532,967.6206 705.6868,970.1159 699.8895,972.5386 694.0623,974.8882 688.2059,977.1645 682.3215,979.3669 676.4098,981.4953 670.4718,983.5492 664.5085,985.5283 658.5208,987.4323 652.5096,989.2609 646.476,991.0138 640.4208,992.6908 634.3449,994.2916 628.2495,995.8159 622.1354,997.2634 616.0036,998.6341 609.855,999.9275 603.6907,1001.1436 597.5115,1002.2822 591.3186,1003.343 585.1128,1004.3259 578.8951,1005.2307 572.6666,1006.0574 566.4282,1006.8057 560.1809,1007.4755 553.9256,1008.0668 547.6634,1008.5795 541.3953,1009.0134 535.1222,1009.3685 528.8451,1009.6447 522.565,1009.8421 516.283,1009.9605 510.0,1010.0 503.717,1009.9605 497.435,1009.8421 491.1549,1009.6447 484.8778,1009.3685 478.6047,1009.0134 472.3366,1008.5795 466.0744,1008.0668 459.8191,1007.4755 453.5718,1006.8057 447.3334,1006.0574 441.1049,1005.2307 434.8872,1004.3259 428.6814,1003.343 422.4885,1002.2822 416.3093,1001.1436 410.145,999.9275 403.9964,998.6341 397.8646,997.2634 391.7505,995.8159 385.6551,994.2916 379.5792,992.6908 373.524,991.0138 367.4904,989.2609 361.4792,987.4323 355.4915,985.5283 349.5282,983.5492 343.5902,981.4953 337.6785,979.3669 331.7941,977.1645 325.9377,974.8882 320.1105,972.5386 314.3132,970.1159 308.5468,967.6206 302.8122,965.053 297.1104,962.4135 291.4421,959.7026 285.8084,956.9207 280.2101,954.0682 274.648,951.1456 269.1232,948.1533 263.6363,945.0919 258.1884,941.9617 252.7802,938.7633 247.4127,935.4972 242.0866,932.164 236.8028,928.764 231.5622,925.2979 226.3655,921.7663 221.2136,918.1696 216.1074,914.5085 211.0475,910.7835 206.0349,906.9952 201.0702,903.1442 196.1543,899.2312 191.288,895.2566 186.472,891.2213 181.7071,887.1257 176.9941,882.9706 172.3336,878.7566 167.7264,874.4843 163.1733,870.1545 158.675,865.7678 154.2322,861.325 149.8455,856.8267 145.5157,852.2736 141.2434,847.6664 137.0294,843.0059 132.8743,838.2929 128.7787,833.528 124.7434,828.712 120.7688,823.8457 116.8558,818.9298 113.0048,813.9651 109.2165,808.9525 105.4915,803.8926 101.8304,798.7864 98.2337,793.6345 94.7021,788.4378 91.236,783.1972 87.836,777.9134 84.5028,772.5873 81.2367,767.2198 78.0383,761.8116 74.9081,756.3637 71.8467,750.8768 68.8544,745.352 65.9318,739.7899 63.0793,734.1916 60.2974,728.5579 57.5865,722.8896 54.947,717.1878 52.3794,711.4532 49.8841,705.6868 47.4614,699.8895 45.1118,694.0623 42.8355,688.2059 40.6331,682.3215 38.5047,676.4098 36.4508,670.4718 34.4717,664.5085 32.5677,658.5208 30.7391,652.5096 28.9862,646.476 27.3092,640.4208 25.7084,634.3449 24.1841,628.2495 22.7366,622.1354 21.3659,616.0036 20.0725,609.855 18.8564,603.6907 17.7178,597.5115 16.657,591.3186 15.6741,585.1128 14.7693,578.8951 13.9426,572.6666 13.1943,566.4282 12.5245,560.1809 11.9332,553.9256 11.4205,547.6634 10.9866,541.3953 10.6315,535.1222 10.3553,528.8451 10.1579,522.565 10.0395,516.283 10.0,510.0 10.0395,503.717 10.1579,497.435 10.3553,491.1549 10.6315,484.8778 10.9866,478.6047 11.4205,472.3366 11.9332,466.0744 12.5245,459.8191 13.1943,453.5718 13.9426,447.3334 14.7693,441.1049 15.6741,434.8872 16.657,428.6814 17.7178,422.4885 18.8564,416.3093 20.0725,410.145 21.3659,403.9964 22.7366,397.8646 24.1841,391.7505 25.7084,385.6551 27.3092,379.5792 28.9862,373.524 30.7391,367.4904 32.5677,361.4792 34.4717,355.4915 36.4508,349.5282 38.5047,343.5902 40.6331,337.6785 42.8355,331.7941 45.1118,325.9377 47.4614,320.1105 49.8841,314.3132 52.3794,308.5468 54.947,302.8122 57.5865,297.1104 60.2974,291.4421 63.0793,285.8084 65.9318,280.2101 68.8544,274.648 71.8467,269.1232 74.9081,263.6363 78.0383,258.1884 81.2367,252.7802 84.5028,247.4127 87.836,242.0866 91.236,236.8028 94.7021,231.5622 98.2337,226.3655 101.8304,221.2136 105.4915,216.1074 109.2165,211.0475 113.0048,206.0349 116.8558,201.0702 120.7688,196.1543 124.7434,191.288 128.7787,186.472 132.8743,181.7071 137.0294,176.9941 141.2434,172.3336 145.5157,167.7264 149.8455,163.1733 154.2322,158.675 158.675,154.2322 163.1733,149.8455 167.7264,145.5157 172.3336,141.2434 176.9941,137.0294 181.7071,132.8743 186.472,128.7787 191.288,124.7434 196.1543,120.7688 201.0702,116.8558 206.0349,113.0048 211.0475,109.2165 216.1074,105.4915 221.2136,101.8304 226.3655,98.2337 231.5622,94.7021 236.8028,91.236 242.0866,87.836 247.4127,84.5028 252.7802,81.2367 258.1884,78.0383 263.6363,74.9081 269.1232,71.8467 274.648,68.8544 280.2101,65.9318 285.8084,63.0793 291.4421,60.2974 297.1104,57.5865 302.8122,54.947 308.5468,52.3794 314.3132,49.8841 320.1105,47.4614 325.9377,45.1118 331.7941,42.8355 337.6785,40.6331 343.5902,38.5047 349.5282,36.4508 355.4915,34.4717 361.4792,32.5677 367.4904,30.7391 373.524,28.9862 379.5792,27.3092 385.6551,25.7084 391.7505,24.1841 397.8646,22.7366 403.9964,21.3659 410.145,20.0725 416.3093,18.8564 422.4885,17.7178 428.6814,16.657 434.8872,15.6741 441.1049,14.7693 447.3334,13.9426 453.5718,13.1943 459.8191,12.5245 466.0744,11.9332 472.3366,11.4205 478.6047,10.9866 484.8778,10.6315 491.1549,10.3553 497.435,10.1579 503.717,10.0395 510.0,10.0 516.283,10.0395 522.565,10.1579 528.8451,10.3553 535.1222,10.6315 541.3953,10.9866 547.6634,11.4205 553.9256,11.9332 560.1809,12.5245 566.4282,13.1943 572.6666,13.9426 578.8951,14.7693 585.1128,15.6741 591.3186,16.657 597.5115,17.7178 603.6907,18.8564 609.855,20.0725 616.0036,21.3659 622.1354,22.7366 628.2495,24.1841 634.3449,25.7084 640.4208,27.3092 646.476,28.9862 652.5096,30.7391 658.5208,32.5677 664.5085,34.4717 670.4718,36.4508 676.4098,38.5047 682.3215,40.6331 688.2059,42.8355 694.0623,45.1118 699.8895,47.4614 705.6868,49.8841 711.4532,52.3794 717.1878,54.947 722.8896,57.5865 728.5579,60.2974 734.1916,63.0793 739.7899,65.9318 745.352,68.8544 750.8768,71.8467 756.3637,74.9081 761.8116,78.0383 767.2198,81.2367 772.5873,84.5028 777.9134,87.836 783.1972,91.236 788.4378,94.7021 793.6345,98.2337 798.7864,101.8304 803.8926,105.4915 808.9525,109.2165 813.9651,113.0048 818.9298,116.8558 823.8457,120.7688 828.712,124.7434 833.528,128.7787 838.2929,132.8743 843.0059,137.0294 847.6664,141.2434 852.2736,145.5157 856.8267,149.8455 861.325,154.2322 865.7678,158.675 870.1545,163.1733 874.4843,167.7264 878.7566,172.3336 882.9706,176.9941 887.1257,181.7071 891.2213,186.472 895.2566,191.288 899.2312,196.1543 903.1442,201.0702 906.9952,206.0349 910.7835,211.0475 914.5085,216.1074 918.1696,221.2136 921.7663,226.3655 925.2979,231.5622 928.764,236.8028 932.164,242.0866 935.4972,247.4127 938.7633,252.7802 941.9617,258.1884 945.0919,263.6363 948.1533,269.1232 951.1456,274.648 954.0682,280.2101 956.9207,285.8084 959.7026,291.4421 962.4135,297.1104 965.053,302.8122 967.6206,308.5468 970.1159,314.3132 972.5386,320.1105 974.8882,325.9377 977.1645,331.7941 979.3669,337.6785 981.4953,343.5902 983.5492,349.5282 985.5283,355.4915 987.4323,361.4792 989.2609,367.4904 991.0138,373.524 992.6908,379.5792 994.2916,385.6551 995.8159,391.7505 997.2634,397.8646 998.6341,403.9964 999.9275,410.145 1001.1436,416.3093 1002.2822,422.4885 1003.343,428.6814 1004.3259,434.8872 1005.2307,441.1049 1006.0574,447.3334 1006.8057,453.5718 1007.4755,459.8191 1008.0668,466.0744 1008.5795,472.3366 1009.0134,478.6047 1009.3685,484.8778 1009.6447,491.1549 1009.8421,497.435 1009.9605,503.717 1010.0,510.0" stroke="black" stroke-width="1" /></svg>