<?xml version="1.0" encoding="utf-8" ?>
<svg baseProfile="tiny" height="1020.0" version="1.2" width="1020.0" xmlns="http://www.w3.org/2000/svg" xmlns:ev="http://www.w3.org/2001/xml-events" xmlns:xlink="http://www.w3.org/1999/xlink"><defs /><polyline fill="none" points="760.0,510.0 759.921,516.2825 759.6842,522.5611 759.2897,528.8317 758.7378,535.0904 758.0287,541.3333 757.1629,547.5564 756.1411,553.7558 754.9638,559.9275 753.6317,566.0677 752.1458,572.1725 750.5069,578.238 748.7161,584.2604 746.7746,590.2359 744.6835,596.1607 742.4441,602.0311 740.058,607.8434 737.5265,613.5939 734.8513,619.2789 732.0341,624.895 729.0767,630.4384 725.9809,635.9058 722.7486,641.2937 719.382,646.5986 715.8831,651.8172 712.2542,656.9463 708.4976,661.9826 704.6156,666.9228 700.6106,671.764 696.4853,676.503 692.2422,681.1368 687.8839,685.6625 683.4133,690.0773 678.8332,694.3783 674.1464,698.5628 669.356,702.6283 664.4649,706.5721 659.4762,710.3917 654.3932,714.0848 649.2189,717.649 643.9567,721.082 638.6099,724.3817 633.1818,727.5459 627.676,730.5728 622.0958,733.4604 616.4448,736.2068 610.7266,738.8103 604.9448,741.2693 599.103,743.5822 593.2049,745.7476 587.2542,747.7641 581.2548,749.6304 575.2104,751.3454 569.1247,752.9079 563.0018,754.317 556.8453,755.5718 550.6593,756.6715 544.4476,757.6154 538.2141,758.4028 531.9628,759.0334 525.6976,759.5067 519.4225,759.8224 513.1415,759.9803 506.8585,759.9803 500.5775,759.8224 494.3024,759.5067 488.0372,759.0334 481.7859,758.4028 475.5524,757.6154 469.3407,756.6715 463.1547,755.5718 456.9982,754.317 450.8753,752.9079 444.7896,751.3454 438.7452,749.6304 432.7458,747.7641 426.7951,745.7476 420.897,743.5822 415.0552,741.2693 409.2734,738.8103 403.5552,736.2068 397.9042,733.4604 392.324,730.5728 386.8182,727.5459 381.3901,724.3817 376.0433,721.082 370.7811,717.649 365.6068,714.0848 360.5238,710.3917 355.5351,706.5721 350.644,702.6283 345.8536,698.5628 341.1668,694.3783 336.5867,690.0773 332.1161,685.6625 327.7578,681.1368 323.5147,676.503 319.3894,671.764 315.3844,666.9228 311.5024,661.9826 307.7458,656.9463 304.1169,651.8172 300.618,646.5986 297.2514,641.2937 294.0191,635.9058 290.9233,630.4384 287.9659,624.895 285.1487,619.2789 282.4735,613.5939 279.942,607.8434 277.5559,602.0311 275.3165,596.1607 273.2254,590.2359 271.2839,584.2604 269.4931,578.238 267.8542,572.1725 266.3683,566.0677 265.0362,559.9275 263.8589,553.7558 262.8371,547.5564 261.9713,541.3333 261.2622,535.0904 260.7103,528.8317 260.3158,522.5611 260.079,516.2825 260.0,510.0 260.079,503.7175 260.3158,497.4389 260.7103,491.1683 261.2622,484.9096 261.9713,478.6667 262.8371,472.4436 263.8589,466.2442 265.0362,460.0725 266.3683,453.9323 267.8542,447.8275 269.4931,441.762 271.2839,435.7396 273.2254,429.7641 275.3165,423.8393 277.5559,417.9689 279.942,412.1566 282.4735,406.4061 285.1487,400.7211 287.9659,395.105 290.9233,389.5616 294.0191,384.0942 297.2514,378.7063 300.618,373.4014 304.1169,368.1828 307.7458,363.0537 311.5024,358.0174 315.3844,353.0772 319.3894,348.236 323.5147,343.497 327.7578,338.8632 332.1161,334.3375 336.5867,329.9227 341.1668,325.6217 345.8536,321.4372 350.644,317.3717 355.5351,313.4279 360.5238,309.6083 365.6068,305.9152 370.7811,302.351 376.0433,298.918 381.3901,295.6183 386.8182,292.4541 392.324,289.4272 397.9042,286.5396 403.5552,283.7932 409.2734,281.1897 415.0552,278.7307 420.897,276.4178 426.7951,274.2524 432.7458,272.2359 438.7452,270.3696 444.7896,268.6546 450.8753,267.0921 456.9982,265.683 463.1547,264.4282 469.3407,263.3285 475.5524,262.3846 481.7859,261.5972 488.0372,260.9666 494.3024,260.4933 500.5775,260.1776 506.8585,260.0197 513.1415,260.0197 519.4225,260.1776 525.6976,260.4933 531.9628,260.9666 538.2141,261.5972 544.4476,262.3846 550.6593,263.3285 556.8453,264.4282 563.0018,265.683 569.1247,267.0921 575.2104,268.6546 581.2548,270.3696 587.2542,272.2359 593.2049,274.2524 599.103,276.4178 604.9448,278.7307 610.7266,281.1897 616.4448,283.7932 622.0958,286.5396 627.676,289.4272 633.1818,292.4541 638.6099,295.6183 643.9567,298.918 649.2189,302.351 654.3932,305.9152 659.4762,309.6083 664.4649,313.4279 669.356,317.3717 674.1464,321.4372 678.8332,325.6217 683.4133,329.9227 687.8839,334.3375 692.2422,338.8632 696.4853,343.497 700.6106,348.236 704.6156,353.0772 708.4976,358.0174 712.2542,363.0537 715.8831,368.1828 719.382,373.4014 722.7486,378.7063 725.9809,384.0942 729.0767,389.5616 732.0341,395.105 734.8513,400.7211 737.5265,406.4061 740.058,412.1566 742.4441,417.9689 744.6835,423.8393 746.7746,429.7641 748.7161,435.7396 750.5069,441.762 752.1458,447.8275 753.6317,453.9323 754.9638,460.0725 756.1411,466.2442 757.1629,472.4436 758.0287,478.6667 758.7378,484.9096 759.2897,491.1683 759.6842,497.4389 759.921,503.7175 760.0,510.0" stroke="gray" stroke-width="2" /><polyline fill="none" points="1010.0,510.0 1005.0,510.0 1000.0,510.0 995.0,510.0 990.0,510.0 985.0,510.0 980.0,510.0 975.0,510.0 970.0,510.0 965.0,510.0 960.0,510.0 955.0,510.0 950.0,510.0 945.0,510.0 940.0,510.0 935.0,510.0 930.0,510.0 925.0,510.0 920.0,510.0 915.0,510.0 910.0,510.0 905.0,510.0 900.0,510.0 895.0,510.0 890.0,510.0 885.0,510.0 880.0,510.0 875.0,510.0 870.0,510.0 865.0,510.0 860.0,510.0 855.0,510.0 850.0,510.0 845.0,510.0 840.0,510.0 835.0,510.0 830.0,510.0 825.0,510.0 820.0,510.0 815.0,510.0 810.0,510.0 805.0,510.0 800.0,510.0 795.0,510.0 790.0,510.0 785.0,510.0 780.0,510.0 775.0,510.0 770.0,510.0 765.0,510.0 760.0,510.0" stroke="gray" stroke-width="2" /><polyline fill="none" points="1010.0,510.0 1009.9605,516.283 1009.8421,522.565 1009.6447,528.8451 1009.3685,535.1222 1009.0134,541.3953 1008.5795,547.6634 1008.0668,553.9256 1007.4755,560.1809 1006.8057,566.4282 1006.0574,572.6666 1005.2307,578.8951 1004.3259,585.1128 1003.343,591.3186 1002.2822,597.5115 1001.1436,603.6907 999.9275,609.855 998.6341,616.0036 997.2634,622.1354 995.8159,628.2495 994.2916,634.3449 992.6908,640.4208 991.0138,646.476 989.2609,652.5096 987.4323,658.5208 985.5283,664.5085 983.5492,670.4718 981.4953,676.4098 979.3669,682.3215 977.1645,688.2059 974.8882,694.0623 972.5386,699.8895 970.1159,705.6868 967.6206,711.4532 965.053,717.1878 962.4135,722.8896 959.7026,728.5579 956.9207,734.1916 954.0682,739.7899 951.1456,745.352 948.1533,750.8768 945.0919,756.3637 941.9617,761.8116 938.7633,767.2198 935.4972,772.5873 932.164,777.9134 928.764,783.1972 925.2979,788.4378 921.7663,793.6345 918.1696,798.7864 914.5085,803.8926 910.7835,808.9525 906.9952,813.9651 903.1442,818.9298 899.2312,823.8457 895.2566,828.712 891.2213,833.528 887.1257,838.2929 882.9706,843.0059 878.7566,847.6664 874.4843,852.2736 870.1545,856.8267 865.7678,861.325 861.325,865.7678 856.8267,870.1545 852.2736,874.4843 847.6664,878.7566 843.0059,882.9706 838.2929,887.1257 833.528,891.2213 828.712,895.2566 823.8457,899.2312 818.9298,903.1442 813.9651,906.9952 808.9525,910.7835 803.8926,914.5085 798.7864,918.1696 793.6345,921.7663 788.4378,925.2979 783.1972,928.764 777.9134,932.164 772.5873,935.4972 767.2198,938.7633 761.8116,941.9617 756.3637,945.0919 750.8768,948.1533 745.352,951.1456 739.7899,954.0682 734.1916,956.9207 728.5579,959.7026 722.8896,962.4135 717.1878,965.053 711.4532,967.6206 705.6868,970.1159 699.8895,972.5386 694.0623,974.8882 688.2059,977.1645 682.3215,979.3669 676.4098,981.4953 670.4718,983.5492 664.5085,985.5283 658.5208,987.4323 652.5096,989.2609 646.476,991.0138 640.4208,992.6908 634.3449,994.2916 628.2495,995.8159 622.1354,997.2634 616.0036,998.6341 609.855,999.9275 603.6907,1001.1436 597.5115,1002.2822 591.3186,1003.343 585.1128,1004.3259 578.8951,1005.2307 572.6666,1006.0574 566.4282,1006.8057 560.1809,1007.4755 553.9256,1008.0668 547.6634,1008.5795 541.3953,1009.0134 535.1222,1009.3685 528.8451,1009.6447 522.565,1009.8421 516.283,1009.9605 510.0,1010.0 503.717,1009.9605 497.435,1009.8421 491.1549,1009.6447 484.8778,1009.3685 478.6047,1009.0134 472.3366,1008.5795 466.0744,1008.0668 459.8191,1007.4755 453.5718,1006.8057 447.3334,1006.0574 441.1049,1005.2307 434.8872,1004.3259 428.6814,1003.343 422.4885,1002.2822 416.3093,1001.1436 410.145,999.9275 403.9964,998.6341 397.8646,997.2634 391.7505,995.8159 385.6551,994.2916 379.5792,992.6908 373.524,991.0138 367.4904,989.2609 361.4792,987.4323 355.4915,985.5283 349.5282,983.5492 343.5902,981.4953 337.6785,979.3669 331.7941,977.1645 325.9377,974.8882 320.1105,972.5386 314.3132,970.1159 308.5468,967.6206 302.8122,965.053 297.1104,962.4135 291.4421,959.7026 285.8084,956.9207 280.2101,954.0682 274.648,951.1456 269.1232,948.1533 263.6363,945.0919 258.1884,941.9617 252.7802,938.7633 247.4127,935.4972 242.0866,932.164 236.8028,928.764 231.5622,925.2979 226.3655,921.7663 221.2136,918.1696 216.1074,914.5085 211.0475,910.7835 206.0349,906.9952 201.0702,903.1442 196.1543,899.2312 191.288,895.2566 186.472,891.2213 181.7071,887.1257 176.9941,882.9706 172.3336,878.7566 167.7264,874.4843 163.1733,870.1545 158.675,865.7678 154.2322,861.325 149.8455,856.8267 145.5157,852.2736 141.2434,847.6664 137.0294,843.0059 132.8743,838.2929 128.7787,833.528 124.7434,828.712 120.7688,823.8457 116.8558,818.9298 113.0048,813.9651 109.2165,808.9525 105.4915,803.8926 101.8304,798.7864 98.2337,793.6345 94.7021,788.4378 91.236,783.1972 87.836,777.9134 84.5028,772.5873 81.2367,767.2198 78.0383,761.8116 74.9081,756.3637 71.8467,750.8768 68.8544,745.352 65.9318,739.7899 63.0793,734.1916 60.2974,728.5579 57.5865,722.8896 54.947,717.1878 52.3794,711.4532 49.8841,705.6868 47.4614,699.8895 45.1118,694.0623 42.8355,688.2059 40.6331,682.3215 38.5047,676.4098 36.4508,670.4718 34.4717,664.5085 32.5677,658.5208 30.7391,652.5096 28.9862,646.476 27.3092,640.4208 25.7084,634.3449 24.1841,628.2495 22.7366,622.1354 21.3659,616.0036 20.0725,609.855 18.8564,603.6907 17.7178,597.5115 16.657,591.3186 15.6741,585.1128 14.7693,578.8951 13.9426,572.6666 13.1943,566.4282 12.5245,560.1809 11.9332,553.9256 11.4205,547.6634 10.9866,541.3953 10.6315,535.1222 10.3553,528.8451 10.1579,522.565 10.0395,516.283 10.0,510.0 10.0395,503.717 10.1579,497.435 10.3553,491.1549 10.6315,484.8778 10.9866,478.6047 11.4205,472.3366 11.9332,466.0744 12.5245,459.8191 13.1943,453.5718 13.9426,447.3334 14.7693,441.1049 15.6741,434.8872 16.657,428.6814 17.7178,422.4885 18.8564,416.3093 20.0725,410.145 21.3659,403.9964 22.7366,397.8646 24.1841,391.7505 25.7084,385.6551 27.3092,379.5792 28.9862,373.524 30.7391,367.4904 32.5677,361.4792 34.4717,355.4915 36.4508,349.5282 38.5047,343.5902 40.6331,337.6785 42.8355,331.7941 45.1118,325.9377 47.4614,320.1105 49.8841,314.3132 52.3794,308.5468 54.947,302.8122 57.5865,297.1104 60.2974,291.4421 63.0793,285.8084 65.9318,280.2101 68.8544,274.648 71.8467,269.1232 74.9081,263.6363 78.0383,258.1884 81.2367,252.7802 84.5028,247.4127 87.836,242.0866 91.236,236.8028 94.7021,231.5622 98.2337,226.3655 101.8304,221.2136 105.4915,216.1074 109.2165,211.0475 113.0048,206.0349 116.8558,201.0702 120.7688,196.1543 124.7434,191.288 128.7787,186.472 132.8743,181.7071 137.0294,176.9941 141.2434,172.3336 145.5157,167.7264 149.8455,163.1733 154.2322,158.675 158.675,154.2322 163.1733,149.8455 167.7264,145.5157 172.3336,141.2434 176.9941,137.0294 181.7071,132.8743 186.472,128.7787 191.288,124.7434 196.1543,120.7688 201.0702,116.8558 206.0349,113.0048 211.0475,109.2165 216.1074,105.4915 221.2136,101.8304 226.3655,98.2337 231.5622,94.7021 236.8028,91.236 242.0866,87.836 247.4127,84.5028 252.7802,81.2367 258.1884,78.0383 263.6363,74.9081 269.1232,71.8467 274.648,68.8544 280.2101,65.9318 285.8084,63.0793 291.4421,60.2974 297.1104,57.5865 302.8122,54.947 308.5468,52.3794 314.3132,49.8841 320.1105,47.4614 325.9377,45.1118 331.7941,42.8355 337.6785,40.6331 343.5902,38.5047 349.5282,36.4508 355.4915,34.4717 361.4792,32.5677 367.4904,30.7391 373.524,28.9862 379.5792,27.3092 385.6551,25.7084 391.7505,24.1841 397.8646,22.7366 403.9964,21.3659 410.145,20.0725 416.3093,18.8564 422.4885,17.7178 428.6814,16.657 434.8872,15.6741 441.1049,14.7693 447.3334,13.9426 453.5718,13.1943 459.8191,12.5245 466.0744,11.9332 472.3366,11.4205 478.6047,10.9866 484.8778,10.6315 491.1549,10.3553 497.435,10.1579 503.717,10.0395 510.0,10.0 516.283,10.0395 522.565,10.1579 528.8451,10.3553 535.1222,10.6315 541.3953,10.9866 547.6634,11.4205 553.9256,11.9332 560.1809,12.5245 566.4282,13.1943 572.6666,13.9426 578.8951,14.7693 585.1128,15.6741 591.3186,16.657 597.5115,17.7178 603.6907,18.8564 609.855,20.0725 616.0036,21.3659 622.1354,22.7366 628.2495,24.1841 634.3449,25.7084 640.4208,27.3092 646.476,28.9862 652.5096,30.7391 658.5208,32.5677 664.5085,34.4717 670.4718,36.4508 676.4098,38.5047 682.3215,40.6331 688.2059,42.8355 694.0623,45.1118 699.8895,47.4614 705.6868,49.8841 711.4532,52.3794 717.1878,54.947 722.8896,57.5865 728.5579,60.2974 734.1916,63.0793 739.7899,65.9318 745.352,68.8544 750.8768,71.8467 756.3637,74.9081 761.8116,78.0383 767.2198,81.2367 772.5873,84.5028 777.9134,87.836 783.1972,91.236 788.4378,94.7021 793.6345,98.2337 798.7864,101.8304 803.8926,105.4915 808.9525,109.2165 813.9651,113.0048 818.9298,116.8558 823.8457,120.7688 828.712,124.7434 833.528,128.7787 838.2929,132.8743 843.0059,137.0294 847.6664,141.2434 852.2736,145.5157 856.8267,149.8455 861.325,154.2322 865.7678,158.675 870.1545,163.1733 874.4843,167.7264 878.7566,172.3336 882.9706,176.9941 887.1257,181.7071 891.2213,186.472 895.2566,191.288 899.2312,196.1543 903.1442,201.0702 906.9952,206.0349 910.7835,211.0475 914.5085,216.1074 918.1696,221.2136 921.7663,226.3655 925.2979,231.5622 928.764,236.8028 932.164,242.0866 935.4972,247.4127 938.7633,252.7802 941.9617,258.1884 945.0919,263.6363 948.1533,269.1232 951.1456,274.648 954.0682,280.2101 956.9207,285.8084 959.7026,291.4421 962.4135,297.1104 965.053,302.8122 967.6206,308.5468 970.1159,314.3132 972.5386,320.1105 974.8882,325.9377 977.1645,331.7941 979.3669,337.6785 981.4953,343.5902 983.5492,349.5282 985.5283,355.4915 987.4323,361.4792 989.2609,367.4904 991.0138,373.524 992.6908,379.5792 994.2916,385.6551 995.8159,391.7505 997.2634,397.8646 998.6341,403.9964 999.9275,410.145 1001.1436,416.3093 1002.2822,422.4885 1003.343,428.6814 1004.3259,434.8872 1005.2307,441.1049 1006.0574,447.3334 1006.8057,453.5718 1007.4755,459.8191 1008.0668,466.0744 1008.5795,472.3366 1009.0134,478.6047 1009.3685,484.8778 1009.6447,491.1549 1009.8421,497.435 1009.9605,503.717 1010.0,510.0" stroke="gray" stroke-width="2" /><polyline fill="none" points="1010.0,510.0 1005.0,510.0 1000.0,510.0 995.0,510.0 990.0,510.0 985.0,510.0 980.0,510.0 975.0,510.0 970.0,510.0 965.0,510.0 960.0,510.0 955.0,510.0 950.0,510.0 945.0,510.0 940.0,510.0 935.0,510.0 930.0,510.0 925.0,510.0 920.0,510.0 915.0,510.0 910.0,510.0 905.0,510.0 900.0,510.0 895.0,510.0 890.0,510.0 885.0,510.0 880.0,510.0 875.0,510.0 870.0,510.0 865.0,510.0 860.0,510.0 855.0,510.0 850.0,510.0 845.0,510.0 840.0,510.0 835.0,510.0 830.0,510.0 825.0,510.0 820.0,510.0 815.0,510.0 810.0,510.0 805.0,510.0 800.0,510.0 795.0,510.0 790.0,510.0 785.0,510.0 780.0,510.0 775.0,510.0 770.0,510.0 765.0,510.0 760.0,510.0" stroke="gray" stroke-width="2" /><polyline fill="none" points="760.0,510.0 759.921,516.2825 759.6842,522.5611 759.2897,528.8317 758.7378,535.0904 758.0287,541.3333 757.1629,547.5564 756.1411,553.7558 754.9638,559.9275 753.6317,566.0677 752.1458,572.1725 750.5069,578.238 748.7161,584.2604 746.7746,590.2359 744.6835,596.1607 742.4441,602.0311 740.058,607.8434 737.5265,613.5939 734.8513,619.2789 732.0341,624.895 729.0767,630.4384 725.9809,635.9058 722.7486,641.2937 719.382,646.5986 715.8831,651.8172 712.2542,656.9463 708.4976,661.9826 704.6156,666.9228 700.6106,671.764 696.4853,676.503 692.2422,681.1368 687.8839,685.6625 683.4133,690.0773 678.8332,694.3783 674.1464,698.5628 669.356,702.6283 664.4649,706.5721 659.4762,710.3917 654.3932,714.0848 649.2189,717.649 643.9567,721.082 638.6099,724.3817 633.1818,727.5459 627.676,730.5728 622.0958,733.4604 616.4448,736.2068 610.7266,738.8103 604.9448,741.2693 599.103,743.5822 593.2049,745.7476 587.2542,747.7641 581.2548,749.6304 575.2104,751.3454 569.1247,752.9079 563.0018,754.317 556.8453,755.5718 550.6593,756.6715 544.4476,757.6154 538.2141,758.4028 531.9628,759.0334 525.6976,759.5067 519.4225,759.8224 513.1415,759.9803 506.8585,759.9803 500.5775,759.8224 494.3024,759.5067 488.0372,759.0334 481.7859,758.4028 475.5524,757.6154 469.3407,756.6715 463.1547,755.5718 456.9982,754.317 450.8753,752.9079 444.7896,751.3454 438.7452,749.6304 432.7458,747.7641 426.7951,745.7476 420.897,743.5822 415.0552,741.2693 409.2734,738.8103 403.5552,736.2068 397.9042,733.4604 392.324,730.5728 386.8182,727.5459 381.3901,724.3817 376.0433,721.082 370.7811,717.649 365.6068,714.0848 360.5238,710.3917 355.5351,706.5721 350.644,702.6283 345.8536,698.5628 341.1668,694.3783 336.5867,690.0773 332.1161,685.6625 327.7578,681.1368 323.5147,676.503 319.3894,671.764 315.3844,666.9228 311.5024,661.9826 307.7458,656.9463 304.1169,651.8172 300.618,646.5986 297.2514,641.2937 294.0191,635.9058 290.9233,630.4384 287.9659,624.895 285.1487,619.2789 282.4735,613.5939 279.942,607.8434 277.5559,602.0311 275.3165,596.1607 273.2254,590.2359 271.2839,584.2604 269.4931,578.238 267.8542,572.1725 266.3683,566.0677 265.0362,559.9275 263.8589,553.7558 262.8371,547.5564 261.9713,541.3333 261.2622,535.0904 260.7103,528.8317 260.3158,522.5611 260.079,516.2825 260.0,510.0 260.079,503.7175 260.3158,497.4389 260.7103,491.1683 261.2622,484.9096 261.9713,478.6667 262.8371,472.4436 263.8589,466.2442 265.0362,460.0725 266.3683,453.9323 267.8542,447.8275 269.4931,441.762 271.2839,435.7396 273.2254,429.7641 275.3165,423.8393 277.5559,417.9689 279.942,412.1566 282.4735,406.4061 285.1487,400.7211 287.9659,395.105 290.9233,389.5616 294.0191,384.0942 297.2514,378.7063 300.618,373.4014 304.1169,368.1828 307.7458,363.0537 311.5024,358.0174 315.3844,353.0772 319.3894,348.236 323.5147,343.497 327.7578,338.8632 332.1161,334.3375 336.5867,329.9227 341.1668,325.6217 345.8536,321.4372 350.644,317.3717 355.5351,313.4279 360.5238,309.6083 365.6068,305.9152 370.7811,302.351 376.0433,298.918 381.3901,295.6183 386.8182,292.4541 392.324,289.4272 397.9042,286.5396 403.5552,283.7932 409.2734,281.1897 415.0552,278.7307 420.897,276.4178 426.7951,274.2524 432.7458,272.2359 438.7452,270.3696 444.7896,268.6546 450.8753,267.0921 456.9982,265.683 463.1547,264.4282 469.3407,263.3285 475.5524,262.3846 481.7859,261.5972 488.0372,260.9666 494.3024,260.4933 500.5775,260.1776 506.8585,260.0197 513.1415,260.0197 519.4225,260.1776 525.6976,260.4933 531.9628,260.9666 538.2141,261.5972 544.4476,262.3846 550.6593,263.3285 556.8453,264.4282 563.0018,265.683 569.1247,267.0921 575.2104,268.6546 581.2548,270.3696 587.2542,272.2359 593.2049,274.2524 599.103,276.4178 604.9448,278.7307 610.7266,281.1897 616.4448,283.7932 622.0958,286.5396 627.676,289.4272 633.1818,292.4541 638.6099,295.6183 643.9567,298.918 649.2189,302.351 654.3932,305.9152 659.4762,309.6083 664.4649,313.4279 669.356,317.3717 674.1464,321.4372 678.8332,325.6217 683.4133,329.9227 687.8839,334.3375 692.2422,338.8632 696.4853,343.497 700.6106,348.236 704.6156,353.0772 708.4976,358.0174 712.2542,363.0537 715.8831,368.1828 719.382,373.4014 722.7486,378.7063 725.9809,384.0942 729.0767,389.5616 732.0341,395.105 734.8513,400.7211 737.5265,406.4061 740.058,412.1566 742.4441,417.9689 744.6835,423.8393 746.7746,429.7641 748.7161,435.7396 750.5069,441.762 752.1458,447.8275 753.6317,453.9323 754.9638,460.0725 756.1411,466.2442 757.1629,472.4436 758.0287,478.6667 758.7378,484.9096 759.2897,491.1683 759.6842,497.4389 759.921,503.7175 760.0,510.0" stroke="gray" stroke-width="2" /><polyline fill="none" points="1010.0,510.0 1009.9605,516.283 1009.8421,522.565 1009.6447,528.8451 1009.3685,535.1222 1009.0134,541.3953 1008.5795,547.6634 1008.0668,553.9256 1007.4755,560.1809 1006.8057,566.4282 1006.0574,572.6666 1005.2307,578.8951 1004.3259,585.1128 1003.343,591.3186 1002.2822,597.5115 1001.1436,603.6907 999.9275,609.855 998.6341,616.0036 997.2634,622.1354 995.8159,628.2495 994.2916,634.3449 992.6908,640.4208 991.0138,646.476 989.2609,652.5096 987.4323,658.5208 985.5283,664.5085 983.5492,670.4718 981.4953,676.4098 979.3669,682.3215 977.1645,688.2059 974.8882,694.0623 972.5386,699.8895 970.1159,705.6868 967.6206,711.4532 965.053,717.1878 962.4135,722.8896 959.7026,728.5579 956.9207,734.1916 954.0682,739.7899 951.1456,745.352 948.1533,750.8768 945.0919,756.3637 941.9617,761.8116 938.7633,767.2198 935.4972,772.5873 932.164,777.9134 928.764,783.1972 925.2979,788.4378 921.7663,793.6345 918.1696,798.7864 914.5085,803.8926 910.7835,808.9525 906.9952,813.9651 903.1442,818.9298 899.2312,823.8457 895.2566,828.712 891.2213,833.528 887.1257,838.2929 882.9706,843.0059 878.7566,847.6664 874.4843,852.2736 870.1545,856.8267 865.7678,861.325 861.325,865.7678 856.8267,870.1545 852.2736,874.4843 847.6664,878.7566 843.0059,882.9706 838.2929,887.1257 833.528,891.2213 828.712,895.2566 823.8457,899.2312 818.9298,903.1442 813.9651,906.9952 808.9525,910.7835 803.8926,914.5085 798.7864,918.1696 793.6345,921.7663 788.4378,925.2979 783.1972,928.764 777.9134,932.164 772.5873,935.4972 767.2198,938.7633 761.8116,941.9617 756.3637,945.0919 750.8768,948.1533 745.352,951.1456 739.7899,954.0682 734.1916,956.9207 728.5579,959.7026 722.8896,962.4135 717.1878,965.053 711.4532,967.6206 705.6868,970.1159 699.8895,972.5386 694.0623,974.8882 688.2059,977.1645 682.3215,979.3669 676.4098,981.4953 670.4718,983.5492 664.5085,985.5283 658.5208,987.4323 652.5096,989.2609 646.476,991.0138 640.4208,992.6908 634.3449,994.2916 628.2495,995.8159 622.1354,997.2634 616.0036,998.6341 609.855,999.9275 603.6907,1001.1436 597.5115,1002.2822 591.3186,1003.343 585.1128,1004.3259 578.8951,1005.2307 572.6666,1006.0574 566.4282,1006.8057 560.1809,1007.4755 553.9256,1008.0668 547.6634,1008.5795 541.3953,1009.0134 535.1222,1009.3685 528.8451,1009.6447 522.565,1009.8421 516.283,1009.9605 510.0,1010.0 503.717,1009.9605 497.435,1009.8421 491.1549,1009.6447 484.8778,1009.3685 478.6047,1009.0134 472.3366,1008.5795 466.0744,1008.0668 459.8191,1007.4755 453.5718,1006.8057 447.3334,1006.0574 441.1049,1005.2307 434.8872,1004.3259 428.6814,1003.343 422.4885,1002.2822 416.3093,1001.1436 410.145,999.9275 403.9964,998.6341 397.8646,997.2634 391.7505,995.8159 385.6551,994.2916 379.5792,992.6908 373.524,991.0138 367.4904,989.2609 361.4792,987.4323 355.4915,985.5283 349.5282,983.5492 343.5902,981.4953 337.6785,979.3669 331.7941,977.1645 325.9377,974.8882 320.1105,972.5386 314.3132,970.1159 308.5468,967.6206 302.8122,965.053 297.1104,962.4135 291.4421,959.7026 285.8084,956.9207 280.2101,954.0682 274.648,951.1456 269.1232,948.1533 263.6363,945.0919 258.1884,941.9617 252.7802,938.7633 247.4127,935.4972 242.0866,932.164 236.8028,928.764 231.5622,925.2979 226.3655,921.7663 221.2136,918.1696 216.1074,914.5085 211.0475,910.7835 206.0349,906.9952 201.0702,903.1442 196.1543,899.2312 191.288,895.2566 186.472,891.2213 181.7071,887.1257 176.9941,882.9706 172.3336,878.7566 167.7264,874.4843 163.1733,870.1545 158.675,865.7678 154.2322,861.325 149.8455,856.8267 145.5157,852.2736 141.2434,847.6664 137.0294,843.0059 132.8743,838.2929 128.7787,833.528 124.7434,828.712 120.7688,823.8457 116.8558,818.9298 113.0048,813.9651 109.2165,808.9525 105.4915,803.8926 101.8304,798.7864 98.2337,793.6345 94.7021,788.4378 91.236,783.1972 87.836,777.9134 84.5028,772.5873 81.2367,767.2198 78.0383,761.8116 74.9081,756.3637 71.8467,750.8768 68.8544,745.352 65.9318,739.7899 63.0793,734.1916 60.2974,728.5579 57.5865,722.8896 54.947,717.1878 52.3794,711.4532 49.8841,705.6868 47.4614,699.8895 45.1118,694.0623 42.8355,688.2059 40.6331,682.3215 38.5047,676.4098 36.4508,670.4718 34.4717,664.5085 32.5677,658.5208 30.7391,652.5096 28.9862,646.476 27.3092,640.4208 25.7084,634.3449 24.1841,628.2495 22.7366,622.1354 21.3659,616.0036 20.0725,609.855 18.8564,603.6907 17.7178,597.5115 16.657,591.3186 15.6741,585.1128 14.7693,578.8951 13.9426,572.6666 13.1943,566.4282 12.5245,560.1809 11.9332,553.9256 11.4205,547.6634 10.9866,541.3953 10.6315,535.1222 10.3553,528.8451 10.1579,522.565 10.0395,516.283 10.0,510.0 10.0395,503.717 10.1579,497.435 10.3553,491.1549 10.6315,484.8778 10.9866,478.6047 11.4205,472.3366 11.9332,466.0744 12.5245,459.8191 13.1943,453.5718 13.9426,447.3334 14.7693,441.1049 15.6741,434.8872 16.657,428.6814 17.7178,422.4885 18.8564,416.3093 20.0725,410.145 21.3659,403.9964 22.7366,397.8646 24.1841,391.7505 25.7084,385.6551 27.3092,379.5792 28.9862,373.524 30.7391,367.4904 32.5677,361.4792 34.4717,355.4915 36.4508,349.5282 38.5047,343.5902 40.6331,337.6785 42.8355,331.7941 45.1118,325.9377 47.4614,320.1105 49.8841,314.3132 52.3794,308.5468 54.947,302.8122 57.5865,297.1104 60.2974,291.4421 63.0793,285.8084 65.9318,280.2101 68.8544,274.648 71.8467,269.1232 74.9081,263.6363 78.0383,258.1884 81.2367,252.7802 84.5028,247.4127 87.836,242.0866 91.236,236.8028 94.7021,231.5622 98.2337,226.3655 101.8304,221.2136 105.4915,216.1074 109.2165,211.0475 113.0048,206.0349 116.8558,201.0702 120.7688,196.1543 124.7434,191.288 128.7787,186.472 132.8743,181.7071 137.0294,176.9941 141.2434,172.3336 145.5157,167.7264 149.8455,163.1733 154.2322,158.675 158.675,154.2322 163.1733,149.8455 167.7264,145.5157 172.3336,141.2434 176.9941,137.0294 181.7071,132.8743 186.472,128.7787 191.288,124.7434 196.1543,120.7688 201.0702,116.8558 206.0349,113.0048 211.0475,109.2165 216.1074,105.4915 221.2136,101.8304 226.3655,98.2337 231.5622,94.7021 236.8028,91.236 242.0866,87.836 247.4127,84.5028 252.7802,81.2367 258.1884,78.0383 263.6363,74.9081 269.1232,71.8467 274.648,68.8544 280.2101,65.9318 285.8084,63.0793 291.4421,60.2974 297.1104,57.5865 302.8122,54.947 308.5468,52.3794 314.3132,49.8841 320.1105,47.4614 325.9377,45.1118 331.7941,42.8355 337.6785,40.6331 343.5902,38.5047 349.5282,36.4508 355.4915,34.4717 361.4792,32.5677 367.4904,30.7391 373.524,28.9862 379.5792,27.3092 385.6551,25.7084 391.7505,24.1841 397.8646,22.7366 403.9964,21.3659 410.145,20.0725 416.3093,18.8564 422.4885,17.7178 428.6814,16.657 434.8872,15.6741 441.1049,14.7693 447.3334,13.9426 453.5718,13.1943 459.8191,12.5245 466.0744,11.9332 472.3366,11.4205 478.6047,10.9866 484.8778,10.6315 491.1549,10.3553 497.435,10.1579 503.717,10.0395 510.0,10.0 516.283,10.0395 522.565,10.1579 528.8451,10.3553 535.1222,10.6315 541.3953,10.9866 547.6634,11.4205 553.9256,11.9332 560.1809,12.5245 566.4282,13.1943 572.6666,13.9426 578.8951,14.7693 585.1128,15.6741 591.3186,16.657 597.5115,17.7178 603.6907,18.8564 609.855,20.0725 616.0036,21.3659 622.1354,22.7366 628.2495,24.1841 634.3449,25.7084 640.4208,27.3092 646.476,28.9862 652.5096,30.7391 658.5208,32.5677 664.5085,34.4717 670.4718,36.4508 676.4098,38.5047 682.3215,40.6331 688.2059,42.8355 694.0623,45.1118 699.8895,47.4614 705.6868,49.8841 711.4532,52.3794 717.1878,54.947 722.8896,57.5865 728.5579,60.2974 734.1916,63.0793 739.7899,65.9318 745.352,68.8544 750.8768,71.8467 756.3637,74.9081 761.8116,78.0383 767.2198,81.2367 772.5873,84.5028 777.9134,87.836 783.1972,91.236 788.4378,94.7021 793.6345,98.2337 798.7864,101.8304 803.8926,105.4915 808.9525,109.2165 813.9651,113.0048 818.9298,116.8558 823.8457,120.7688 828.712,124.7434 833.528,128.7787 838.2929,132.8743 843.0059,137.0294 847.6664,141.2434 852.2736,145.5157 856.8267,149.8455 861.325,154.2322 865.7678,158.675 870.1545,163.1733 874.4843,167.7264 878.7566,172.3336 882.9706,176.9941 887.1257,181.7071 891.2213,186.472 895.2566,191.288 899.2312,196.1543 903.1442,201.0702 906.9952,206.0349 910.7835,211.0475 914.5085,216.1074 918.1696,221.2136 921.7663,226.3655 925.2979,231.5622 928.764,236.8028 932.164,242.0866 935.4972,247.4127 938.7633,252.7802 941.9617,258.1884 945.0919,263.6363 948.1533,269.1232 951.1456,274.648 954.0682,280.2101 956.9207,285.8084 959.7026,291.4421 962.4135,297.1104 965.053,302.8122 967.6206,308.5468 970.1159,314.3132 972.5386,320.1105 974.8882,325.9377 977.1645,331.7941 979.3669,337.6785 981.4953,343.5902 983.5492,349.5282 985.5283,355.4915 987.4323,361.4792 989.2609,367.4904 991.0138,373.524 992.6908,379.5792 994.2916,385.6551 995.8159,391.7505 997.2634,397.8646 998.6341,403.9964 999.9275,410.145 1001.1436,416.3093 1002.2822,422.4885 1003.343,428.6814 1004.3259,434.8872 1005.2307,441.1049 1006.0574,447.3334 1006.8057,453.5718 1007.4755,459.8191 1008.0668,466.0744 1008.5795,472.3366 1009.0134,478.6047 1009.3685,484.8778 1009.6447,491.1549 1009.8421,497.435 1009.9605,503.717 1010.0,510.0" stroke="gray" stroke-width="2" /><polyline fill="none" points="10.0,510.0 10.0395,516.283 10.1579,522.565 10.3553,528.8451 10.6315,535.1222 10.9866,541.3953 11.4205,547.6634 11.9332,553.9256 12.5245,560.1809 13.1943,566.4282 13.9426,572.6666 14.7693,578.8951 15.6741,585.1128 16.657,591.3186 17.7178,597.5115 18.8564,603.6907 20.0725,609.855 21.3659,616.0036 22.7366,622.1354 24.1841,628.2495 25.7084,634.3449 27.3092,640.4208 28.9862,646.476 30.7391,652.5096 32.5677,658.5208 34.4717,664.5085 36.4508,670.4718 38.5047,676.4098 40.6331,682.3215 42.8355,688.2059 45.1118,694.0623 47.4614,699.8895 49.8841,705.6868 52.3794,711.4532 54.947,717.1878 57.5865,722.8896 60.2974,728.5579 63.0793,734.1916 65.9318,739.7899 68.8544,745.352 71.8467,750.8768 74.9081,756.3637 78.0383,761.8116 81.2367,767.2198 84.5028,772.5873 87.836,777.9134 91.236,783.1972 94.7021,788.4378 98.2337,793.6345 101.8304,798.7864 105.4915,803.8926 109.2165,808.9525 113.0048,813.9651 116.8558,818.9298 120.7688,823.8457 124.7434,828.712 128.7787,833.528 132.8743,838.2929 137.0294,843.0059 141.2434,847.6664 145.5157,852.2736 149.8455,856.8267 154.2322,861.325 158.675,865.7678 163.1733,870.1545 167.7264,874.4843 172.3336,878.7566 176.9941,882.9706 181.7071,887.1257 186.472,891.2213 191.288,895.2566 196.1543,899.2312 201.0702,903.1442 206.0349,906.9952 211.0475,910.7835 216.1074,914.5085 221.2136,918.1696 226.3655,921.7663 231.5622,925.2979 236.8028,928.764 242.0866,932.164 247.4127,935.4972 252.7802,938.7633 258.1884,941.9617 263.6363,945.0919 269.1232,948.1533 274.648,951.1456 280.2101,954.0682 285.8084,956.9207 291.4421,959.7026 297.1104,962.4135 302.8122,965.053 308.5468,967.6206 314.3132,970.1159 320.1105,972.5386 325.9377,974.8882 331.7941,977.1645 337.6785,979.3669 343.5902,981.4953 349.5282,983.5492 355.4915,985.5283 361.4792,987.4323 367.4904,989.2609 373.524,991.0138 379.5792,992.6908 385.6551,994.2916 391.7505,995.8159 397.8646,997.2634 403.9964,998.6341 410.145,999.9275 416.3093,1001.1436 422.4885,1002.2822 428.6814,1003.343 434.8872,1004.3259 441.1049,1005.2307 447.3334,1006.0574 453.5718,1006.8057 459.8191,1007.4755 466.0744,1008.0668 472.3366,1008.5795 478.6047,1009.0134 484.8778,1009.3685 491.1549,1009.6447 497.435,1009.8421 503.717,1009.9605 510.0,1010.0 516.283,1009.9605 522.565,1009.8421 528.8451,1009.6447 535.1222,1009.3685 541.3953,1009.0134 547.6634,1008.5795 553.9256,1008.0668 560.1809,1007.4755 566.4282,1006.8057 572.6666,1006.0574 578.8951,1005.2307 585.1128,1004.3259 591.3186,1003.343 597.5115,1002.2822 603.6907,1001.1436 609.855,999.9275 616.0036,998.6341 622.1354,997.2634 628.2495,995.8159 634.3449,994.2916 640.4208,992.6908 646.476,991.0138 652.5096,989.2609 658.5208,987.4323 664.5085,985.5283 670.4718,983.5492 676.4098,981.4953 682.3215,979.3669 688.2059,977.1645 694.0623,974.8882 699.8895,972.5386 705.6868,970.1159 711.4532,967.6206 717.1878,965.053 722.8896,962.4135 728.5579,959.7026 734.1916,956.9207 739.7899,954.0682 745.352,951.1456 750.8768,948.1533 756.3637,945.0919 761.8116,941.9617 767.2198,938.7633 772.5873,935.4972 777.9134,932.164 783.1972,928.764 788.4378,925.2979 793.6345,921.7663 798.7864,918.1696 803.8926,914.5085 808.9525,910.7835 813.9651,906.9952 818.9298,903.1442 823.8457,899.2312 828.712,895.2566 833.528,891.2213 838.2929,887.1257 843.0059,882.9706 847.6664,878.7566 852.2736,874.4843 856.8267,870.1545 861.325,865.7678 865.7678,861.325 870.1545,856.8267 874.4843,852.2736 878.7566,847.6664 882.9706,843.0059 887.1257,838.2929 891.2213,833.528 895.2566,828.712 899.2312,823.8457 903.1442,818.9298 906.9952,813.9651 910.7835,808.9525 914.5085,803.8926 918.1696,798.7864 921.7663,793.6345 925.2979,788.4378 928.764,783.1972 932.164,777.9134 935.4972,772.5873 938.7633,767.2198 941.9617,761.8116 945.0919,756.3637 948.1533,750.8768 951.1456,745.352 954.0682,739.7899 956.9207,734.1916 959.7026,728.5579 962.4135,722.8896 965.053,717.1878 967.6206,711.4532 970.1159,705.6868 972.5386,699.8895 974.8882,694.0623 977.1645,688.2059 979.3669,682.3215 981.4953,676.4098 983.5492,670.4718 985.5283,664.5085 987.4323,658.5208 989.2609,652.5096 991.0138,646.476 992.6908,640.4208 994.2916,634.3449 995.8159,628.2495 997.2634,622.1354 998.6341,616.0036 999.9275,609.855 1001.1436,603.6907 1002.2822,597.5115 1003.343,591.3186 1004.3259,585.1128 1005.2307,578.8951 1006.0574,572.6666 1006.8057,566.4282 1007.4755,560.1809 1008.0668,553.9256 1008.5795,547.6634 1009.0134,541.3953 1009.3685,535.1222 1009.6447,528.8451 1009.8421,522.565 1009.9605,516.283 1010.0,510.0 1010.0,510.0 1009.9605,503.717 1009.8421,497.435 1009.6447,491.1549 1009.3685,484.8778 1009.0134,478.6047 1008.5795,472.3366 1008.0668,466.0744 1007.4755,459.8191 1006.8057,453.5718 1006.0574,447.3334 1005.2307,441.1049 1004.3259,434.8872 1003.343,428.6814 1002.2822,422.4885 1001.1436,416.3093 999.9275,410.145 998.6341,403.9964 997.2634,397.8646 995.8159,391.7505 994.2916,385.6551 992.6908,379.5792 991.0138,373.524 989.2609,367.4904 987.4323,361.4792 985.5283,355.4915 983.5492,349.5282 981.4953,343.5902 979.3669,337.6785 977.1645,331.7941 974.8882,325.9377 972.5386,320.1105 970.1159,314.3132 967.6206,308.5468 965.053,302.8122 962.4135,297.1104 959.7026,291.4421 956.9207,285.8084 954.0682,280.2101 951.1456,274.648 948.1533,269.1232 945.0919,263.6363 941.9617,258.1884 938.7633,252.7802 935.4972,247.4127 932.164,242.0866 928.764,236.8028 925.2979,231.5622 921.7663,226.3655 918.1696,221.2136 914.5085,216.1074 910.7835,211.0475 906.9952,206.0349 903.1442,201.0702 899.2312,196.1543 895.2566,191.288 891.2213,186.472 887.1257,181.7071 882.9706,176.9941 878.7566,172.3336 874.4843,167.7264 870.1545,163.1733 865.7678,158.675 861.325,154.2322 856.8267,149.8455 852.2736,145.5157 847.6664,141.2434 843.0059,137.0294 838.2929,132.8743 833.528,128.7787 828.712,124.7434 823.8457,120.7688 818.9298,116.8558 813.9651,113.0048 808.9525,109.2165 803.8926,105.4915 798.7864,101.8304 793.6345,98.2337 788.4378,94.7021 783.1972,91.236 777.9134,87.836 772.5873,84.5028 767.2198,81.2367 761.8116,78.0383 756.3637,74.9081 750.8768,71.8467 745.352,68.8544 739.7899,65.9318 734.1916,63.0793 728.5579,60.2974 722.8896,57.5865 717.1878,54.947 711.4532,52.3794 705.6868,49.8841 699.8895,47.4614 694.0623,45.1118 688.2059,42.8355 682.3215,40.6331 676.4098,38.5047 670.4718,36.4508 664.5085,34.4717 658.5208,32.5677 652.5096,30.7391 646.476,28.9862 640.4208,27.3092 634.3449,25.7084 628.2495,24.1841 622.1354,22.7366 616.0036,21.3659 609.855,20.0725 603.6907,18.8564 597.5115,17.7178 591.3186,16.657 585.1128,15.6741 578.8951,14.7693 572.6666,13.9426 566.4282,13.1943 560.1809,12.5245 553.9256,11.9332 547.6634,11.4205 541.3953,10.9866 535.1222,10.6315 528.8451,10.3553 522.565,10.1579 516.283,10.0395 510.0,10.0 503.717,10.0395 497.435,10.1579 491.1549,10.3553 484.8778,10.6315 478.6047,10.9866 472.3366,11.4205 466.0744,11.9332 459.8191,12.5245 453.5718,13.1943 447.3334,13.9426 441.1049,14.7693 434.8872,15.6741 428.6814,16.657 422.4885,17.7178 416.3093,18.8564 410.145,20.0725 403.9964,21.3659 397.8646,22.7366 391.7505,24.1841 385.6551,25.7084 379.5792,27.3092 373.524,28.9862 367.4904,30.7391 361.4792,32.5677 355.4915,34.4717 349.5282,36.4508 343.5902,38.5047 337.6785,40.6331 331.7941,42.8355 325.9377,45.1118 320.1105,47.4614 314.3132,49.8841 308.5468,52.3794 302.8122,54.947 297.1104,57.5865 291.4421,60.2974 285.8084,63.0793 280.2101,65.9318 274.648,68.8544 269.1232,71.8467 263.6363,74.9081 258.1884,78.0383 252.7802,81.2367 247.4127,84.5028 242.0866,87.836 236.8028,91.236 231.5622,94.7021 226.3655,98.2337 221.2136,101.8304 216.1074,105.4915 211.0475,109.2165 206.0349,113.0048 201.0702,116.8558 196.1543,120.7688 191.288,124.7434 186.472,128.7787 181.7071,132.8743 176.9941,137.0294 172.3336,141.2434 167.7264,145.5157 163.1733,149.8455 158.675,154.2322 154.2322,158.675 149.8455,163.1733 145.5157,167.7264 141.2434,172.3336 137.0294,176.9941 132.8743,181.7071 128.7787,186.472 124.7434,191.288 120.7688,196.1543 116.8558,201.0702 113.0048,206.0349 109.2165,211.0475 105.4915,216.1074 101.8304,221.2136 98.2337,226.3655 94.7021,231.5622 91.236,236.8028 87.836,242.0866 84.5028,247.4127 81.2367,252.7802 78.0383,258.1884 74.9081,263.6363 71.8467,269.1232 68.8544,274.648 65.9318,280.2101 63.0793,285.8084 60.2974,291.4421 57.5865,297.1104 54.947,302.8122 52.3794,308.5468 49.8841,314.3132 47.4614,320.1105 45.1118,325.9377 42.8355,331.7941 40.6331,337.6785 38.5047,343.5902 36.4508,349.5282 34.4717,355.4915 32.5677,361.4792 30.7391,367.4904 28.9862,373.524 27.3092,379.5792 25.7084,385.6551 24.1841,391.7505 22.7366,397.8646 21.3659,403.9964 20.0725,410.145 18.8564,416.3093 17.7178,422.4885 16.657,428.6814 15.6741,434.8872 14.7693,441.1049 13.9426,447.3334 13.1943,453.5718 12.5245,459.8191 11.9332,466.0744 11.4205,472.3366 10.9866,478.6047 10.6315,484.8778 10.3553,491.1549 10.1579,497.435 10.0395,503.717" stroke="blue" stroke-width="5" /></svg>