<?xml version="1.0" encoding="utf-8" ?>
<svg baseProfile="tiny" height="1020.0" version="1.2" width="420.0" xmlns="http://www.w3.org/2000/svg" xmlns:ev="http://www.w3.org/2001/xml-events" xmlns:xlink="http://www.w3.org/1999/xlink"><defs /><polyline fill="none" points="110.0,10.0 110.0316,10.0 110.1263,10.0 110.2841,10.0 110.5049,10.0 110.7885,10.0 111.1348,10.0 111.5436,10.0 112.0145,10.0 112.5473,10.0 113.1417,10.0 113.7972,10.0 114.5135,10.0 115.2902,10.0 116.1266,10.0 117.0224,10.0 117.9768,10.0 118.9894,10.0 120.0595,10.0 121.1864,10.0 122.3693,10.0 123.6077,10.0 124.9006,10.0 126.2472,10.0 127.6467,10.0 129.0983,10.0 130.601,10.0 132.1538,10.0 133.7557,10.0 135.4059,10.0 137.1031,10.0 138.8464,10.0 140.6347,10.0 142.4667,10.0 144.3414,10.0 146.2576,10.0 148.214,10.0 150.2095,10.0 152.2427,10.0 154.3124,10.0 156.4173,10.0 158.556,10.0 160.7273,10.0 162.9296,10.0 165.1617,10.0 167.4221,10.0 169.7094,10.0 172.0221,10.0 174.3588,10.0 176.718,10.0 179.0983,10.0 181.4981,10.0 183.9158,10.0 186.3501,10.0 188.7993,10.0 191.2619,10.0 193.7363,10.0 196.221,10.0 198.7144,10.0 201.2149,10.0 203.7209,10.0 206.231,10.0 208.7434,10.0 211.2566,10.0 213.769,10.0 216.2791,10.0 218.7851,10.0 221.2856,10.0 223.779,10.0 226.2637,10.0 228.7381,10.0 231.2007,10.0 233.6499,10.0 236.0842,10.0 238.5019,10.0 240.9017,10.0 243.282,10.0 245.6412,10.0 247.9779,10.0 250.2906,10.0 252.5779,10.0 254.8383,10.0 257.0704,10.0 259.2727,10.0 261.444,10.0 263.5827,10.0 265.6876,10.0 267.7573,10.0 269.7905,10.0 271.786,10.0 273.7424,10.0 275.6586,10.0 277.5333,10.0 279.3653,10.0 281.1536,10.0 282.8969,10.0 284.5941,10.0 286.2443,10.0 287.8462,10.0 289.399,10.0 290.9017,10.0 292.3533,10.0 293.7528,10.0 295.0994,10.0 296.3923,10.0 297.6307,10.0 298.8136,10.0 299.9405,10.0 301.0106,10.0 302.0232,10.0 302.9776,10.0 303.8734,10.0 304.7098,10.0 305.4865,10.0 306.2028,10.0 306.8583,10.0 307.4527,10.0 307.9855,10.0 308.4564,10.0 308.8652,10.0 309.2115,10.0 309.4951,10.0 309.7159,10.0 309.8737,10.0 309.9684,10.0 310.0,10.0 309.9684,10.0 309.8737,10.0 309.7159,10.0 309.4951,10.0 309.2115,10.0 308.8652,10.0 308.4564,10.0 307.9855,10.0 307.4527,10.0 306.8583,10.0 306.2028,10.0 305.4865,10.0 304.7098,10.0 303.8734,10.0 302.9776,10.0 302.0232,10.0 301.0106,10.0 299.9405,10.0 298.8136,10.0 297.6307,10.0 296.3923,10.0 295.0994,10.0 293.7528,10.0 292.3533,10.0 290.9017,10.0 289.399,10.0 287.8462,10.0 286.2443,10.0 284.5941,10.0 282.8969,10.0 281.1536,10.0 279.3653,10.0 277.5333,10.0 275.6586,10.0 273.7424,10.0 271.786,10.0 269.7905,10.0 267.7573,10.0 265.6876,10.0 263.5827,10.0 261.444,10.0 259.2727,10.0 257.0704,10.0 254.8383,10.0 252.5779,10.0 250.2906,10.0 247.9779,10.0 245.6412,10.0 243.282,10.0 240.9017,10.0 238.5019,10.0 236.0842,10.0 233.6499,10.0 231.2007,10.0 228.7381,10.0 226.2637,10.0 223.779,10.0 221.2856,10.0 218.7851,10.0 216.2791,10.0 213.769,10.0 211.2566,10.0 208.7434,10.0 206.231,10.0 203.7209,10.0 201.2149,10.0 198.7144,10.0 196.221,10.0 193.7363,10.0 191.2619,10.0 188.7993,10.0 186.3501,10.0 183.9158,10.0 181.4981,10.0 179.0983,10.0 176.718,10.0 174.3588,10.0 172.0221,10.0 169.7094,10.0 167.4221,10.0 165.1617,10.0 162.9296,10.0 160.7273,10.0 158.556,10.0 156.4173,10.0 154.3124,10.0 152.2427,10.0 150.2095,10.0 148.214,10.0 146.2576,10.0 144.3414,10.0 142.4667,10.0 140.6347,10.0 138.8464,10.0 137.1031,10.0 135.4059,10.0 133.7557,10.0 132.1538,10.0 130.601,10.0 129.0983,10.0 127.6467,10.0 126.2472,10.0 124.9006,10.0 123.6077,10.0 122.3693,10.0 121.1864,10.0 120.0595,10.0 118.9894,10.0 117.9768,10.0 117.0224,10.0 116.1266,10.0 115.2902,10.0 114.5135,10.0 113.7972,10.0 113.1417,10.0 112.5473,10.0 112.0145,10.0 111.5436,10.0 111.1348,10.0 110.7885,10.0 110.5049,10.0 110.2841,10.0 110.1263,10.0 110.0316,10.0 110.0,10.0" stroke="gray" stroke-width="2" /><polyline fill="none" points="10.0,1010.0 12.0,990.0 14.0,970.0 16.0,950.0 18.0,930.0 20.0,910.0 22.0,890.0 24.0,870.0 26.0,850.0 28.0,830.0 30.0,810.0 32.0,790.0 34.0,770.0 36.0,750.0 38.0,730.0 40.0,710.0 42.0,690.0 44.0,670.0 46.0,650.0 48.0,630.0 50.0,610.0 52.0,590.0 54.0,570.0 56.0,550.0 58.0,530.0 60.0,510.0 62.0,490.0 64.0,470.0 66.0,450.0 68.0,430.0 70.0,410.0 72.0,390.0 74.0,370.0 76.0,350.0 78.0,330.0 80.0,310.0 82.0,290.0 84.0,270.0 86.0,250.0 88.0,230.0 90.0,210.0 92.0,190.0 94.0,170.0 96.0,150.0 98.0,130.0 100.0,110.0 102.0,90.0 104.0,70.0 106.0,50.0 108.0,30.0 110.0,10.0" stroke="gray" stroke-width="2" /><polyline fill="none" points="10.0,1010.0 10.0158,1010.0 10.0632,1010.0 10.1421,1010.0 10.2526,1010.0 10.3947,1010.0 10.5682,1010.0 10.7733,1010.0 11.0098,1010.0 11.2777,1010.0 11.5771,1010.0 11.9077,1010.0 12.2697,1010.0 12.6628,1010.0 13.0871,1010.0 13.5425,1010.0 14.029,1010.0 14.5464,1010.0 15.0946,1010.0 15.6737,1010.0 16.2834,1010.0 16.9237,1010.0 17.5945,1010.0 18.2956,1010.0 19.0271,1010.0 19.7887,1010.0 20.5803,1010.0 21.4019,1010.0 22.2532,1010.0 23.1342,1010.0 24.0447,1010.0 24.9846,1010.0 25.9536,1010.0 26.9518,1010.0 27.9788,1010.0 29.0346,1010.0 30.1189,1010.0 31.2317,1010.0 32.3727,1010.0 33.5418,1010.0 34.7387,1010.0 35.9632,1010.0 37.2153,1010.0 38.4947,1010.0 39.8011,1010.0 41.1344,1010.0 42.4944,1010.0 43.8808,1010.0 45.2935,1010.0 46.7321,1010.0 48.1966,1010.0 49.6866,1010.0 51.2019,1010.0 52.7423,1010.0 54.3075,1010.0 55.8974,1010.0 57.5115,1010.0 59.1497,1010.0 60.8118,1010.0 62.4974,1010.0 64.2063,1010.0 65.9382,1010.0 67.6929,1010.0 69.47,1010.0 71.2693,1010.0 73.0906,1010.0 74.9334,1010.0 76.7976,1010.0 78.6828,1010.0 80.5888,1010.0 82.5152,1010.0 84.4617,1010.0 86.4281,1010.0 88.4139,1010.0 90.419,1010.0 92.4429,1010.0 94.4855,1010.0 96.5462,1010.0 98.6249,1010.0 100.7211,1010.0 102.8346,1010.0 104.9651,1010.0 107.1121,1010.0 109.2754,1010.0 111.4545,1010.0 113.6493,1010.0 115.8592,1010.0 118.084,1010.0 120.3234,1010.0 122.5768,1010.0 124.8441,1010.0 127.1249,1010.0 129.4187,1010.0 131.7253,1010.0 134.0442,1010.0 136.3751,1010.0 138.7176,1010.0 141.0714,1010.0 143.4361,1010.0 145.8113,1010.0 148.1966,1010.0 150.5917,1010.0 152.9961,1010.0 155.4096,1010.0 157.8317,1010.0 160.262,1010.0 162.7002,1010.0 165.1458,1010.0 167.5986,1010.0 170.058,1010.0 172.5237,1010.0 174.9954,1010.0 177.4726,1010.0 179.9549,1010.0 182.4419,1010.0 184.9334,1010.0 187.4287,1010.0 189.9277,1010.0 192.4298,1010.0 194.9346,1010.0 197.4419,1010.0 199.9511,1010.0 202.462,1010.0 204.974,1010.0 207.4868,1010.0 210.0,1010.0 212.5132,1010.0 215.026,1010.0 217.538,1010.0 220.0489,1010.0 222.5581,1010.0 225.0654,1010.0 227.5702,1010.0 230.0723,1010.0 232.5713,1010.0 235.0666,1010.0 237.5581,1010.0 240.0451,1010.0 242.5274,1010.0 245.0046,1010.0 247.4763,1010.0 249.942,1010.0 252.4014,1010.0 254.8542,1010.0 257.2998,1010.0 259.738,1010.0 262.1683,1010.0 264.5904,1010.0 267.0039,1010.0 269.4083,1010.0 271.8034,1010.0 274.1887,1010.0 276.5639,1010.0 278.9286,1010.0 281.2824,1010.0 283.6249,1010.0 285.9558,1010.0 288.2747,1010.0 290.5813,1010.0 292.8751,1010.0 295.1559,1010.0 297.4232,1010.0 299.6766,1010.0 301.916,1010.0 304.1408,1010.0 306.3507,1010.0 308.5455,1010.0 310.7246,1010.0 312.8879,1010.0 315.0349,1010.0 317.1654,1010.0 319.2789,1010.0 321.3751,1010.0 323.4538,1010.0 325.5145,1010.0 327.5571,1010.0 329.581,1010.0 331.5861,1010.0 333.5719,1010.0 335.5383,1010.0 337.4848,1010.0 339.4112,1010.0 341.3172,1010.0 343.2024,1010.0 345.0666,1010.0 346.9094,1010.0 348.7307,1010.0 350.53,1010.0 352.3071,1010.0 354.0618,1010.0 355.7937,1010.0 357.5026,1010.0 359.1882,1010.0 360.8503,1010.0 362.4885,1010.0 364.1026,1010.0 365.6925,1010.0 367.2577,1010.0 368.7981,1010.0 370.3134,1010.0 371.8034,1010.0 373.2679,1010.0 374.7065,1010.0 376.1192,1010.0 377.5056,1010.0 378.8656,1010.0 380.1989,1010.0 381.5053,1010.0 382.7847,1010.0 384.0368,1010.0 385.2613,1010.0 386.4582,1010.0 387.6273,1010.0 388.7683,1010.0 389.8811,1010.0 390.9654,1010.0 392.0212,1010.0 393.0482,1010.0 394.0464,1010.0 395.0154,1010.0 395.9553,1010.0 396.8658,1010.0 397.7468,1010.0 398.5981,1010.0 399.4197,1010.0 400.2113,1010.0 400.9729,1010.0 401.7044,1010.0 402.4055,1010.0 403.0763,1010.0 403.7166,1010.0 404.3263,1010.0 404.9054,1010.0 405.4536,1010.0 405.971,1010.0 406.4575,1010.0 406.9129,1010.0 407.3372,1010.0 407.7303,1010.0 408.0923,1010.0 408.4229,1010.0 408.7223,1010.0 408.9902,1010.0 409.2267,1010.0 409.4318,1010.0 409.6053,1010.0 409.7474,1010.0 409.8579,1010.0 409.9368,1010.0 409.9842,1010.0 410.0,1010.0 409.9842,1010.0 409.9368,1010.0 409.8579,1010.0 409.7474,1010.0 409.6053,1010.0 409.4318,1010.0 409.2267,1010.0 408.9902,1010.0 408.7223,1010.0 408.4229,1010.0 408.0923,1010.0 407.7303,1010.0 407.3372,1010.0 406.9129,1010.0 406.4575,1010.0 405.971,1010.0 405.4536,1010.0 404.9054,1010.0 404.3263,1010.0 403.7166,1010.0 403.0763,1010.0 402.4055,1010.0 401.7044,1010.0 400.9729,1010.0 400.2113,1010.0 399.4197,1010.0 398.5981,1010.0 397.7468,1010.0 396.8658,1010.0 395.9553,1010.0 395.0154,1010.0 394.0464,1010.0 393.0482,1010.0 392.0212,1010.0 390.9654,1010.0 389.8811,1010.0 388.7683,1010.0 387.6273,1010.0 386.4582,1010.0 385.2613,1010.0 384.0368,1010.0 382.7847,1010.0 381.5053,1010.0 380.1989,1010.0 378.8656,1010.0 377.5056,1010.0 376.1192,1010.0 374.7065,1010.0 373.2679,1010.0 371.8034,1010.0 370.3134,1010.0 368.7981,1010.0 367.2577,1010.0 365.6925,1010.0 364.1026,1010.0 362.4885,1010.0 360.8503,1010.0 359.1882,1010.0 357.5026,1010.0 355.7937,1010.0 354.0618,1010.0 352.3071,1010.0 350.53,1010.0 348.7307,1010.0 346.9094,1010.0 345.0666,1010.0 343.2024,1010.0 341.3172,1010.0 339.4112,1010.0 337.4848,1010.0 335.5383,1010.0 333.5719,1010.0 331.5861,1010.0 329.581,1010.0 327.5571,1010.0 325.5145,1010.0 323.4538,1010.0 321.3751,1010.0 319.2789,1010.0 317.1654,1010.0 315.0349,1010.0 312.8879,1010.0 310.7246,1010.0 308.5455,1010.0 306.3507,1010.0 304.1408,1010.0 301.916,1010.0 299.6766,1010.0 297.4232,1010.0 295.1559,1010.0 292.8751,1010.0 290.5813,1010.0 288.2747,1010.0 285.9558,1010.0 283.6249,1010.0 281.2824,1010.0 278.9286,1010.0 276.5639,1010.0 274.1887,1010.0 271.8034,1010.0 269.4083,1010.0 267.0039,1010.0 264.5904,1010.0 262.1683,1010.0 259.738,1010.0 257.2998,1010.0 254.8542,1010.0 252.4014,1010.0 249.942,1010.0 247.4763,1010.0 245.0046,1010.0 242.5274,1010.0 240.0451,1010.0 237.5581,1010.0 235.0666,1010.0 232.5713,1010.0 230.0723,1010.0 227.5702,1010.0 225.0654,1010.0 222.5581,1010.0 220.0489,1010.0 217.538,1010.0 215.026,1010.0 212.5132,1010.0 210.0,1010.0 207.4868,1010.0 204.974,1010.0 202.462,1010.0 199.9511,1010.0 197.4419,1010.0 194.9346,1010.0 192.4298,1010.0 189.9277,1010.0 187.4287,1010.0 184.9334,1010.0 182.4419,1010.0 179.9549,1010.0 177.4726,1010.0 174.9954,1010.0 172.5237,1010.0 170.058,1010.0 167.5986,1010.0 165.1458,1010.0 162.7002,1010.0 160.262,1010.0 157.8317,1010.0 155.4096,1010.0 152.9961,1010.0 150.5917,1010.0 148.1966,1010.0 145.8113,1010.0 143.4361,1010.0 141.0714,1010.0 138.7176,1010.0 136.3751,1010.0 134.0442,1010.0 131.7253,1010.0 129.4187,1010.0 127.1249,1010.0 124.8441,1010.0 122.5768,1010.0 120.3234,1010.0 118.084,1010.0 115.8592,1010.0 113.6493,1010.0 111.4545,1010.0 109.2754,1010.0 107.1121,1010.0 104.9651,1010.0 102.8346,1010.0 100.7211,1010.0 98.6249,1010.0 96.5462,1010.0 94.4855,1010.0 92.4429,1010.0 90.419,1010.0 88.4139,1010.0 86.4281,1010.0 84.4617,1010.0 82.5152,1010.0 80.5888,1010.0 78.6828,1010.0 76.7976,1010.0 74.9334,1010.0 73.0906,1010.0 71.2693,1010.0 69.47,1010.0 67.6929,1010.0 65.9382,1010.0 64.2063,1010.0 62.4974,1010.0 60.8118,1010.0 59.1497,1010.0 57.5115,1010.0 55.8974,1010.0 54.3075,1010.0 52.7423,1010.0 51.2019,1010.0 49.6866,1010.0 48.1966,1010.0 46.7321,1010.0 45.2935,1010.0 43.8808,1010.0 42.4944,1010.0 41.1344,1010.0 39.8011,1010.0 38.4947,1010.0 37.2153,1010.0 35.9632,1010.0 34.7387,1010.0 33.5418,1010.0 32.3727,1010.0 31.2317,1010.0 30.1189,1010.0 29.0346,1010.0 27.9788,1010.0 26.9518,1010.0 25.9536,1010.0 24.9846,1010.0 24.0447,1010.0 23.1342,1010.0 22.2532,1010.0 21.4019,1010.0 20.5803,1010.0 19.7887,1010.0 19.0271,1010.0 18.2956,1010.0 17.5945,1010.0 16.9237,1010.0 16.2834,1010.0 15.6737,1010.0 15.0946,1010.0 14.5464,1010.0 14.029,1010.0 13.5425,1010.0 13.0871,1010.0 12.6628,1010.0 12.2697,1010.0 11.9077,1010.0 11.5771,1010.0 11.2777,1010.0 11.0098,1010.0 10.7733,1010.0 10.5682,1010.0 10.3947,1010.0 10.2526,1010.0 10.1421,1010.0 10.0632,1010.0 10.0158,1010.0 10.0,1010.0" stroke="gray" stroke-width="2" /><polyline fill="none" points="10.0,1010.0 12.0,990.0 14.0,970.0 16.0,950.0 18.0,930.0 20.0,910.0 22.0,890.0 24.0,870.0 26.0,850.0 28.0,830.0 30.0,810.0 32.0,790.0 34.0,770.0 36.0,750.0 38.0,730.0 40.0,710.0 42.0,690.0 44.0,670.0 46.0,650.0 48.0,630.0 50.0,610.0 52.0,590.0 54.0,570.0 56.0,550.0 58.0,530.0 60.0,510.0 62.0,490.0 64.0,470.0 66.0,450.0 68.0,430.0 70.0,410.0 72.0,390.0 74.0,370.0 76.0,350.0 78.0,330.0 80.0,310.0 82.0,290.0 84.0,270.0 86.0,250.0 88.0,230.0 90.0,210.0 92.0,190.0 94.0,170.0 96.0,150.0 98.0,130.0 100.0,110.0 102.0,90.0 104.0,70.0 106.0,50.0 108.0,30.0 110.0,10.0" stroke="gray" stroke-width="2" /><polyline fill="none" points="110.0,10.0 110.0316,10.0 110.1263,10.0 110.2841,10.0 110.5049,10.0 110.7885,10.0 111.1348,10.0 111.5436,10.0 112.0145,10.0 112.5473,10.0 113.1417,10.0 113.7972,10.0 114.5135,10.0 115.2902,10.0 116.1266,10.0 117.0224,10.0 117.9768,10.0 118.9894,10.0 120.0595,10.0 121.1864,10.0 122.3693,10.0 123.6077,10.0 124.9006,10.0 126.2472,10.0 127.6467,10.0 129.0983,10.0 130.601,10.0 132.1538,10.0 133.7557,10.0 135.4059,10.0 137.1031,10.0 138.8464,10.0 140.6347,10.0 142.4667,10.0 144.3414,10.0 146.2576,10.0 148.214,10.0 150.2095,10.0 152.2427,10.0 154.3124,10.0 156.4173,10.0 158.556,10.0 160.7273,10.0 162.9296,10.0 165.1617,10.0 167.4221,10.0 169.7094,10.0 172.0221,10.0 174.3588,10.0 176.718,10.0 179.0983,10.0 181.4981,10.0 183.9158,10.0 186.3501,10.0 188.7993,10.0 191.2619,10.0 193.7363,10.0 196.221,10.0 198.7144,10.0 201.2149,10.0 203.7209,10.0 206.231,10.0 208.7434,10.0 211.2566,10.0 213.769,10.0 216.2791,10.0 218.7851,10.0 221.2856,10.0 223.779,10.0 226.2637,10.0 228.7381,10.0 231.2007,10.0 233.6499,10.0 236.0842,10.0 238.5019,10.0 240.9017,10.0 243.282,10.0 245.6412,10.0 247.9779,10.0 250.2906,10.0 252.5779,10.0 254.8383,10.0 257.0704,10.0 259.2727,10.0 261.444,10.0 263.5827,10.0 265.6876,10.0 267.7573,10.0 269.7905,10.0 271.786,10.0 273.7424,10.0 275.6586,10.0 277.5333,10.0 279.3653,10.0 281.1536,10.0 282.8969,10.0 284.5941,10.0 286.2443,10.0 287.8462,10.0 289.399,10.0 290.9017,10.0 292.3533,10.0 293.7528,10.0 295.0994,10.0 296.3923,10.0 297.6307,10.0 298.8136,10.0 299.9405,10.0 301.0106,10.0 302.0232,10.0 302.9776,10.0 303.8734,10.0 304.7098,10.0 305.4865,10.0 306.2028,10.0 306.8583,10.0 307.4527,10.0 307.9855,10.0 308.4564,10.0 308.8652,10.0 309.2115,10.0 309.4951,10.0 309.7159,10.0 309.8737,10.0 309.9684,10.0 310.0,10.0 309.9684,10.0 309.8737,10.0 309.7159,10.0 309.4951,10.0 309.2115,10.0 308.8652,10.0 308.4564,10.0 307.9855,10.0 307.4527,10.0 306.8583,10.0 306.2028,10.0 305.4865,10.0 304.7098,10.0 303.8734,10.0 302.9776,10.0 302.0232,10.0 301.0106,10.0 299.9405,10.0 298.8136,10.0 297.6307,10.0 296.3923,10.0 295.0994,10.0 293.7528,10.0 292.3533,10.0 290.9017,10.0 289.399,10.0 287.8462,10.0 286.2443,10.0 284.5941,10.0 282.8969,10.0 281.1536,10.0 279.3653,10.0 277.5333,10.0 275.6586,10.0 273.7424,10.0 271.786,10.0 269.7905,10.0 267.7573,10.0 265.6876,10.0 263.5827,10.0 261.444,10.0 259.2727,10.0 257.0704,10.0 254.8383,10.0 252.5779,10.0 250.2906,10.0 247.9779,10.0 245.6412,10.0 243.282,10.0 240.9017,10.0 238.5019,10.0 236.0842,10.0 233.6499,10.0 231.2007,10.0 228.7381,10.0 226.2637,10.0 223.779,10.0 221.2856,10.0 218.7851,10.0 216.2791,10.0 213.769,10.0 211.2566,10.0 208.7434,10.0 206.231,10.0 203.7209,10.0 201.2149,10.0 198.7144,10.0 196.221,10.0 193.7363,10.0 191.2619,10.0 188.7993,10.0 186.3501,10.0 183.9158,10.0 181.4981,10.0 179.0983,10.0 176.718,10.0 174.3588,10.0 172.0221,10.0 169.7094,10.0 167.4221,10.0 165.1617,10.0 162.9296,10.0 160.7273,10.0 158.556,10.0 156.4173,10.0 154.3124,10.0 152.2427,10.0 150.2095,10.0 148.214,10.0 146.2576,10.0 144.3414,10.0 142.4667,10.0 140.6347,10.0 138.8464,10.0 137.1031,10.0 135.4059,10.0 133.7557,10.0 132.1538,10.0 130.601,10.0 129.0983,10.0 127.6467,10.0 126.2472,10.0 124.9006,10.0 123.6077,10.0 122.3693,10.0 121.1864,10.0 120.0595,10.0 118.9894,10.0 117.9768,10.0 117.0224,10.0 116.1266,10.0 115.2902,10.0 114.5135,10.0 113.7972,10.0 113.1417,10.0 112.5473,10.0 112.0145,10.0 111.5436,10.0 111.1348,10.0 110.7885,10.0 110.5049,10.0 110.2841,10.0 110.1263,10.0 110.0316,10.0 110.0,10.0" stroke="gray" stroke-width="2" /><polyline fill="none" points="10.0,1010.0 10.0158,1010.0 10.0632,1010.0 10.1421,1010.0 10.2526,1010.0 10.3947,1010.0 10.5682,1010.0 10.7733,1010.0 11.0098,1010.0 11.2777,1010.0 11.5771,1010.0 11.9077,1010.0 12.2697,1010.0 12.6628,1010.0 13.0871,1010.0 13.5425,1010.0 14.029,1010.0 14.5464,1010.0 15.0946,1010.0 15.6737,1010.0 16.2834,1010.0 16.9237,1010.0 17.5945,1010.0 18.2956,1010.0 19.0271,1010.0 19.7887,1010.0 20.5803,1010.0 21.4019,1010.0 22.2532,1010.0 23.1342,1010.0 24.0447,1010.0 24.9846,1010.0 25.9536,1010.0 26.9518,1010.0 27.9788,1010.0 29.0346,1010.0 30.1189,1010.0 31.2317,1010.0 32.3727,1010.0 33.5418,1010.0 34.7387,1010.0 35.9632,1010.0 37.2153,1010.0 38.4947,1010.0 39.8011,1010.0 41.1344,1010.0 42.4944,1010.0 43.8808,1010.0 45.2935,1010.0 46.7321,1010.0 48.1966,1010.0 49.6866,1010.0 51.2019,1010.0 52.7423,1010.0 54.3075,1010.0 55.8974,1010.0 57.5115,1010.0 59.1497,1010.0 60.8118,1010.0 62.4974,1010.0 64.2063,1010.0 65.9382,1010.0 67.6929,1010.0 69.47,1010.0 71.2693,1010.0 73.0906,1010.0 74.9334,1010.0 76.7976,1010.0 78.6828,1010.0 80.5888,1010.0 82.5152,1010.0 84.4617,1010.0 86.4281,1010.0 88.4139,1010.0 90.419,1010.0 92.4429,1010.0 94.4855,1010.0 96.5462,1010.0 98.6249,1010.0 100.7211,1010.0 102.8346,1010.0 104.9651,1010.0 107.1121,1010.0 109.2754,1010.0 111.4545,1010.0 113.6493,1010.0 115.8592,1010.0 118.084,1010.0 120.3234,1010.0 122.5768,1010.0 124.8441,1010.0 127.1249,1010.0 129.4187,1010.0 131.7253,1010.0 134.0442,1010.0 136.3751,1010.0 138.7176,1010.0 141.0714,1010.0 143.4361,1010.0 145.8113,1010.0 148.1966,1010.0 150.5917,1010.0 152.9961,1010.0 155.4096,1010.0 157.8317,1010.0 160.262,1010.0 162.7002,1010.0 165.1458,1010.0 167.5986,1010.0 170.058,1010.0 172.5237,1010.0 174.9954,1010.0 177.4726,1010.0 179.9549,1010.0 182.4419,1010.0 184.9334,1010.0 187.4287,1010.0 189.9277,1010.0 192.4298,1010.0 194.9346,1010.0 197.4419,1010.0 199.9511,1010.0 202.462,1010.0 204.974,1010.0 207.4868,1010.0 210.0,1010.0 212.5132,1010.0 215.026,1010.0 217.538,1010.0 220.0489,1010.0 222.5581,1010.0 225.0654,1010.0 227.5702,1010.0 230.0723,1010.0 232.5713,1010.0 235.0666,1010.0 237.5581,1010.0 240.0451,1010.0 242.5274,1010.0 245.0046,1010.0 247.4763,1010.0 249.942,1010.0 252.4014,1010.0 254.8542,1010.0 257.2998,1010.0 259.738,1010.0 262.1683,1010.0 264.5904,1010.0 267.0039,1010.0 269.4083,1010.0 271.8034,1010.0 274.1887,1010.0 276.5639,1010.0 278.9286,1010.0 281.2824,1010.0 283.6249,1010.0 285.9558,1010.0 288.2747,1010.0 290.5813,1010.0 292.8751,1010.0 295.1559,1010.0 297.4232,1010.0 299.6766,1010.0 301.916,1010.0 304.1408,1010.0 306.3507,1010.0 308.5455,1010.0 310.7246,1010.0 312.8879,1010.0 315.0349,1010.0 317.1654,1010.0 319.2789,1010.0 321.3751,1010.0 323.4538,1010.0 325.5145,1010.0 327.5571,1010.0 329.581,1010.0 331.5861,1010.0 333.5719,1010.0 335.5383,1010.0 337.4848,1010.0 339.4112,1010.0 341.3172,1010.0 343.2024,1010.0 345.0666,1010.0 346.9094,1010.0 348.7307,1010.0 350.53,1010.0 352.3071,1010.0 354.0618,1010.0 355.7937,1010.0 357.5026,1010.0 359.1882,1010.0 360.8503,1010.0 362.4885,1010.0 364.1026,1010.0 365.6925,1010.0 367.2577,1010.0 368.7981,1010.0 370.3134,1010.0 371.8034,1010.0 373.2679,1010.0 374.7065,1010.0 376.1192,1010.0 377.5056,1010.0 378.8656,1010.0 380.1989,1010.0 381.5053,1010.0 382.7847,1010.0 384.0368,1010.0 385.2613,1010.0 386.4582,1010.0 387.6273,1010.0 388.7683,1010.0 389.8811,1010.0 390.9654,1010.0 392.0212,1010.0 393.0482,1010.0 394.0464,1010.0 395.0154,1010.0 395.9553,1010.0 396.8658,1010.0 397.7468,1010.0 398.5981,1010.0 399.4197,1010.0 400.2113,1010.0 400.9729,1010.0 401.7044,1010.0 402.4055,1010.0 403.0763,1010.0 403.7166,1010.0 404.3263,1010.0 404.9054,1010.0 405.4536,1010.0 405.971,1010.0 406.4575,1010.0 406.9129,1010.0 407.3372,1010.0 407.7303,1010.0 408.0923,1010.0 408.4229,1010.0 408.7223,1010.0 408.9902,1010.0 409.2267,1010.0 409.4318,1010.0 409.6053,1010.0 409.7474,1010.0 409.8579,1010.0 409.9368,1010.0 409.9842,1010.0 410.0,1010.0 409.9842,1010.0 409.9368,1010.0 409.8579,1010.0 409.7474,1010.0 409.6053,1010.0 409.4318,1010.0 409.2267,1010.0 408.9902,1010.0 408.7223,1010.0 408.4229,1010.0 408.0923,1010.0 407.7303,1010.0 407.3372,1010.0 406.9129,1010.0 406.4575,1010.0 405.971,1010.0 405.4536,1010.0 404.9054,1010.0 404.3263,1010.0 403.7166,1010.0 403.0763,1010.0 402.4055,1010.0 401.7044,1010.0 400.9729,1010.0 400.2113,1010.0 399.4197,1010.0 398.5981,1010.0 397.7468,1010.0 396.8658,1010.0 395.9553,1010.0 395.0154,1010.0 394.0464,1010.0 393.0482,1010.0 392.0212,1010.0 390.9654,1010.0 389.8811,1010.0 388.7683,1010.0 387.6273,1010.0 386.4582,1010.0 385.2613,1010.0 384.0368,1010.0 382.7847,1010.0 381.5053,1010.0 380.1989,1010.0 378.8656,1010.0 377.5056,1010.0 376.1192,1010.0 374.7065,1010.0 373.2679,1010.0 371.8034,1010.0 370.3134,1010.0 368.7981,1010.0 367.2577,1010.0 365.6925,1010.0 364.1026,1010.0 362.4885,1010.0 360.8503,1010.0 359.1882,1010.0 357.5026,1010.0 355.7937,1010.0 354.0618,1010.0 352.3071,1010.0 350.53,1010.0 348.7307,1010.0 346.9094,1010.0 345.0666,1010.0 343.2024,1010.0 341.3172,1010.0 339.4112,1010.0 337.4848,1010.0 335.5383,1010.0 333.5719,1010.0 331.5861,1010.0 329.581,1010.0 327.5571,1010.0 325.5145,1010.0 323.4538,1010.0 321.3751,1010.0 319.2789,1010.0 317.1654,1010.0 315.0349,1010.0 312.8879,1010.0 310.7246,1010.0 308.5455,1010.0 306.3507,1010.0 304.1408,1010.0 301.916,1010.0 299.6766,1010.0 297.4232,1010.0 295.1559,1010.0 292.8751,1010.0 290.5813,1010.0 288.2747,1010.0 285.9558,1010.0 283.6249,1010.0 281.2824,1010.0 278.9286,1010.0 276.5639,1010.0 274.1887,1010.0 271.8034,1010.0 269.4083,1010.0 267.0039,1010.0 264.5904,1010.0 262.1683,1010.0 259.738,1010.0 257.2998,1010.0 254.8542,1010.0 252.4014,1010.0 249.942,1010.0 247.4763,1010.0 245.0046,1010.0 242.5274,1010.0 240.0451,1010.0 237.5581,1010.0 235.0666,1010.0 232.5713,1010.0 230.0723,1010.0 227.5702,1010.0 225.0654,1010.0 222.5581,1010.0 220.0489,1010.0 217.538,1010.0 215.026,1010.0 212.5132,1010.0 210.0,1010.0 207.4868,1010.0 204.974,1010.0 202.462,1010.0 199.9511,1010.0 197.4419,1010.0 194.9346,1010.0 192.4298,1010.0 189.9277,1010.0 187.4287,1010.0 184.9334,1010.0 182.4419,1010.0 179.9549,1010.0 177.4726,1010.0 174.9954,1010.0 172.5237,1010.0 170.058,1010.0 167.5986,1010.0 165.1458,1010.0 162.7002,1010.0 160.262,1010.0 157.8317,1010.0 155.4096,1010.0 152.9961,1010.0 150.5917,1010.0 148.1966,1010.0 145.8113,1010.0 143.4361,1010.0 141.0714,1010.0 138.7176,1010.0 136.3751,1010.0 134.0442,1010.0 131.7253,1010.0 129.4187,1010.0 127.1249,1010.0 124.8441,1010.0 122.5768,1010.0 120.3234,1010.0 118.084,1010.0 115.8592,1010.0 113.6493,1010.0 111.4545,1010.0 109.2754,1010.0 107.1121,1010.0 104.9651,1010.0 102.8346,1010.0 100.7211,1010.0 98.6249,1010.0 96.5462,1010.0 94.4855,1010.0 92.4429,1010.0 90.419,1010.0 88.4139,1010.0 86.4281,1010.0 84.4617,1010.0 82.5152,1010.0 80.5888,1010.0 78.6828,1010.0 76.7976,1010.0 74.9334,1010.0 73.0906,1010.0 71.2693,1010.0 69.47,1010.0 67.6929,1010.0 65.9382,1010.0 64.2063,1010.0 62.4974,1010.0 60.8118,1010.0 59.1497,1010.0 57.5115,1010.0 55.8974,1010.0 54.3075,1010.0 52.7423,1010.0 51.2019,1010.0 49.6866,1010.0 48.1966,1010.0 46.7321,1010.0 45.2935,1010.0 43.8808,1010.0 42.4944,1010.0 41.1344,1010.0 39.8011,1010.0 38.4947,1010.0 37.2153,1010.0 35.9632,1010.0 34.7387,1010.0 33.5418,1010.0 32.3727,1010.0 31.2317,1010.0 30.1189,1010.0 29.0346,1010.0 27.9788,1010.0 26.9518,1010.0 25.9536,1010.0 24.9846,1010.0 24.0447,1010.0 23.1342,1010.0 22.2532,1010.0 21.4019,1010.0 20.5803,1010.0 19.7887,1010.0 19.0271,1010.0 18.2956,1010.0 17.5945,1010.0 16.9237,1010.0 16.2834,1010.0 15.6737,1010.0 15.0946,1010.0 14.5464,1010.0 14.029,1010.0 13.5425,1010.0 13.0871,1010.0 12.6628,1010.0 12.2697,1010.0 11.9077,1010.0 11.5771,1010.0 11.2777,1010.0 11.0098,1010.0 10.7733,1010.0 10.5682,1010.0 10.3947,1010.0 10.2526,1010.0 10.1421,1010.0 10.0632,1010.0 10.0158,1010.0 10.0,1010.0" stroke="gray" stroke-width="2" /><polyline fill="none" points="10.0,1010.0 410.0,1010.0 310.0,10.0 110.0,10.0 110.0,10.0 88.0,230.0 16.0,950.0 14.0,970.0" stroke="blue" stroke-width="5" /></svg>